<?xml version="1.0" encoding="UTF-8"?>
<!-- Do not edit this file with editors other than draw.io -->
<!DOCTYPE svg PUBLIC "-//W3C//DTD SVG 1.1//EN" "http://www.w3.org/Graphics/SVG/1.1/DTD/svg11.dtd">
<svg xmlns="http://www.w3.org/2000/svg" style="background: transparent; background-color: transparent; color-scheme: light dark;" xmlns:xlink="http://www.w3.org/1999/xlink" version="1.1" width="258px" height="293px" viewBox="0 0 258 293" content="&lt;mxfile host=&quot;app.diagrams.net&quot;&gt;&#xA;  &lt;diagram name=&quot;Page-1&quot; id=&quot;JgaUW1LRldIifKcfKFYe&quot;&gt;&#xA;    &lt;mxGraphModel dx=&quot;397&quot; dy=&quot;409&quot; grid=&quot;1&quot; gridSize=&quot;10&quot; guides=&quot;1&quot; tooltips=&quot;1&quot; connect=&quot;1&quot; arrows=&quot;1&quot; fold=&quot;1&quot; page=&quot;1&quot; pageScale=&quot;1&quot; pageWidth=&quot;850&quot; pageHeight=&quot;1100&quot; math=&quot;0&quot; shadow=&quot;0&quot;&gt;&#xA;      &lt;root&gt;&#xA;        &lt;mxCell id=&quot;0&quot; /&gt;&#xA;        &lt;mxCell id=&quot;1&quot; parent=&quot;0&quot; /&gt;&#xA;        &lt;mxCell id=&quot;XYXOkvHpy0kUENhDBu1--4&quot; connectable=&quot;0&quot; parent=&quot;1&quot; style=&quot;group;rotation=30;perimeterSpacing=0;&quot; value=&quot;&quot; vertex=&quot;1&quot;&gt;&#xA;          &lt;mxGeometry height=&quot;240&quot; width=&quot;144&quot; x=&quot;248&quot; y=&quot;390&quot; as=&quot;geometry&quot; /&gt;&#xA;        &lt;/mxCell&gt;&#xA;        &lt;mxCell id=&quot;XYXOkvHpy0kUENhDBu1--1&quot; parent=&quot;XYXOkvHpy0kUENhDBu1--4&quot; style=&quot;shape=collate;whiteSpace=wrap;html=1;strokeWidth=9;perimeterSpacing=0;strokeColor=light-dark(#000000,#FFFF00);fillColor=light-dark(#0000004D,#FFFF004D);rotation=30;sketch=1;curveFitting=1;jiggle=2;&quot; value=&quot;&quot; vertex=&quot;1&quot;&gt;&#xA;          &lt;mxGeometry height=&quot;240&quot; width=&quot;144&quot; as=&quot;geometry&quot; /&gt;&#xA;        &lt;/mxCell&gt;&#xA;        &lt;mxCell id=&quot;XYXOkvHpy0kUENhDBu1--3&quot; parent=&quot;XYXOkvHpy0kUENhDBu1--4&quot; style=&quot;ellipse;whiteSpace=wrap;html=1;aspect=fixed;strokeWidth=4;fillColor=light-dark(#000000,#FFFF00);strokeColor=none;rotation=30;perimeterSpacing=0;&quot; value=&quot;&quot; vertex=&quot;1&quot;&gt;&#xA;          &lt;mxGeometry height=&quot;96&quot; width=&quot;96&quot; x=&quot;24&quot; y=&quot;72&quot; as=&quot;geometry&quot; /&gt;&#xA;        &lt;/mxCell&gt;&#xA;      &lt;/root&gt;&#xA;    &lt;/mxGraphModel&gt;&#xA;  &lt;/diagram&gt;&#xA;&lt;/mxfile&gt;&#xA;"><defs/><g><g data-cell-id="0"><g data-cell-id="1"><g data-cell-id="XYXOkvHpy0kUENhDBu1--4"><g/><g data-cell-id="XYXOkvHpy0kUENhDBu1--1"><g><path d="M 56 26 L 200 26 L 128 146 Z" fill="none" stroke="none" transform="rotate(30,128,146)" pointer-events="all"/><path d="M 56 266 L 200 266 L 128 146 Z" fill="none" stroke="none" transform="rotate(30,128,146)" pointer-events="all"/><path d="M 56 26 C 109.94 29.29 165.41 26.17 200 26 C 186.41 48.66 174.73 75.14 128 146 C 107 100.21 79.62 57.67 56 26" fill="#0000004d" style="fill: light-dark(rgba(0, 0, 0, 0.3), rgba(255, 255, 0, 0.3));" stroke="none" transform="rotate(30,128,146)" pointer-events="all"/><path d="M 56 26 C 92.95 27.34 121.67 26.36 200 26 M 56 26 C 89.19 25.28 122.33 26.89 200 26 M 200 26 C 179.03 50.85 166.35 87.87 128 146 M 200 26 C 184.94 54.26 166.57 82.95 128 146 M 128 146 C 100.79 108.68 82.62 71.06 56 26 M 128 146 C 105.25 111.85 88.07 81.18 56 26" fill="none" stroke="#000000" style="stroke: light-dark(rgb(0, 0, 0), rgb(255, 255, 0));" stroke-width="9" stroke-linejoin="round" stroke-linecap="round" stroke-miterlimit="10" transform="rotate(30,128,146)" pointer-events="all"/><path d="M 56 266 C 109.94 269.29 165.41 266.17 200 266 C 183.86 236.68 172.17 211.16 128 146 C 105.05 190.4 77.67 238.06 56 266" fill="#0000004d" style="fill: light-dark(rgba(0, 0, 0, 0.3), rgba(255, 255, 0, 0.3));" stroke="none" transform="rotate(30,128,146)" pointer-events="all"/><path d="M 56 266 C 92.95 267.34 121.67 266.36 200 266 M 56 266 C 89.19 265.28 122.33 266.89 200 266 M 200 266 C 179.47 232.13 166.79 210.44 128 146 M 200 266 C 183.52 239.45 165.14 213.31 128 146 M 128 146 C 105.16 185.11 86.99 223.9 56 266 M 128 146 C 108.7 176.38 91.53 210.24 56 266" fill="none" stroke="#000000" style="stroke: light-dark(rgb(0, 0, 0), rgb(255, 255, 0));" stroke-width="9" stroke-linejoin="round" stroke-linecap="round" stroke-miterlimit="10" transform="rotate(30,128,146)" pointer-events="all"/></g></g><g data-cell-id="XYXOkvHpy0kUENhDBu1--3"><g transform="translate(0.5,0.5)"><ellipse cx="128" cy="146" rx="48" ry="48" fill="#000000" style="fill: light-dark(rgb(0, 0, 0), rgb(255, 255, 0));" stroke="none" transform="rotate(30,128,146)" pointer-events="all"/></g></g></g></g></g></g></svg>