<?xml version="1.0" encoding="UTF-8"?>
<!-- Do not edit this file with editors other than draw.io -->
<!DOCTYPE svg PUBLIC "-//W3C//DTD SVG 1.1//EN" "http://www.w3.org/Graphics/SVG/1.1/DTD/svg11.dtd">
<svg xmlns="http://www.w3.org/2000/svg" style="background: transparent; background-color: transparent; color-scheme: light dark;" xmlns:xlink="http://www.w3.org/1999/xlink" version="1.1" width="153px" height="249px" viewBox="0 0 153 249" content="&lt;mxfile host=&quot;app.diagrams.net&quot;&gt;&#xA;  &lt;diagram name=&quot;Page-1&quot; id=&quot;JgaUW1LRldIifKcfKFYe&quot;&gt;&#xA;    &lt;mxGraphModel dx=&quot;578&quot; dy=&quot;613&quot; grid=&quot;1&quot; gridSize=&quot;10&quot; guides=&quot;1&quot; tooltips=&quot;1&quot; connect=&quot;1&quot; arrows=&quot;1&quot; fold=&quot;1&quot; page=&quot;1&quot; pageScale=&quot;1&quot; pageWidth=&quot;850&quot; pageHeight=&quot;1100&quot; math=&quot;0&quot; shadow=&quot;0&quot;&gt;&#xA;      &lt;root&gt;&#xA;        &lt;mxCell id=&quot;0&quot; /&gt;&#xA;        &lt;mxCell id=&quot;1&quot; parent=&quot;0&quot; /&gt;&#xA;        &lt;mxCell id=&quot;XYXOkvHpy0kUENhDBu1--4&quot; connectable=&quot;0&quot; parent=&quot;1&quot; style=&quot;group;rotation=0;perimeterSpacing=0;&quot; value=&quot;&quot; vertex=&quot;1&quot;&gt;&#xA;          &lt;mxGeometry height=&quot;240&quot; width=&quot;144&quot; x=&quot;248&quot; y=&quot;390&quot; as=&quot;geometry&quot; /&gt;&#xA;        &lt;/mxCell&gt;&#xA;        &lt;mxCell id=&quot;XYXOkvHpy0kUENhDBu1--1&quot; parent=&quot;XYXOkvHpy0kUENhDBu1--4&quot; style=&quot;shape=collate;whiteSpace=wrap;html=1;strokeWidth=9;perimeterSpacing=0;strokeColor=light-dark(#000000,#FFFFFF);fillColor=light-dark(#FFFFFF4D,#D8D8D84D);rotation=0;sketch=1;curveFitting=1;jiggle=2;&quot; value=&quot;&quot; vertex=&quot;1&quot;&gt;&#xA;          &lt;mxGeometry height=&quot;240&quot; width=&quot;144&quot; as=&quot;geometry&quot; /&gt;&#xA;        &lt;/mxCell&gt;&#xA;        &lt;mxCell id=&quot;XYXOkvHpy0kUENhDBu1--3&quot; parent=&quot;XYXOkvHpy0kUENhDBu1--4&quot; style=&quot;ellipse;whiteSpace=wrap;html=1;aspect=fixed;strokeWidth=4;fillColor=light-dark(#000000,#FFFFFF);strokeColor=light-dark(#000000,#FFFFFF);rotation=0;perimeterSpacing=0;&quot; value=&quot;&quot; vertex=&quot;1&quot;&gt;&#xA;          &lt;mxGeometry height=&quot;96&quot; width=&quot;96&quot; x=&quot;24&quot; y=&quot;72&quot; as=&quot;geometry&quot; /&gt;&#xA;        &lt;/mxCell&gt;&#xA;      &lt;/root&gt;&#xA;    &lt;/mxGraphModel&gt;&#xA;  &lt;/diagram&gt;&#xA;&lt;/mxfile&gt;&#xA;"><defs/><g><g data-cell-id="0"><g data-cell-id="1"><g data-cell-id="XYXOkvHpy0kUENhDBu1--4"><g transform="translate(0.5,0.5)"/><g data-cell-id="XYXOkvHpy0kUENhDBu1--1"><g transform="translate(0.5,0.5)"><path d="M 4 4 L 148 4 L 76 124 Z" fill="none" stroke="none" pointer-events="all"/><path d="M 4 244 L 148 244 L 76 124 Z" fill="none" stroke="none" pointer-events="all"/><path d="M 4 4 C 57.94 7.29 113.41 4.17 148 4 C 134.41 26.66 122.73 53.14 76 124 C 55 78.21 27.62 35.67 4 4" fill="#ffffff4d" style="fill: light-dark(rgba(255, 255, 255, 0.3), rgba(216, 216, 216, 0.3));" stroke="none" pointer-events="all"/><path d="M 4 4 C 40.95 5.34 69.67 4.36 148 4 M 4 4 C 37.19 3.28 70.33 4.89 148 4 M 148 4 C 127.03 28.85 114.35 65.87 76 124 M 148 4 C 132.94 32.26 114.57 60.95 76 124 M 76 124 C 48.79 86.68 30.62 49.06 4 4 M 76 124 C 53.25 89.85 36.07 59.18 4 4" fill="none" stroke="#000000" style="stroke: light-dark(rgb(0, 0, 0), rgb(255, 255, 255));" stroke-width="9" stroke-linejoin="round" stroke-linecap="round" stroke-miterlimit="10" pointer-events="all"/><path d="M 4 244 C 57.94 247.29 113.41 244.17 148 244 C 131.86 214.68 120.17 189.16 76 124 C 53.05 168.4 25.67 216.06 4 244" fill="#ffffff4d" style="fill: light-dark(rgba(255, 255, 255, 0.3), rgba(216, 216, 216, 0.3));" stroke="none" pointer-events="all"/><path d="M 4 244 C 40.95 245.34 69.67 244.36 148 244 M 4 244 C 37.19 243.28 70.33 244.89 148 244 M 148 244 C 127.47 210.13 114.79 188.44 76 124 M 148 244 C 131.52 217.45 113.14 191.31 76 124 M 76 124 C 53.16 163.11 34.99 201.9 4 244 M 76 124 C 56.7 154.38 39.53 188.24 4 244" fill="none" stroke="#000000" style="stroke: light-dark(rgb(0, 0, 0), rgb(255, 255, 255));" stroke-width="9" stroke-linejoin="round" stroke-linecap="round" stroke-miterlimit="10" pointer-events="all"/></g></g><g data-cell-id="XYXOkvHpy0kUENhDBu1--3"><g transform="translate(0.5,0.5)"><ellipse cx="76" cy="124" rx="48" ry="48" fill="#000000" style="fill: light-dark(rgb(0, 0, 0), rgb(255, 255, 255)); stroke: light-dark(rgb(0, 0, 0), rgb(255, 255, 255));" stroke="#000000" stroke-width="4" pointer-events="all"/></g></g></g></g></g></g></svg>