<?xml version="1.0" encoding="UTF-8" standalone="no"?>
<!-- Created with Inkscape (http://www.inkscape.org/) -->

<svg
   width="52.0px"
   height="52.0px"
   viewBox="0 0 52.0 52.0"
   version="1.1"
   id="SVGRoot"
   sodipodi:docname="drawing.svg"
   inkscape:version="1.2.2 (b0a8486541, 2022-12-01)"
   xmlns:inkscape="http://www.inkscape.org/namespaces/inkscape"
   xmlns:sodipodi="http://sodipodi.sourceforge.net/DTD/sodipodi-0.dtd"
   xmlns="http://www.w3.org/2000/svg"
   xmlns:svg="http://www.w3.org/2000/svg">
  <sodipodi:namedview
     id="namedview263"
     pagecolor="#ffffff"
     bordercolor="#000000"
     borderopacity="0.25"
     inkscape:showpageshadow="2"
     inkscape:pageopacity="0.0"
     inkscape:pagecheckerboard="0"
     inkscape:deskcolor="#d1d1d1"
     inkscape:document-units="px"
     showgrid="true"
     inkscape:zoom="12.514703"
     inkscape:cx="17.579323"
     inkscape:cy="28.925977"
     inkscape:window-width="1920"
     inkscape:window-height="1080"
     inkscape:window-x="0"
     inkscape:window-y="0"
     inkscape:window-maximized="1"
     inkscape:current-layer="layer1">
    <inkscape:grid
       type="xygrid"
       id="grid386" />
  </sodipodi:namedview>
  <defs
     id="defs258" />
  <g
     inkscape:label="Layer 1"
     inkscape:groupmode="layer"
     id="layer1">
    <g
       id="g1442"
       transform="matrix(1.5191171,0,0,1.5191171,-13.524539,-13.540594)">
      <ellipse
         style="opacity:1;fill:#ffff00;fill-opacity:0.479466;stroke:#dcfb00;stroke-width:1.50233;stroke-dasharray:none;stroke-opacity:1;paint-order:normal"
         id="path947"
         cx="-26"
         cy="26.115416"
         transform="scale(-1,1)"
         rx="7.248837"
         ry="7.364254" />
      <path
         id="path947-7"
         style="fill:#ffff00;fill-opacity:0.479466;stroke:#dcfb00;stroke-width:1.49161;stroke-dasharray:none;stroke-opacity:1;paint-order:normal"
         d="m 32.899692,10.748215 -6.845703,0.01367 -6.845703,0.01563 3.433594,6.830078 0.8125,1.617188 a 7.2541957,7.2541966 0 0 1 2.597656,-0.501956 7.2541957,7.2541966 0 0 1 2.626953,0.49414 l 0.808594,-1.623046 z" />
      <path
         id="path947-7-5"
         style="fill:#ffff00;fill-opacity:0.479466;stroke:#dcfb00;stroke-width:1.49161;stroke-dasharray:none;stroke-opacity:1;paint-order:normal"
         d="m 19.206246,41.419576 6.845703,-0.01367 6.845703,-0.01563 -3.433594,-6.830078 -0.8125,-1.617188 a 7.2541957,7.2541966 0 0 1 -2.597656,0.501956 7.2541957,7.2541966 0 0 1 -2.626953,-0.49414 l -0.808594,1.623046 z" />
    </g>
  </g>
</svg>
