<svg version="1.1" viewBox="0.0 0.0 4175.734908136483 3007.721784776903" fill="none" stroke="none" stroke-linecap="square" stroke-miterlimit="10" xmlns:xlink="http://www.w3.org/1999/xlink" xmlns="http://www.w3.org/2000/svg"><clipPath id="p.0"><path d="m0 0l4175.735 0l0 3007.7217l-4175.735 0l0 -3007.7217z" clip-rule="nonzero"/></clipPath><g clip-path="url(#p.0)"><path fill="#000000" fill-opacity="0.0" d="m0 0l4175.735 0l0 3007.7217l-4175.735 0z" fill-rule="evenodd"/><path fill="#000000" fill-opacity="0.0" d="m53.514435 18.291338l3770.4568 0l0 3007.7166l-3770.4568 0z" fill-rule="evenodd"/><path stroke="#000000" stroke-width="1.0" stroke-linejoin="round" stroke-linecap="butt" d="m53.514435 18.291338l3770.4568 0l0 3007.7166l-3770.4568 0z" fill-rule="evenodd"/><path fill="#000000" fill-opacity="0.0" d="m436.15485 2549.231l-0.7558899 -388.4724" fill-rule="evenodd"/><path stroke="#ffffff" stroke-width="12.0" stroke-linejoin="round" stroke-linecap="butt" d="m436.15485 2549.231l-0.7558899 -388.4724" fill-rule="evenodd"/><path fill="#000000" fill-opacity="0.0" d="m430.78217 2546.153l128.37793 0.40942383" fill-rule="evenodd"/><path stroke="#ffffff" stroke-width="12.0" stroke-linejoin="round" stroke-linecap="butt" d="m430.78217 2546.153l128.37793 0.40942383" fill-rule="evenodd"/><path fill="#000000" fill-opacity="0.0" d="m559.1601 2546.5625l93.03937 -89.21265l93.03937 89.21265l-93.03937 89.21265z" fill-rule="evenodd"/><path stroke="#ffffff" stroke-width="12.0" stroke-linejoin="round" stroke-linecap="butt" d="m559.1601 2546.5625l93.03937 -89.21265l93.03937 89.21265l-93.03937 89.21265z" fill-rule="evenodd"/><path fill="#ffffff" d="m678.71106 2537.1226q0 3.390625 -1.1875 6.625q-1.171875 3.234375 -3.375 5.4375q-3.015625 2.96875 -6.71875 4.5q-3.703125 1.515625 -9.234375 1.515625l-8.078125 0l0 16.421875l-13.0 0l0 -50.40625l21.390625 0q4.8125 0 8.109375 0.828125q3.296875 0.828125 5.828125 2.484375q3.046875 2.0 4.65625 5.125q1.609375 3.109375 1.609375 7.46875zm-13.4375 0.3125q0 -2.140625 -1.15625 -3.671875q-1.140625 -1.546875 -2.671875 -2.15625q-2.03125 -0.8125 -3.96875 -0.890625q-1.921875 -0.09375 -5.125 -0.09375l-2.234375 0l0 15.109375l3.71875 0q3.3125 0 5.453125 -0.40625q2.15625 -0.40625 3.625 -1.625q1.25 -1.09375 1.796875 -2.59375q0.5625 -1.515625 0.5625 -3.671875z" fill-rule="nonzero"/><path fill="#000000" fill-opacity="0.0" d="m652.95276 2636.9956l495.65356 0.2939453l0.80578613 -181.45142l-497.58008 2.4172363" fill-rule="evenodd"/><path stroke="#ffffff" stroke-width="12.0" stroke-linejoin="round" stroke-linecap="butt" d="m652.95276 2636.9956l495.65356 0.2939453l0.80578613 -181.45142l-497.58008 2.4172363" fill-rule="evenodd"/><path fill="#000000" fill-opacity="0.0" d="m1991.6089 886.06824l11.338623 22.677185" fill-rule="evenodd"/><path stroke="#000000" stroke-width="1.0" stroke-linejoin="round" stroke-linecap="butt" d="m1991.6089 886.06824l11.338623 22.677185" fill-rule="evenodd"/><path fill="#000000" fill-opacity="0.0" d="m390.09448 1099.2572l1136.7491 0l0 319.59058l-3.772705 0" fill-rule="evenodd"/><path stroke="#a4c2f4" stroke-width="24.0" stroke-linejoin="round" stroke-linecap="butt" d="m481.0545 1099.2572l1045.7891 0l0 184.5647" fill-rule="evenodd"/><path stroke="#a4c2f4" stroke-width="24.0" stroke-linecap="butt" d="m481.05447 1138.7372l-78.95999 0l0 -78.95996l78.95999 0l0 78.95996z" fill-rule="nonzero"/><path stroke="#a4c2f4" stroke-width="24.0" stroke-linecap="butt" d="m1526.8436 1283.8218l-41.545532 55.940186l38.357056 58.172607l41.545532 -55.940063z" fill-rule="evenodd"/><path fill="#000000" fill-opacity="0.0" d="m657.7664 791.59845l831.91534 0l0 -166.26776l3.1397705 0" fill-rule="evenodd"/><path stroke="#a4c2f4" stroke-width="24.0" stroke-linejoin="round" stroke-linecap="butt" d="m657.7664 791.59845l831.91534 0l0 -166.26776l3.1397705 0" fill-rule="evenodd"/><path fill="#000000" fill-opacity="0.0" d="m229.51443 600.69556l217.44882 0l0 190.92914l217.44879 0" fill-rule="evenodd"/><path stroke="#a4c2f4" stroke-width="24.0" stroke-linejoin="round" stroke-linecap="butt" d="m320.47443 600.69556l126.48883 0l0 190.92914l217.44879 0" fill-rule="evenodd"/><path fill="#a4c2f4" stroke="#a4c2f4" stroke-width="24.0" stroke-linecap="butt" d="m241.51443 600.69556c0 -21.8042 17.675812 -39.48004 39.48001 -39.48004c21.8042 0 39.47998 17.675842 39.47998 39.48004c0 21.8042 -17.675781 39.47998 -39.47998 39.47998c-21.8042 0 -39.48001 -17.675781 -39.48001 -39.47998z" fill-rule="nonzero"/><path fill="#000000" fill-opacity="0.0" d="m1235.9003 791.6063l0 313.60632" fill-rule="evenodd"/><path stroke="#a4c2f4" stroke-width="24.0" stroke-linejoin="round" stroke-linecap="butt" d="m1235.9003 791.6063l0 313.60632" fill-rule="evenodd"/><path fill="#000000" fill-opacity="0.0" d="m2622.1443 1187.9265l907.3386 0" fill-rule="evenodd"/><path stroke="#ff0000" stroke-width="24.0" stroke-linejoin="round" stroke-linecap="butt" d="m2622.1443 1187.9265l772.26 0" fill-rule="evenodd"/><path stroke="#ff0000" stroke-width="24.0" stroke-linecap="butt" d="m3394.4043 1187.9265l57.078613 39.96692l57.078613 -39.96692l-57.078613 -39.96692z" fill-rule="evenodd"/><path fill="#000000" fill-opacity="0.0" d="m2633.9607 2106.538l-3.7802734 0l0 -355.18115l710.3628 0" fill-rule="evenodd"/><path stroke="#93c47d" stroke-width="24.0" stroke-linejoin="round" stroke-linecap="butt" d="m2633.9607 2106.538l-3.7802734 0l0 -355.18115l619.40283 0" fill-rule="evenodd"/><path fill="#93c47d" stroke="#93c47d" stroke-width="24.0" stroke-linecap="butt" d="m3328.5432 1751.3569c0 21.8042 -17.675781 39.47998 -39.47998 39.47998c-21.8042 0 -39.47998 -17.675781 -39.47998 -39.47998c0 -21.8042 17.675781 -39.47998 39.47998 -39.47998c21.8042 0 39.47998 17.675781 39.47998 39.47998z" fill-rule="nonzero"/><path fill="#000000" fill-opacity="0.0" d="m904.81104 1790.2074l-677.6063 -3.7480469" fill-rule="evenodd"/><path stroke="#93c47d" stroke-width="24.0" stroke-linejoin="round" stroke-linecap="butt" d="m904.81104 1790.2074l-586.6477 -3.244995" fill-rule="evenodd"/><path stroke="#93c47d" stroke-width="24.0" stroke-linecap="butt" d="m317.94495 1826.4418l-78.95877 -0.4366455l0.43673706 -78.95886l78.9588 0.43676758l-0.43676758 78.95874z" fill-rule="nonzero"/><path fill="#000000" fill-opacity="0.0" d="m1125.9528 2151.9055l-910.2677 -5.385742" fill-rule="evenodd"/><path stroke="#9900ff" stroke-width="24.0" stroke-linejoin="round" stroke-linecap="butt" d="m1125.9528 2151.9055l-819.3093 -4.8476562" fill-rule="evenodd"/><path stroke="#9900ff" stroke-width="24.0" stroke-linecap="butt" d="m306.40985 2186.537l-78.95862 -0.46704102l0.46717834 -78.95874l78.95863 0.46728516l-0.4671936 78.958496z" fill-rule="nonzero"/><path fill="#000000" fill-opacity="0.0" d="m775.58795 341.95407l-168.18903 0" fill-rule="evenodd"/><path stroke="#ffffff" stroke-width="12.0" stroke-linejoin="round" stroke-linecap="butt" d="m775.58795 341.95407l-168.18903 0" fill-rule="evenodd"/><path fill="#000000" fill-opacity="0.0" d="m607.3989 341.95407l-93.03937 -89.212585l-93.03934 89.212585l93.03934 89.212616z" fill-rule="evenodd"/><path stroke="#ffffff" stroke-width="12.0" stroke-linejoin="round" stroke-linecap="butt" d="m607.3989 341.95407l-93.03937 -89.212585l-93.03934 89.212585l93.03934 89.212616z" fill-rule="evenodd"/><path fill="#ffffff" d="m540.87115 332.51407q0 3.390625 -1.1875 6.625q-1.171875 3.234375 -3.375 5.4375q-3.015625 2.96875 -6.71875 4.5q-3.703125 1.515625 -9.234375 1.515625l-8.078125 0l0 16.421875l-13.0 0l0 -50.40625l21.390625 0q4.8125 0 8.109375 0.828125q3.296875 0.828125 5.828125 2.484375q3.046875 2.0 4.65625 5.125q1.609375 3.109375 1.609375 7.46875zm-13.4375 0.3125q0 -2.140625 -1.15625 -3.671875q-1.140625 -1.546875 -2.671875 -2.15625q-2.03125 -0.8125 -3.96875 -0.890625q-1.921875 -0.09375 -5.125 -0.09375l-2.234375 0l0 15.109375l3.71875 0q3.3125 0 5.453125 -0.40625q2.15625 -0.40625 3.625 -1.625q1.25 -1.09375 1.796875 -2.59375q0.5625 -1.515625 0.5625 -3.671875z" fill-rule="nonzero"/><path fill="#000000" fill-opacity="0.0" d="m513.6063 432.38715l-495.65356 0.2939453l-0.8057728 -181.45143l497.58008 2.417328" fill-rule="evenodd"/><path stroke="#ffffff" stroke-width="12.0" stroke-linejoin="round" stroke-linecap="butt" d="m513.6063 432.38715l-495.65356 0.2939453l-0.8057728 -181.45143l497.58008 2.417328" fill-rule="evenodd"/><path fill="#000000" fill-opacity="0.0" d="m2002.9475 1616.3635l93.03931 -89.21265l93.03955 89.21265l-93.03955 89.21265z" fill-rule="evenodd"/><path stroke="#ffffff" stroke-width="12.0" stroke-linejoin="round" stroke-linecap="butt" d="m2002.9475 1616.3635l93.03931 -89.21265l93.03955 89.21265l-93.03955 89.21265z" fill-rule="evenodd"/><path fill="#ffffff" d="m2122.4985 1606.9236q0 3.390625 -1.1875 6.625q-1.171875 3.234375 -3.375 5.4375q-3.015625 2.96875 -6.71875 4.5q-3.703125 1.515625 -9.234375 1.515625l-8.078125 0l0 16.421875l-13.0 0l0 -50.40625l21.390625 0q4.8125 0 8.109375 0.828125q3.296875 0.828125 5.828125 2.484375q3.046875 2.0 4.65625 5.125q1.609375 3.109375 1.609375 7.46875zm-13.4375 0.3125q0 -2.140625 -1.15625 -3.671875q-1.140625 -1.546875 -2.671875 -2.15625q-2.03125 -0.8125 -3.96875 -0.890625q-1.921875 -0.09375 -5.125 -0.09375l-2.234375 0l0 15.109375l3.71875 0q3.3125 0 5.453125 -0.40625q2.15625 -0.40625 3.625 -1.625q1.25 -1.09375 1.796875 -2.59375q0.5625 -1.515625 0.5625 -3.671875z" fill-rule="nonzero"/><path fill="#000000" fill-opacity="0.0" d="m2096.7402 1706.7966l495.65356 0.2939453l0.80566406 -181.45142l-497.58008 2.4172363" fill-rule="evenodd"/><path stroke="#ffffff" stroke-width="12.0" stroke-linejoin="round" stroke-linecap="butt" d="m2096.7402 1706.7966l495.65356 0.2939453l0.80566406 -181.45142l-497.58008 2.4172363" fill-rule="evenodd"/><path fill="#000000" fill-opacity="0.0" d="m2002.9475 1616.3635l-68.409424 0l0 749.82666" fill-rule="evenodd"/><path stroke="#ffffff" stroke-width="12.0" stroke-linejoin="round" stroke-linecap="butt" d="m2002.9475 1616.3635l-68.409424 0l0 749.82666" fill-rule="evenodd"/><path fill="#000000" fill-opacity="0.0" d="m1118.6221 2163.6326l-0.9449463 -309.7323" fill-rule="evenodd"/><path stroke="#9900ff" stroke-width="24.0" stroke-linejoin="round" stroke-linecap="butt" d="m1118.6221 2163.6326l-0.9449463 -309.7323" fill-rule="evenodd"/><path fill="#000000" fill-opacity="0.0" d="m1617.315 2000.4121l-0.46264648 0l0 -210.20471l-274.90747 0" fill-rule="evenodd"/><path stroke="#93c47d" stroke-width="24.0" stroke-linejoin="round" stroke-linecap="butt" d="m1617.315 2000.4121l-0.46264648 0l0 -210.20471l-274.90747 0" fill-rule="evenodd"/><path fill="#000000" fill-opacity="0.0" d="m2213.9553 1124.6509l379.24414 0l0 127.40161l-379.24414 0z" fill-rule="evenodd"/><path fill="#ffffff" d="m2333.384 1207.5518l0 -38.171875l12.375 0q7.03125 0 9.171875 0.578125q3.265625 0.859375 5.484375 3.734375q2.21875 2.875 2.21875 7.421875q0 3.515625 -1.28125 5.921875q-1.28125 2.390625 -3.25 3.765625q-1.953125 1.359375 -3.984375 1.796875q-2.765625 0.546875 -8.0 0.546875l-5.015625 0l0 14.40625l-7.71875 0zm7.71875 -31.71875l0 10.828125l4.21875 0q4.546875 0 6.078125 -0.59375q1.546875 -0.59375 2.421875 -1.875q0.875 -1.28125 0.875 -2.96875q0 -2.078125 -1.234375 -3.421875q-1.21875 -1.359375 -3.09375 -1.703125q-1.375 -0.265625 -5.546875 -0.265625l-3.71875 0zm46.00708 31.71875l0 -4.140625q-1.515625 2.21875 -3.984375 3.5q-2.453125 1.265625 -5.1875 1.265625q-2.78125 0 -5.0 -1.21875q-2.203125 -1.234375 -3.203125 -3.4375q-0.984375 -2.21875 -0.984375 -6.125l0 -17.5l7.3125 0l0 12.703125q0 5.84375 0.40625 7.15625q0.40625 1.3125 1.46875 2.078125q1.078125 0.765625 2.71875 0.765625q1.875 0 3.359375 -1.015625q1.484375 -1.03125 2.03125 -2.546875q0.546875 -1.53125 0.546875 -7.46875l0 -11.671875l7.3125 0l0 27.65625l-6.796875 0zm13.824951 -27.65625l6.75 0l0 3.78125q3.609375 -4.40625 8.609375 -4.40625q2.65625 0 4.609375 1.09375q1.953125 1.09375 3.203125 3.3125q1.828125 -2.21875 3.9375 -3.3125q2.109375 -1.09375 4.5 -1.09375q3.046875 0 5.15625 1.234375q2.109375 1.234375 3.15625 3.640625q0.75 1.765625 0.75 5.71875l0 17.6875l-7.3125 0l0 -15.8125q0 -4.109375 -0.765625 -5.3125q-1.015625 -1.5625 -3.125 -1.5625q-1.53125 0 -2.890625 0.9375q-1.34375 0.9375 -1.953125 2.75q-0.59375 1.8125 -0.59375 5.71875l0 13.28125l-7.3125 0l0 -15.15625q0 -4.03125 -0.390625 -5.203125q-0.390625 -1.171875 -1.21875 -1.75q-0.8125 -0.578125 -2.21875 -0.578125q-1.6875 0 -3.046875 0.921875q-1.359375 0.90625 -1.953125 2.625q-0.578125 1.71875 -0.578125 5.703125l0 13.4375l-7.3125 0l0 -27.65625zm47.760986 0l6.8125 0l0 4.0625q1.328125 -2.078125 3.59375 -3.375q2.265625 -1.3125 5.03125 -1.3125q4.8125 0 8.171875 3.78125q3.359375 3.765625 3.359375 10.515625q0 6.921875 -3.390625 10.765625q-3.375 3.84375 -8.1875 3.84375q-2.296875 0 -4.15625 -0.90625q-1.859375 -0.921875 -3.921875 -3.125l0 13.921875l-7.3125 0l0 -38.171875zm7.234375 13.359375q0 4.65625 1.84375 6.890625q1.859375 2.21875 4.515625 2.21875q2.546875 0 4.234375 -2.03125q1.703125 -2.046875 1.703125 -6.71875q0 -4.34375 -1.75 -6.453125q-1.75 -2.109375 -4.328125 -2.109375q-2.671875 0 -4.453125 2.078125q-1.765625 2.0625 -1.765625 6.125z" fill-rule="nonzero"/><path fill="#000000" fill-opacity="0.0" d="m2185.0105 1188.3517l-209.03943 -0.8503418" fill-rule="evenodd"/><path stroke="#ff0000" stroke-width="24.0" stroke-linejoin="round" stroke-linecap="butt" d="m2185.0105 1188.3517l-118.08008 -0.48034668" fill-rule="evenodd"/><path stroke="#ff0000" stroke-width="24.0" stroke-linecap="butt" d="m2066.7698 1227.3511l-78.95935 -0.32128906l0.321167 -78.95935l78.95947 0.32128906l-0.32128906 78.95935z" fill-rule="nonzero"/><path fill="#000000" fill-opacity="0.0" d="m2163.958 429.4882l-0.9448242 -309.7323" fill-rule="evenodd"/><path stroke="#f1c232" stroke-width="24.0" stroke-linejoin="round" stroke-linecap="butt" d="m2163.958 429.4882l-0.9448242 -309.7323" fill-rule="evenodd"/><path fill="#000000" fill-opacity="0.0" d="m971.3884 341.95538l125.30713 0l0 -210.4567l125.30713 0" fill-rule="evenodd"/><path stroke="#a4c2f4" stroke-width="24.0" stroke-linejoin="round" stroke-linecap="butt" d="m971.3884 341.95538l125.30713 0l0 -210.4567l125.30713 0" fill-rule="evenodd"/><path fill="#000000" fill-opacity="0.0" d="m2450.8425 521.51447l-5.385742 -389.7953" fill-rule="evenodd"/><path stroke="#cc0000" stroke-width="24.0" stroke-linejoin="round" stroke-linecap="butt" d="m2448.9763 386.4487l-3.5195312 -254.72954" fill-rule="evenodd"/><path stroke="#cc0000" stroke-width="24.0" stroke-linecap="butt" d="m2448.9763 386.4487l-39.17456 57.625366l40.75171 56.520996l39.17456 -57.625336z" fill-rule="evenodd"/><path fill="#000000" fill-opacity="0.0" d="m2733.5276 524.2231l-2.2363281 -395.2126" fill-rule="evenodd"/><path stroke="#4a86e8" stroke-width="24.0" stroke-linejoin="round" stroke-linecap="butt" d="m2732.7632 389.1466l-1.4719238 -260.1361" fill-rule="evenodd"/><path stroke="#4a86e8" stroke-width="24.0" stroke-linecap="butt" d="m2732.7632 389.14664l-39.64331 57.303864l40.289307 56.851562l39.64331 -57.303864z" fill-rule="evenodd"/><path fill="#000000" fill-opacity="0.0" d="m3011.3806 514.4908l0.44091797 -385.4803" fill-rule="evenodd"/><path stroke="#f1c232" stroke-width="24.0" stroke-linejoin="round" stroke-linecap="butt" d="m3011.5352 379.4123l0.28637695 -250.4018" fill-rule="evenodd"/><path stroke="#f1c232" stroke-width="24.0" stroke-linecap="butt" d="m3011.5352 379.41226l-40.032227 57.032898l39.90161 57.1243l40.032227 -57.032867z" fill-rule="evenodd"/><path fill="#000000" fill-opacity="0.0" d="m1197.727 131.36482l977.6377 0.31497192" fill-rule="evenodd"/><path stroke="#a4c2f4" stroke-width="24.0" stroke-linejoin="round" stroke-linecap="butt" d="m1197.727 131.36482l977.6377 0.31497192" fill-rule="evenodd"/><path fill="#6aa84f" d="m2420.8425 443.6824l26.86621 -38.834625l26.865967 38.834625l-26.865967 38.834656z" fill-rule="evenodd"/><path stroke="#000000" stroke-width="1.0" stroke-linejoin="round" stroke-linecap="butt" d="m2420.8425 443.6824l26.86621 -38.834625l26.865967 38.834625l-26.865967 38.834656z" fill-rule="evenodd"/><path fill="#4a86e8" d="m2984.9238 440.96326l26.86621 -38.834656l26.86621 38.834656l-26.86621 38.834656z" fill-rule="evenodd"/><path stroke="#000000" stroke-width="1.0" stroke-linejoin="round" stroke-linecap="butt" d="m2984.9238 440.96326l26.86621 -38.834656l26.86621 38.834656l-26.86621 38.834656z" fill-rule="evenodd"/><path fill="#000000" fill-opacity="0.0" d="m2448.9106 383.17322l-3.4328613 -251.52754" fill-rule="evenodd"/><path stroke="#f1c232" stroke-width="24.0" stroke-linejoin="round" stroke-linecap="butt" d="m2448.9106 383.17322l-3.4328613 -251.52754" fill-rule="evenodd"/><path fill="#000000" fill-opacity="0.0" d="m2732.9924 384.8526l-1.7009277 -255.43307" fill-rule="evenodd"/><path stroke="#f1c232" stroke-width="24.0" stroke-linejoin="round" stroke-linecap="butt" d="m2732.9924 384.8526l-1.7009277 -255.43307" fill-rule="evenodd"/><path fill="#000000" fill-opacity="0.0" d="m2630.1812 2106.538l856.6299 2.4250488" fill-rule="evenodd"/><path stroke="#93c47d" stroke-width="24.0" stroke-linejoin="round" stroke-linecap="butt" d="m2630.1812 2106.538l721.55176 2.0427246" fill-rule="evenodd"/><path stroke="#93c47d" stroke-width="24.0" stroke-linecap="butt" d="m3351.733 2108.5808l56.965332 40.128418l57.191406 -39.805176l-56.965088 -40.128418z" fill-rule="evenodd"/><path fill="#000000" fill-opacity="0.0" d="m714.4593 341.958l774.6027 0l0 283.37006l3.7595215 0" fill-rule="evenodd"/><path stroke="#a4c2f4" stroke-width="24.0" stroke-linejoin="round" stroke-linecap="butt" d="m714.4593 341.958l774.6027 0l0 283.37006l3.7595215 0" fill-rule="evenodd"/><path fill="#000000" fill-opacity="0.0" d="m2185.0105 1124.2257l437.1338 0l0 127.40161l-437.1338 0z" fill-rule="evenodd"/><path stroke="#ffffff" stroke-width="8.0" stroke-linejoin="round" stroke-linecap="butt" d="m2185.0105 1124.2257l437.1338 0l0 127.40161l-437.1338 0z" fill-rule="evenodd"/><path fill="#000000" fill-opacity="0.0" d="m928.0551 1726.4987l379.24408 0l0 127.40161l-379.24408 0z" fill-rule="evenodd"/><path fill="#ffffff" d="m988.906 1795.3682l7.484375 2.359375q-1.71875 6.25 -5.71875 9.296875q-4.0 3.03125 -10.140625 3.03125q-7.609375 0 -12.5 -5.1875q-4.890625 -5.203125 -4.890625 -14.21875q0 -9.53125 4.921875 -14.796875q4.921875 -5.28125 12.9375 -5.28125q7.0 0 11.375 4.140625q2.609375 2.453125 3.90625 7.03125l-7.625 1.828125q-0.6875 -2.96875 -2.828125 -4.6875q-2.140625 -1.71875 -5.21875 -1.71875q-4.25 0 -6.890625 3.046875q-2.640625 3.046875 -2.640625 9.859375q0 7.25 2.59375 10.328125q2.609375 3.0625 6.78125 3.0625q3.078125 0 5.28125 -1.953125q2.21875 -1.953125 3.171875 -6.140625zm12.355652 -0.1875q0 -3.640625 1.796875 -7.046875q1.796875 -3.421875 5.078125 -5.21875q3.296875 -1.796875 7.359375 -1.796875q6.28125 0 10.281189 4.078125q4.015625 4.078125 4.015625 10.296875q0 6.28125 -4.046875 10.40625q-4.046814 4.125 -10.187439 4.125q-3.8125 0 -7.265625 -1.71875q-3.4375 -1.71875 -5.234375 -5.03125q-1.796875 -3.328125 -1.796875 -8.09375zm7.5 0.390625q0 4.109375 1.953125 6.296875q1.953125 2.1875 4.8125 2.1875q2.859375 0 4.796875 -2.1875q1.953125 -2.1875 1.953125 -6.34375q0 -4.0625 -1.953125 -6.25q-1.9375 -2.1875 -4.796875 -2.1875q-2.859375 0 -4.8125 2.1875q-1.953125 2.1875 -1.953125 6.296875zm26.215515 -13.828125l6.75 0l0 3.78125q3.609375 -4.40625 8.609375 -4.40625q2.65625 0 4.609375 1.09375q1.953125 1.09375 3.203125 3.3125q1.828125 -2.21875 3.9375 -3.3125q2.109375 -1.09375 4.5 -1.09375q3.046875 0 5.15625 1.234375q2.109375 1.234375 3.15625 3.640625q0.75 1.765625 0.75 5.71875l0 17.6875l-7.3125 0l0 -15.8125q0 -4.109375 -0.765625 -5.3125q-1.015625 -1.5625 -3.125 -1.5625q-1.53125 0 -2.890625 0.9375q-1.34375 0.9375 -1.953125 2.75q-0.59375 1.8125 -0.59375 5.71875l0 13.28125l-7.3125 0l0 -15.15625q0 -4.03125 -0.390625 -5.203125q-0.390625 -1.171875 -1.21875 -1.75q-0.8125 -0.578125 -2.21875 -0.578125q-1.6875 0 -3.046875 0.921875q-1.359375 0.90625 -1.953125 2.625q-0.578125 1.71875 -0.578125 5.703125l0 13.4375l-7.3125 0l0 -27.65625zm47.760986 0l6.8125 0l0 4.0625q1.328125 -2.078125 3.59375 -3.375q2.265625 -1.3125 5.03125 -1.3125q4.8125 0 8.171875 3.78125q3.359375 3.765625 3.359375 10.515625q0 6.921875 -3.390625 10.765625q-3.375 3.84375 -8.1875 3.84375q-2.296875 0 -4.15625 -0.90625q-1.859375 -0.921875 -3.921875 -3.125l0 13.921875l-7.3125 0l0 -38.171875zm7.234375 13.359375q0 4.65625 1.84375 6.890625q1.859375 2.21875 4.515625 2.21875q2.546875 0 4.234375 -2.03125q1.703125 -2.046875 1.703125 -6.71875q0 -4.34375 -1.75 -6.453125q-1.75 -2.109375 -4.328125 -2.109375q-2.671875 0 -4.453125 2.078125q-1.765625 2.0625 -1.765625 6.125zm32.5437 14.296875l-7.3125 0l0 -27.65625l6.796875 0l0 3.9375q1.75 -2.796875 3.140625 -3.671875q1.390625 -0.890625 3.15625 -0.890625q2.5 0 4.828125 1.390625l-2.265625 6.375q-1.859375 -1.203125 -3.4375 -1.203125q-1.546875 0 -2.609375 0.84375q-1.0625 0.84375 -1.6875 3.0625q-0.609375 2.21875 -0.609375 9.265625l0 8.546875zm29.76892 -8.796875l7.28125 1.21875q-1.390625 4.015625 -4.4375 6.109375q-3.03125 2.09375 -7.578125 2.09375q-7.21875 0 -10.6875 -4.71875q-2.734375 -3.765625 -2.734375 -9.53125q0 -6.875 3.59375 -10.765625q3.59375 -3.890625 9.09375 -3.890625q6.171875 0 9.734375 4.078125q3.5625 4.078125 3.40625 12.484375l-18.328125 0q0.078125 3.25 1.765625 5.0625q1.703125 1.8125 4.234375 1.8125q1.71875 0 2.890625 -0.9375q1.171875 -0.9375 1.765625 -3.015625zm0.421875 -7.40625q-0.078125 -3.171875 -1.640625 -4.828125q-1.5625 -1.65625 -3.8125 -1.65625q-2.390625 0 -3.953125 1.75q-1.5625 1.75 -1.53125 4.734375l10.9375 0zm10.642944 8.3125l7.34375 -1.125q0.46875 2.140625 1.890625 3.25q1.4375 1.109375 4.015625 1.109375q2.84375 0 4.28125 -1.046875q0.953125 -0.734375 0.953125 -1.953125q0 -0.828125 -0.515625 -1.375q-0.546875 -0.53125 -2.453125 -0.96875q-8.84375 -1.953125 -11.21875 -3.5625q-3.28125 -2.25 -3.28125 -6.234375q0 -3.59375 2.828125 -6.03125q2.84375 -2.453125 8.8125 -2.453125q5.671875 0 8.4375 1.859375q2.765625 1.84375 3.796875 5.453125l-6.890625 1.28125q-0.453125 -1.609375 -1.6875 -2.46875q-1.234375 -0.859375 -3.53125 -0.859375q-2.890625 0 -4.140625 0.796875q-0.828125 0.578125 -0.828125 1.484375q0 0.78125 0.734375 1.328125q0.984375 0.734375 6.828125 2.0625q5.84375 1.328125 8.171875 3.25q2.28125 1.953125 2.28125 5.453125q0 3.796875 -3.171875 6.53125q-3.171875 2.734375 -9.40625 2.734375q-5.640625 0 -8.9375 -2.28125q-3.296875 -2.296875 -4.3125 -6.234375zm29.65857 0l7.34375 -1.125q0.46875 2.140625 1.890625 3.25q1.4375 1.109375 4.015625 1.109375q2.84375 0 4.28125 -1.046875q0.953125 -0.734375 0.953125 -1.953125q0 -0.828125 -0.515625 -1.375q-0.546875 -0.53125 -2.453125 -0.96875q-8.84375 -1.953125 -11.21875 -3.5625q-3.28125 -2.25 -3.28125 -6.234375q0 -3.59375 2.828125 -6.03125q2.84375 -2.453125 8.8125 -2.453125q5.671875 0 8.4375 1.859375q2.765625 1.84375 3.796875 5.453125l-6.890625 1.28125q-0.453125 -1.609375 -1.6875 -2.46875q-1.234375 -0.859375 -3.53125 -0.859375q-2.890625 0 -4.140625 0.796875q-0.828125 0.578125 -0.828125 1.484375q0 0.78125 0.734375 1.328125q0.984375 0.734375 6.828125 2.0625q5.84375 1.328125 8.171875 3.25q2.28125 1.953125 2.28125 5.453125q0 3.796875 -3.171875 6.53125q-3.171875 2.734375 -9.40625 2.734375q-5.640625 0 -8.9375 -2.28125q-3.296875 -2.296875 -4.3125 -6.234375zm30.549194 -6.328125q0 -3.640625 1.796875 -7.046875q1.796875 -3.421875 5.078125 -5.21875q3.296875 -1.796875 7.359375 -1.796875q6.28125 0 10.28125 4.078125q4.015625 4.078125 4.015625 10.296875q0 6.28125 -4.046875 10.40625q-4.046875 4.125 -10.1875 4.125q-3.8125 0 -7.265625 -1.71875q-3.4375 -1.71875 -5.234375 -5.03125q-1.796875 -3.328125 -1.796875 -8.09375zm7.5 0.390625q0 4.109375 1.953125 6.296875q1.953125 2.1875 4.8125 2.1875q2.859375 0 4.796875 -2.1875q1.953125 -2.1875 1.953125 -6.34375q0 -4.0625 -1.953125 -6.25q-1.9375 -2.1875 -4.796875 -2.1875q-2.859375 0 -4.8125 2.1875q-1.953125 2.1875 -1.953125 6.296875zm33.76245 13.828125l-7.3125 0l0 -27.65625l6.796875 0l0 3.9375q1.75 -2.796875 3.140625 -3.671875q1.390625 -0.890625 3.15625 -0.890625q2.5 0 4.828125 1.390625l-2.265625 6.375q-1.859375 -1.203125 -3.4375 -1.203125q-1.546875 0 -2.609375 0.84375q-1.0625 0.84375 -1.6875 3.0625q-0.609375 2.21875 -0.609375 9.265625l0 8.546875z" fill-rule="nonzero"/><path fill="#000000" fill-opacity="0.0" d="m904.81104 1726.5066l437.1338 0l0 127.40149l-437.1338 0z" fill-rule="evenodd"/><path stroke="#ffffff" stroke-width="8.0" stroke-linejoin="round" stroke-linecap="butt" d="m904.81104 1726.5066l437.1338 0l0 127.40149l-437.1338 0z" fill-rule="evenodd"/><path fill="#000000" fill-opacity="0.0" d="m2652.853 2106.538l-253.16211 0l0 264.5039l-540.34973 0" fill-rule="evenodd"/><path stroke="#93c47d" stroke-width="24.0" stroke-linejoin="round" stroke-linecap="butt" d="m2652.853 2106.538l-253.16211 0l0 264.5039l-540.34973 0" fill-rule="evenodd"/><path fill="#000000" fill-opacity="0.0" d="m1859.3412 2368.748l0 2.2929688l-242.01575 0l0 -388.30872" fill-rule="evenodd"/><path stroke="#93c47d" stroke-width="24.0" stroke-linejoin="round" stroke-linecap="butt" d="m1859.3412 2368.748l0 2.2929688l-242.01575 0l0 -388.30872" fill-rule="evenodd"/></g></svg>