<svg version="1.1" viewBox="0.0 0.0 4175.734908136483 3007.721784776903" fill="none" stroke="none" stroke-linecap="square" stroke-miterlimit="10" xmlns:xlink="http://www.w3.org/1999/xlink" xmlns="http://www.w3.org/2000/svg"><clipPath id="p.0"><path d="m0 0l4175.735 0l0 3007.7217l-4175.735 0l0 -3007.7217z" clip-rule="nonzero"/></clipPath><g clip-path="url(#p.0)"><path fill="#000000" fill-opacity="0.0" d="m0 0l4175.735 0l0 3007.7217l-4175.735 0z" fill-rule="evenodd"/><path fill="#000000" fill-opacity="0.0" d="m2864.441 2445.025l454.11035 5.354492" fill-rule="evenodd"/><path stroke="#ffffff" stroke-width="12.0" stroke-linejoin="round" stroke-linecap="butt" d="m2864.441 2445.025l454.11035 5.354492" fill-rule="evenodd"/><path fill="#000000" fill-opacity="0.0" d="m3318.5513 2450.3794l93.03931 -89.21265l93.03931 89.21265l-93.03931 89.2124z" fill-rule="evenodd"/><path stroke="#ffffff" stroke-width="12.0" stroke-linejoin="round" stroke-linecap="butt" d="m3318.5513 2450.3794l93.03931 -89.21265l93.03931 89.21265l-93.03931 89.2124z" fill-rule="evenodd"/><path fill="#ffffff" d="m3438.102 2440.9392q0 3.390625 -1.1875 6.625q-1.171875 3.234375 -3.375 5.4375q-3.015625 2.96875 -6.71875 4.5q-3.703125 1.515625 -9.234375 1.515625l-8.078125 0l0 16.421875l-13.0 0l0 -50.40625l21.390625 0q4.8125 0 8.109375 0.828125q3.296875 0.828125 5.828125 2.484375q3.046875 2.0 4.65625 5.125q1.609375 3.109375 1.609375 7.46875zm-13.4375 0.3125q0 -2.140625 -1.15625 -3.671875q-1.140625 -1.546875 -2.671875 -2.15625q-2.03125 -0.8125 -3.96875 -0.890625q-1.921875 -0.09375 -5.125 -0.09375l-2.234375 0l0 15.109375l3.71875 0q3.3125 0 5.453125 -0.40625q2.15625 -0.40625 3.625 -1.625q1.25 -1.09375 1.796875 -2.59375q0.5625 -1.515625 0.5625 -3.671875z" fill-rule="nonzero"/><path fill="#000000" fill-opacity="0.0" d="m390.09448 2544.8071l168.18896 0" fill-rule="evenodd"/><path stroke="#ffffff" stroke-width="12.0" stroke-linejoin="round" stroke-linecap="butt" d="m390.09448 2544.8071l168.18896 0" fill-rule="evenodd"/><path fill="#000000" fill-opacity="0.0" d="m558.28345 2544.8071l93.03937 -89.21265l93.03937 89.21265l-93.03937 89.21265z" fill-rule="evenodd"/><path stroke="#ffffff" stroke-width="12.0" stroke-linejoin="round" stroke-linecap="butt" d="m558.28345 2544.8071l93.03937 -89.21265l93.03937 89.21265l-93.03937 89.21265z" fill-rule="evenodd"/><path fill="#ffffff" d="m677.8344 2535.3672q0 3.390625 -1.1875 6.625q-1.171875 3.234375 -3.375 5.4375q-3.015625 2.96875 -6.71875 4.5q-3.703125 1.515625 -9.234375 1.515625l-8.078125 0l0 16.421875l-13.0 0l0 -50.40625l21.390625 0q4.8125 0 8.109375 0.828125q3.296875 0.828125 5.828125 2.484375q3.046875 2.0 4.65625 5.125q1.609375 3.109375 1.609375 7.46875zm-13.4375 0.3125q0 -2.140625 -1.15625 -3.671875q-1.140625 -1.546875 -2.671875 -2.15625q-2.03125 -0.8125 -3.96875 -0.890625q-1.921875 -0.09375 -5.125 -0.09375l-2.234375 0l0 15.109375l3.71875 0q3.3125 0 5.453125 -0.40625q2.15625 -0.40625 3.625 -1.625q1.25 -1.09375 1.796875 -2.59375q0.5625 -1.515625 0.5625 -3.671875z" fill-rule="nonzero"/><path fill="#000000" fill-opacity="0.0" d="m652.0761 2635.2402l495.6535 0.2939453l0.80578613 -181.45142l-497.58002 2.4172363" fill-rule="evenodd"/><path stroke="#ffffff" stroke-width="12.0" stroke-linejoin="round" stroke-linecap="butt" d="m652.0761 2635.2402l495.6535 0.2939453l0.80578613 -181.45142l-497.58002 2.4172363" fill-rule="evenodd"/><path fill="#000000" fill-opacity="0.0" d="m3410.8662 2540.8123l495.65356 0.2939453l0.80566406 -181.45142l-497.58008 2.4174805" fill-rule="evenodd"/><path stroke="#ffffff" stroke-width="12.0" stroke-linejoin="round" stroke-linecap="butt" d="m3410.8662 2540.8123l495.65356 0.2939453l0.80566406 -181.45142l-497.58008 2.4174805" fill-rule="evenodd"/><path fill="#000000" fill-opacity="0.0" d="m1991.6089 886.06824l11.338623 22.677185" fill-rule="evenodd"/><path stroke="#000000" stroke-width="1.0" stroke-linejoin="round" stroke-linecap="butt" d="m1991.6089 886.06824l11.338623 22.677185" fill-rule="evenodd"/><path fill="#000000" fill-opacity="0.0" d="m390.09448 1099.2572l1136.7491 0l0 319.59058l-3.772705 0" fill-rule="evenodd"/><path stroke="#ffffff" stroke-width="24.0" stroke-linejoin="round" stroke-linecap="butt" d="m390.09448 1099.2572l1136.7491 0l0 319.59058l-3.772705 0" fill-rule="evenodd"/><path fill="#000000" fill-opacity="0.0" d="m654.0026 791.6063l838.83795 0l0 -166.26776l-3.782837 0" fill-rule="evenodd"/><path stroke="#ffffff" stroke-width="24.0" stroke-linejoin="round" stroke-linecap="butt" d="m654.0026 791.6063l838.83795 0l0 -166.26776l-3.782837 0" fill-rule="evenodd"/><path fill="#000000" fill-opacity="0.0" d="m242.14174 598.90027l15.117172 0l0 192.72443l407.1505 0" fill-rule="evenodd"/><path stroke="#ffffff" stroke-width="24.0" stroke-linejoin="round" stroke-linecap="butt" d="m242.14174 598.90027l15.117172 0l0 192.72443l407.1505 0" fill-rule="evenodd"/><path fill="#000000" fill-opacity="0.0" d="m714.4593 341.958l774.6027 0l0 283.37006l3.7595215 0" fill-rule="evenodd"/><path stroke="#ffffff" stroke-width="24.0" stroke-linejoin="round" stroke-linecap="butt" d="m714.4593 341.958l774.6027 0l0 283.37006l3.7595215 0" fill-rule="evenodd"/><path fill="#000000" fill-opacity="0.0" d="m1235.9003 791.6063l0 313.60632" fill-rule="evenodd"/><path stroke="#ffffff" stroke-width="24.0" stroke-linejoin="round" stroke-linecap="butt" d="m1235.9003 791.6063l0 313.60632" fill-rule="evenodd"/><path fill="#000000" fill-opacity="0.0" d="m963.8425 349.51443l0 -207.8192l207.81104 0l0 -7.550873" fill-rule="evenodd"/><path stroke="#ffffff" stroke-width="24.0" stroke-linejoin="round" stroke-linecap="butt" d="m963.8425 349.51443l0 -207.8192l207.81104 0l0 -7.550873" fill-rule="evenodd"/><path fill="#000000" fill-opacity="0.0" d="m2157.8635 1188.3517l1371.6221 0" fill-rule="evenodd"/><path stroke="#ffffff" stroke-width="24.0" stroke-linejoin="round" stroke-linecap="butt" d="m2157.8635 1188.3517l1371.6221 0" fill-rule="evenodd"/><path fill="#000000" fill-opacity="0.0" d="m2868.231 2597.7507l0 -144.12598l-238.55127 0l0 -144.12598" fill-rule="evenodd"/><path stroke="#ffffff" stroke-width="24.0" stroke-linejoin="round" stroke-linecap="butt" d="m2868.231 2597.7507l0 -144.12598l-238.55127 0l0 -144.12598" fill-rule="evenodd"/><path fill="#000000" fill-opacity="0.0" d="m2626.4043 2344.588l3.7746582 0l0 -241.82666l944.63477 0" fill-rule="evenodd"/><path stroke="#ffffff" stroke-width="24.0" stroke-linejoin="round" stroke-linecap="butt" d="m2626.4043 2344.588l3.7746582 0l0 -241.82666l944.63477 0" fill-rule="evenodd"/><path fill="#000000" fill-opacity="0.0" d="m2633.9607 2106.538l-3.7802734 0l0 -355.18115l710.3628 0" fill-rule="evenodd"/><path stroke="#ffffff" stroke-width="24.0" stroke-linejoin="round" stroke-linecap="butt" d="m2633.9607 2106.538l-3.7802734 0l0 -355.18115l710.3628 0" fill-rule="evenodd"/><path fill="#000000" fill-opacity="0.0" d="m2652.853 2106.538l-253.16211 0l0 264.5039l-540.34973 0" fill-rule="evenodd"/><path stroke="#ffffff" stroke-width="24.0" stroke-linejoin="round" stroke-linecap="butt" d="m2652.853 2106.538l-253.16211 0l0 264.5039l-540.34973 0" fill-rule="evenodd"/><path fill="#000000" fill-opacity="0.0" d="m1330.3622 1796.6981l-574.3307 -3.779541" fill-rule="evenodd"/><path stroke="#ffffff" stroke-width="24.0" stroke-linejoin="round" stroke-linecap="butt" d="m1330.3622 1796.6981l-574.3307 -3.779541" fill-rule="evenodd"/><path fill="#000000" fill-opacity="0.0" d="m1288.79 2152.7664l-1073.1024 -6.236084" fill-rule="evenodd"/><path stroke="#ffffff" stroke-width="24.0" stroke-linejoin="round" stroke-linecap="butt" d="m1288.79 2152.7664l-1073.1024 -6.236084" fill-rule="evenodd"/><path fill="#000000" fill-opacity="0.0" d="m397.063 2554.6116l0 -7.5581055l-75.55905 0l0 -389.19775" fill-rule="evenodd"/><path stroke="#ffffff" stroke-width="12.0" stroke-linejoin="round" stroke-linecap="butt" d="m397.063 2554.6116l0 -7.5581055l-75.55905 0l0 -389.19775" fill-rule="evenodd"/><path fill="#000000" fill-opacity="0.0" d="m2606.1418 432.68243l168.18896 0" fill-rule="evenodd"/><path stroke="#ffffff" stroke-width="12.0" stroke-linejoin="round" stroke-linecap="butt" d="m2606.1418 432.68243l168.18896 0" fill-rule="evenodd"/><path fill="#000000" fill-opacity="0.0" d="m2774.3308 432.68243l93.03931 -89.212616l93.03931 89.212616l-93.03931 89.212585z" fill-rule="evenodd"/><path stroke="#ffffff" stroke-width="12.0" stroke-linejoin="round" stroke-linecap="butt" d="m2774.3308 432.68243l93.03931 -89.212616l93.03931 89.212616l-93.03931 89.212585z" fill-rule="evenodd"/><path fill="#ffffff" d="m2893.8816 423.24243q0 3.390625 -1.1875 6.625q-1.171875 3.234375 -3.375 5.4375q-3.015625 2.96875 -6.71875 4.5q-3.703125 1.515625 -9.234375 1.515625l-8.078125 0l0 16.421875l-13.0 0l0 -50.40625l21.390625 0q4.8125 0 8.109375 0.828125q3.296875 0.828125 5.828125 2.484375q3.046875 2.0 4.65625 5.125q1.609375 3.109375 1.609375 7.46875zm-13.4375 0.3125q0 -2.140625 -1.15625 -3.671875q-1.140625 -1.546875 -2.671875 -2.15625q-2.03125 -0.8125 -3.96875 -0.890625q-1.921875 -0.09375 -5.125 -0.09375l-2.234375 0l0 15.109375l3.71875 0q3.3125 0 5.453125 -0.40625q2.15625 -0.40625 3.625 -1.625q1.25 -1.09375 1.796875 -2.59375q0.5625 -1.515625 0.5625 -3.671875z" fill-rule="nonzero"/><path fill="#000000" fill-opacity="0.0" d="m2868.1233 523.1155l495.65356 0.2939453l0.8059082 -181.45142l-497.58008 2.417328" fill-rule="evenodd"/><path stroke="#ffffff" stroke-width="12.0" stroke-linejoin="round" stroke-linecap="butt" d="m2868.1233 523.1155l495.65356 0.2939453l0.8059082 -181.45142l-497.58008 2.417328" fill-rule="evenodd"/><path fill="#000000" fill-opacity="0.0" d="m775.58795 341.95407l-168.18903 0" fill-rule="evenodd"/><path stroke="#ffffff" stroke-width="12.0" stroke-linejoin="round" stroke-linecap="butt" d="m775.58795 341.95407l-168.18903 0" fill-rule="evenodd"/><path fill="#000000" fill-opacity="0.0" d="m607.3989 341.95407l-93.03937 -89.212585l-93.03934 89.212585l93.03934 89.212616z" fill-rule="evenodd"/><path stroke="#ffffff" stroke-width="12.0" stroke-linejoin="round" stroke-linecap="butt" d="m607.3989 341.95407l-93.03937 -89.212585l-93.03934 89.212585l93.03934 89.212616z" fill-rule="evenodd"/><path fill="#ffffff" d="m540.87115 332.51407q0 3.390625 -1.1875 6.625q-1.171875 3.234375 -3.375 5.4375q-3.015625 2.96875 -6.71875 4.5q-3.703125 1.515625 -9.234375 1.515625l-8.078125 0l0 16.421875l-13.0 0l0 -50.40625l21.390625 0q4.8125 0 8.109375 0.828125q3.296875 0.828125 5.828125 2.484375q3.046875 2.0 4.65625 5.125q1.609375 3.109375 1.609375 7.46875zm-13.4375 0.3125q0 -2.140625 -1.15625 -3.671875q-1.140625 -1.546875 -2.671875 -2.15625q-2.03125 -0.8125 -3.96875 -0.890625q-1.921875 -0.09375 -5.125 -0.09375l-2.234375 0l0 15.109375l3.71875 0q3.3125 0 5.453125 -0.40625q2.15625 -0.40625 3.625 -1.625q1.25 -1.09375 1.796875 -2.59375q0.5625 -1.515625 0.5625 -3.671875z" fill-rule="nonzero"/><path fill="#000000" fill-opacity="0.0" d="m513.6063 432.38715l-495.65356 0.2939453l-0.8057728 -181.45143l497.58008 2.417328" fill-rule="evenodd"/><path stroke="#ffffff" stroke-width="12.0" stroke-linejoin="round" stroke-linecap="butt" d="m513.6063 432.38715l-495.65356 0.2939453l-0.8057728 -181.45143l497.58008 2.417328" fill-rule="evenodd"/><path fill="#000000" fill-opacity="0.0" d="m1920.6141 1983.5013l-93.03931 -89.21265l-93.03943 89.21265l93.03943 89.212524z" fill-rule="evenodd"/><path stroke="#ffffff" stroke-width="12.0" stroke-linejoin="round" stroke-linecap="butt" d="m1920.6141 1983.5013l-93.03931 -89.21265l-93.03943 89.21265l93.03943 89.212524z" fill-rule="evenodd"/><path fill="#ffffff" d="m1854.0864 1974.0613q0 3.390625 -1.1875 6.625q-1.171875 3.234375 -3.375 5.4375q-3.015625 2.96875 -6.71875 4.5q-3.703125 1.515625 -9.234375 1.515625l-8.078125 0l0 16.421875l-13.0 0l0 -50.40625l21.390625 0q4.8125 0 8.109375 0.828125q3.296875 0.828125 5.828125 2.484375q3.046875 2.0 4.65625 5.125q1.609375 3.109375 1.609375 7.46875zm-13.4375 0.3125q0 -2.140625 -1.15625 -3.671875q-1.140625 -1.546875 -2.671875 -2.15625q-2.03125 -0.8125 -3.96875 -0.890625q-1.921875 -0.09375 -5.125 -0.09375l-2.234375 0l0 15.109375l3.71875 0q3.3125 0 5.453125 -0.40625q2.15625 -0.40625 3.625 -1.625q1.25 -1.09375 1.796875 -2.59375q0.5625 -1.515625 0.5625 -3.671875z" fill-rule="nonzero"/><path fill="#000000" fill-opacity="0.0" d="m1826.8215 2073.9343l-495.65356 0.2939453l-0.80578613 -181.45142l497.58008 2.4173584" fill-rule="evenodd"/><path stroke="#ffffff" stroke-width="12.0" stroke-linejoin="round" stroke-linecap="butt" d="m1826.8215 2073.9343l-495.65356 0.2939453l-0.80578613 -181.45142l497.58008 2.4173584" fill-rule="evenodd"/><path fill="#000000" fill-opacity="0.0" d="m1920.6141 1983.5013l59.653564 0l0 383.43298" fill-rule="evenodd"/><path stroke="#ffffff" stroke-width="12.0" stroke-linejoin="round" stroke-linecap="butt" d="m1920.6141 1983.5013l59.653564 0l0 383.43298" fill-rule="evenodd"/></g></svg>