<svg version="1.1" viewBox="0.0 0.0 4175.734908136483 3007.721784776903" fill="none" stroke="none" stroke-linecap="square" stroke-miterlimit="10" xmlns:xlink="http://www.w3.org/1999/xlink" xmlns="http://www.w3.org/2000/svg"><clipPath id="p.0"><path d="m0 0l4175.735 0l0 3007.7217l-4175.735 0l0 -3007.7217z" clip-rule="nonzero"/></clipPath><g clip-path="url(#p.0)"><path fill="#000000" fill-opacity="0.0" d="m0 0l4175.735 0l0 3007.7217l-4175.735 0z" fill-rule="evenodd"/><path fill="#000000" fill-opacity="0.0" d="m381.5223 2547.0034l177.63779 -0.44091797" fill-rule="evenodd"/><path stroke="#ffffff" stroke-width="12.0" stroke-linejoin="round" stroke-linecap="butt" d="m381.5223 2547.0034l177.63779 -0.44091797" fill-rule="evenodd"/><path fill="#000000" fill-opacity="0.0" d="m559.1601 2546.5625l93.03937 -89.21265l93.03937 89.21265l-93.03937 89.21265z" fill-rule="evenodd"/><path stroke="#ffffff" stroke-width="12.0" stroke-linejoin="round" stroke-linecap="butt" d="m559.1601 2546.5625l93.03937 -89.21265l93.03937 89.21265l-93.03937 89.21265z" fill-rule="evenodd"/><path fill="#ffffff" d="m678.71106 2537.1226q0 3.390625 -1.1875 6.625q-1.171875 3.234375 -3.375 5.4375q-3.015625 2.96875 -6.71875 4.5q-3.703125 1.515625 -9.234375 1.515625l-8.078125 0l0 16.421875l-13.0 0l0 -50.40625l21.390625 0q4.8125 0 8.109375 0.828125q3.296875 0.828125 5.828125 2.484375q3.046875 2.0 4.65625 5.125q1.609375 3.109375 1.609375 7.46875zm-13.4375 0.3125q0 -2.140625 -1.15625 -3.671875q-1.140625 -1.546875 -2.671875 -2.15625q-2.03125 -0.8125 -3.96875 -0.890625q-1.921875 -0.09375 -5.125 -0.09375l-2.234375 0l0 15.109375l3.71875 0q3.3125 0 5.453125 -0.40625q2.15625 -0.40625 3.625 -1.625q1.25 -1.09375 1.796875 -2.59375q0.5625 -1.515625 0.5625 -3.671875z" fill-rule="nonzero"/><path fill="#000000" fill-opacity="0.0" d="m652.95276 2636.9956l495.65356 0.2939453l0.80578613 -181.45142l-497.58008 2.4172363" fill-rule="evenodd"/><path stroke="#ffffff" stroke-width="12.0" stroke-linejoin="round" stroke-linecap="butt" d="m652.95276 2636.9956l495.65356 0.2939453l0.80578613 -181.45142l-497.58008 2.4172363" fill-rule="evenodd"/><path fill="#000000" fill-opacity="0.0" d="m1991.6089 886.06824l11.338623 22.677185" fill-rule="evenodd"/><path stroke="#000000" stroke-width="1.0" stroke-linejoin="round" stroke-linecap="butt" d="m1991.6089 886.06824l11.338623 22.677185" fill-rule="evenodd"/><path fill="#000000" fill-opacity="0.0" d="m390.09448 1099.2572l1136.7491 0l0 319.59058l-3.772705 0" fill-rule="evenodd"/><path stroke="#a4c2f4" stroke-width="24.0" stroke-linejoin="round" stroke-linecap="butt" d="m481.0545 1099.2572l1045.7891 0l0 184.5647" fill-rule="evenodd"/><path stroke="#a4c2f4" stroke-width="24.0" stroke-linecap="butt" d="m481.05447 1138.7372l-78.95999 0l0 -78.95996l78.95999 0l0 78.95996z" fill-rule="nonzero"/><path stroke="#a4c2f4" stroke-width="24.0" stroke-linecap="butt" d="m1526.8436 1283.8218l-41.545532 55.940186l38.357056 58.172607l41.545532 -55.940063z" fill-rule="evenodd"/><path fill="#000000" fill-opacity="0.0" d="m657.7664 791.59845l831.91534 0l0 -166.26776l3.1397705 0" fill-rule="evenodd"/><path stroke="#a4c2f4" stroke-width="24.0" stroke-linejoin="round" stroke-linecap="butt" d="m657.7664 791.59845l831.91534 0l0 -166.26776l3.1397705 0" fill-rule="evenodd"/><path fill="#000000" fill-opacity="0.0" d="m229.51443 600.69556l217.44882 0l0 190.92914l217.44879 0" fill-rule="evenodd"/><path stroke="#a4c2f4" stroke-width="24.0" stroke-linejoin="round" stroke-linecap="butt" d="m320.47443 600.69556l126.48883 0l0 190.92914l217.44879 0" fill-rule="evenodd"/><path fill="#a4c2f4" stroke="#a4c2f4" stroke-width="24.0" stroke-linecap="butt" d="m241.51443 600.69556c0 -21.8042 17.675812 -39.48004 39.48001 -39.48004c21.8042 0 39.47998 17.675842 39.47998 39.48004c0 21.8042 -17.675781 39.47998 -39.47998 39.47998c-21.8042 0 -39.48001 -17.675781 -39.48001 -39.47998z" fill-rule="nonzero"/><path fill="#000000" fill-opacity="0.0" d="m1235.9003 791.6063l0 313.60632" fill-rule="evenodd"/><path stroke="#a4c2f4" stroke-width="24.0" stroke-linejoin="round" stroke-linecap="butt" d="m1235.9003 791.6063l0 313.60632" fill-rule="evenodd"/><path fill="#000000" fill-opacity="0.0" d="m2622.1443 1187.9265l907.3386 0" fill-rule="evenodd"/><path stroke="#ff0000" stroke-width="24.0" stroke-linejoin="round" stroke-linecap="butt" d="m2622.1443 1187.9265l772.26 0" fill-rule="evenodd"/><path stroke="#ff0000" stroke-width="24.0" stroke-linecap="butt" d="m3394.4043 1187.9265l57.078613 39.96692l57.078613 -39.96692l-57.078613 -39.96692z" fill-rule="evenodd"/><path fill="#000000" fill-opacity="0.0" d="m2633.9607 2106.538l-3.7802734 0l0 -355.18115l710.3628 0" fill-rule="evenodd"/><path stroke="#93c47d" stroke-width="24.0" stroke-linejoin="round" stroke-linecap="butt" d="m2633.9607 2106.538l-3.7802734 0l0 -355.18115l619.40283 0" fill-rule="evenodd"/><path fill="#93c47d" stroke="#93c47d" stroke-width="24.0" stroke-linecap="butt" d="m3328.5432 1751.3569c0 21.8042 -17.675781 39.47998 -39.47998 39.47998c-21.8042 0 -39.47998 -17.675781 -39.47998 -39.47998c0 -21.8042 17.675781 -39.47998 39.47998 -39.47998c21.8042 0 39.47998 17.675781 39.47998 39.47998z" fill-rule="nonzero"/><path fill="#000000" fill-opacity="0.0" d="m2652.853 2106.538l-253.16211 0l0 264.5039l-540.34973 0" fill-rule="evenodd"/><path stroke="#93c47d" stroke-width="24.0" stroke-linejoin="round" stroke-linecap="butt" d="m2652.853 2106.538l-253.16211 0l0 264.5039l-540.34973 0" fill-rule="evenodd"/><path fill="#000000" fill-opacity="0.0" d="m904.81104 1790.2074l-677.6063 -3.7480469" fill-rule="evenodd"/><path stroke="#93c47d" stroke-width="24.0" stroke-linejoin="round" stroke-linecap="butt" d="m904.81104 1790.2074l-586.6477 -3.244995" fill-rule="evenodd"/><path stroke="#93c47d" stroke-width="24.0" stroke-linecap="butt" d="m317.94495 1826.4418l-78.95877 -0.4366455l0.43673706 -78.95886l78.9588 0.43676758l-0.43676758 78.95874z" fill-rule="nonzero"/><path fill="#000000" fill-opacity="0.0" d="m1125.9528 2151.9055l-910.2677 -5.385742" fill-rule="evenodd"/><path stroke="#9900ff" stroke-width="24.0" stroke-linejoin="round" stroke-linecap="butt" d="m1125.9528 2151.9055l-819.3093 -4.8476562" fill-rule="evenodd"/><path stroke="#9900ff" stroke-width="24.0" stroke-linecap="butt" d="m306.40985 2186.537l-78.95862 -0.46704102l0.46717834 -78.95874l78.95863 0.46728516l-0.4671936 78.958496z" fill-rule="nonzero"/><path fill="#000000" fill-opacity="0.0" d="m397.063 2554.6116l0 -7.5581055l-75.55905 0l0 -389.19775" fill-rule="evenodd"/><path stroke="#ffffff" stroke-width="12.0" stroke-linejoin="round" stroke-linecap="butt" d="m397.063 2554.6116l0 -7.5581055l-75.55905 0l0 -389.19775" fill-rule="evenodd"/><path fill="#000000" fill-opacity="0.0" d="m775.58795 341.95407l-168.18903 0" fill-rule="evenodd"/><path stroke="#ffffff" stroke-width="12.0" stroke-linejoin="round" stroke-linecap="butt" d="m775.58795 341.95407l-168.18903 0" fill-rule="evenodd"/><path fill="#000000" fill-opacity="0.0" d="m607.3989 341.95407l-93.03937 -89.212585l-93.03934 89.212585l93.03934 89.212616z" fill-rule="evenodd"/><path stroke="#ffffff" stroke-width="12.0" stroke-linejoin="round" stroke-linecap="butt" d="m607.3989 341.95407l-93.03937 -89.212585l-93.03934 89.212585l93.03934 89.212616z" fill-rule="evenodd"/><path fill="#ffffff" d="m540.87115 332.51407q0 3.390625 -1.1875 6.625q-1.171875 3.234375 -3.375 5.4375q-3.015625 2.96875 -6.71875 4.5q-3.703125 1.515625 -9.234375 1.515625l-8.078125 0l0 16.421875l-13.0 0l0 -50.40625l21.390625 0q4.8125 0 8.109375 0.828125q3.296875 0.828125 5.828125 2.484375q3.046875 2.0 4.65625 5.125q1.609375 3.109375 1.609375 7.46875zm-13.4375 0.3125q0 -2.140625 -1.15625 -3.671875q-1.140625 -1.546875 -2.671875 -2.15625q-2.03125 -0.8125 -3.96875 -0.890625q-1.921875 -0.09375 -5.125 -0.09375l-2.234375 0l0 15.109375l3.71875 0q3.3125 0 5.453125 -0.40625q2.15625 -0.40625 3.625 -1.625q1.25 -1.09375 1.796875 -2.59375q0.5625 -1.515625 0.5625 -3.671875z" fill-rule="nonzero"/><path fill="#000000" fill-opacity="0.0" d="m513.6063 432.38715l-495.65356 0.2939453l-0.8057728 -181.45143l497.58008 2.417328" fill-rule="evenodd"/><path stroke="#ffffff" stroke-width="12.0" stroke-linejoin="round" stroke-linecap="butt" d="m513.6063 432.38715l-495.65356 0.2939453l-0.8057728 -181.45143l497.58008 2.417328" fill-rule="evenodd"/><path fill="#000000" fill-opacity="0.0" d="m2002.9475 1616.3635l93.03931 -89.21265l93.03955 89.21265l-93.03955 89.21265z" fill-rule="evenodd"/><path stroke="#ffffff" stroke-width="12.0" stroke-linejoin="round" stroke-linecap="butt" d="m2002.9475 1616.3635l93.03931 -89.21265l93.03955 89.21265l-93.03955 89.21265z" fill-rule="evenodd"/><path fill="#ffffff" d="m2122.4985 1606.9236q0 3.390625 -1.1875 6.625q-1.171875 3.234375 -3.375 5.4375q-3.015625 2.96875 -6.71875 4.5q-3.703125 1.515625 -9.234375 1.515625l-8.078125 0l0 16.421875l-13.0 0l0 -50.40625l21.390625 0q4.8125 0 8.109375 0.828125q3.296875 0.828125 5.828125 2.484375q3.046875 2.0 4.65625 5.125q1.609375 3.109375 1.609375 7.46875zm-13.4375 0.3125q0 -2.140625 -1.15625 -3.671875q-1.140625 -1.546875 -2.671875 -2.15625q-2.03125 -0.8125 -3.96875 -0.890625q-1.921875 -0.09375 -5.125 -0.09375l-2.234375 0l0 15.109375l3.71875 0q3.3125 0 5.453125 -0.40625q2.15625 -0.40625 3.625 -1.625q1.25 -1.09375 1.796875 -2.59375q0.5625 -1.515625 0.5625 -3.671875z" fill-rule="nonzero"/><path fill="#000000" fill-opacity="0.0" d="m2096.7402 1706.7966l495.65356 0.2939453l0.80566406 -181.45142l-497.58008 2.4172363" fill-rule="evenodd"/><path stroke="#ffffff" stroke-width="12.0" stroke-linejoin="round" stroke-linecap="butt" d="m2096.7402 1706.7966l495.65356 0.2939453l0.80566406 -181.45142l-497.58008 2.4172363" fill-rule="evenodd"/><path fill="#000000" fill-opacity="0.0" d="m2002.9475 1616.3635l-68.409424 0l0 749.82666" fill-rule="evenodd"/><path stroke="#ffffff" stroke-width="12.0" stroke-linejoin="round" stroke-linecap="butt" d="m2002.9475 1616.3635l-68.409424 0l0 749.82666" fill-rule="evenodd"/><path fill="#000000" fill-opacity="0.0" d="m904.81104 1726.5066l437.1338 0l0 127.40149l-437.1338 0z" fill-rule="evenodd"/><path stroke="#ffffff" stroke-width="8.0" stroke-linejoin="round" stroke-linecap="butt" d="m904.81104 1726.5066l437.1338 0l0 127.40149l-437.1338 0z" fill-rule="evenodd"/><path fill="#000000" fill-opacity="0.0" d="m928.0551 1726.4987l379.24408 0l0 127.40161l-379.24408 0z" fill-rule="evenodd"/><path fill="#ffffff" d="m1062.7006 1785.04l0 -5.421875q0 -3.28125 -0.296875 -6.453125l6.765625 0q-0.65625 2.609375 -0.65625 6.65625l0 5.21875l6.671875 0q4.328125 0 7.296875 -0.3125l0 6.4375q-2.96875 -0.3125 -7.296875 -0.3125l-6.671875 0l0 15.4375l8.34375 0q5.171875 0 8.75 -0.28125l0 6.15625q-3.578125 -0.265625 -8.546875 -0.265625l-21.234375 0q-5.390625 0 -8.546875 0.28125l0 -6.171875q3.984375 0.28125 8.546875 0.28125l6.875 0l0 -15.4375l-3.96875 0q-5.359375 0 -8.109375 0.328125l0 -6.421875q4.1875 0.28125 8.109375 0.28125l3.96875 0zm14.15625 -18.546875q4.546875 0 7.90625 -0.265625l0 5.984375q-2.953125 -0.3125 -7.90625 -0.3125l-27.921875 0l0 17.71875q0 7.1875 -1.59375 13.125q-1.578125 5.921875 -5.046875 12.640625q-2.359375 -2.359375 -5.859375 -3.71875q4.03125 -5.9375 5.25 -10.515625q1.21875 -4.578125 1.4375 -10.296875l0 -15.59375q-0.21875 -4.34375 -0.46875 -8.765625l34.203125 0zm-2.171875 25.453125q3.90625 5.109375 6.46875 9.234375q-3.046875 1.640625 -5.6875 3.40625q-2.453125 -5.171875 -5.4375 -9.421875q2.59375 -1.453125 4.65625 -3.21875zm61.109375 -12.53125q2.265625 0 6.046875 -0.265625l0 5.3125q-3.78125 -0.265625 -8.3125 -0.265625l-1.046875 4.171875l8.15625 0q-0.265625 4.796875 -0.265625 8.125l0 10.625q0 2.890625 0.265625 8.109375l-5.453125 0l0 -3.953125l-7.71875 0l0 3.953125l-5.453125 0q0.25 -5.0 0.25 -8.109375l0 -10.625q0 -3.328125 -0.25 -8.125l5.078125 0q0.625 -1.6875 1.0625 -4.171875q-2.953125 0 -6.71875 0.265625l0 -5.3125q3.765625 0.265625 7.078125 0.265625l7.28125 0zm-28.0625 -12.734375q-2.703125 2.984375 -4.96875 7.53125q-2.265625 4.546875 -3.859375 7.28125q1.25 0 3.625 -0.171875q0.828125 -1.96875 1.921875 -6.109375q2.984375 1.796875 6.453125 3.25q-2.53125 3.078125 -4.609375 6.90625q-2.0625 3.8125 -5.21875 8.96875q2.984375 -0.140625 8.703125 -0.921875q-0.625 2.890625 -0.34375 5.265625q-2.9375 0.296875 -6.859375 0.515625q-3.90625 0.203125 -8.328125 1.75q-0.28125 -2.890625 -2.03125 -5.21875q3.640625 -1.5625 5.125 -4.03125q1.5 -2.484375 3.109375 -5.5625q-3.625 0.140625 -6.796875 1.453125q-1.109375 -3.09375 -2.09375 -5.375q2.046875 -0.59375 3.296875 -2.625q1.25 -2.03125 3.390625 -6.640625q2.15625 -4.609375 2.71875 -9.015625q3.28125 1.796875 6.765625 2.75zm16.25 10.84375q-2.9375 2.609375 -3.640625 3.90625q-0.703125 1.296875 -1.828125 3.203125l0 30.59375l-5.671875 0q0.265625 -4.390625 0.265625 -7.28125l0.125 -16.25q0.140625 0.03125 -1.8125 3.359375q-2.3125 -2.03125 -5.203125 -3.3125q4.578125 -4.328125 7.125 -8.40625q2.546875 -4.078125 4.125 -8.546875q2.640625 1.765625 6.515625 2.734375zm3.984375 -13.625q0.921875 2.125 1.828125 5.9375l13.15625 0q-0.28125 2.953125 -0.28125 4.578125q0 1.609375 0.296875 4.359375l-5.703125 0l0 -3.953125l-21.25 0l0 6.046875l-5.6875 0q0.28125 -3.578125 0.28125 -5.828125q0 -2.25 -0.3125 -5.203125l13.28125 0q-0.234375 -1.421875 -1.625 -4.46875q2.8125 -0.9375 6.015625 -1.46875zm-17.578125 38.640625q0 3.0625 0.28125 5.6875q-4.9375 0.734375 -8.96875 1.5625q-4.015625 0.828125 -8.09375 2.203125q-0.28125 -3.21875 -1.96875 -7.171875q5.375 0 8.65625 -0.40625q3.28125 -0.40625 10.09375 -1.875zm24.796875 -5.21875l0 -4.171875l-7.71875 0l0 4.171875l7.71875 0zm0 9.171875l0 -4.171875l-7.71875 0l0 4.171875l7.71875 0z" fill-rule="nonzero"/><path fill="#ffffff" d="m1163.0599 1808.665q8.15625 -3.75 8.15625 -15.296875l0 -24.78125l17.890625 0l0 36.859375q0 0.84375 0.640625 0.84375l1.25 0q0.3125 0 0.421875 -0.734375l0.515625 -5.4375l6.015625 2.296875l-0.9375 5.859375q-0.515625 3.625 -4.140625 3.625l-5.0 0q-4.578125 0 -4.578125 -4.375l0 -33.328125l-6.265625 0l0 18.953125q0 15.5 -10.015625 20.859375l-3.953125 -5.34375zm0.84375 5.109375l-5.8125 0l0 -18.125q-1.390625 3.171875 -6.609375 8.890625l-3.59375 -6.09375q8.578125 -8.796875 9.65625 -16.75l-8.203125 0l0 -5.609375l8.75 0l0 -11.046875l4.828125 0q4.75 0.46875 0.984375 2.5625l0 8.484375l7.296875 0l0 5.609375l-7.296875 0l0 4.875q3.34375 1.484375 7.703125 4.875l-3.09375 6.515625q-3.296875 -3.59375 -4.609375 -4.6875l0 20.5z" fill-rule="nonzero"/><path fill="#000000" fill-opacity="0.0" d="m1118.6221 2163.6326l-0.9449463 -309.7323" fill-rule="evenodd"/><path stroke="#9900ff" stroke-width="24.0" stroke-linejoin="round" stroke-linecap="butt" d="m1118.6221 2163.6326l-0.9449463 -309.7323" fill-rule="evenodd"/><path fill="#000000" fill-opacity="0.0" d="m1859.3412 2368.748l0 2.2929688l-242.01575 0l0 -388.30872" fill-rule="evenodd"/><path stroke="#93c47d" stroke-width="24.0" stroke-linejoin="round" stroke-linecap="butt" d="m1859.3412 2368.748l0 2.2929688l-242.01575 0l0 -388.30872" fill-rule="evenodd"/><path fill="#000000" fill-opacity="0.0" d="m1617.315 2000.4121l-0.46264648 0l0 -210.20471l-274.90747 0" fill-rule="evenodd"/><path stroke="#93c47d" stroke-width="24.0" stroke-linejoin="round" stroke-linecap="butt" d="m1617.315 2000.4121l-0.46264648 0l0 -210.20471l-274.90747 0" fill-rule="evenodd"/><path fill="#000000" fill-opacity="0.0" d="m2213.9553 1124.6509l379.24414 0l0 127.40161l-379.24414 0z" fill-rule="evenodd"/><path fill="#ffffff" d="m2417.1165 1165.0674q4.953125 0 9.578125 -0.515625l0 6.015625q-4.625 -0.515625 -7.5 -0.515625l-16.59375 0q-1.453125 2.5625 -2.640625 3.96875l22.0 0q-0.265625 3.984375 -0.265625 7.078125q0 3.109375 0.25 7.703125l-13.46875 0q0.671875 2.0 1.265625 3.390625q0.59375 1.390625 1.9375 3.03125q4.078125 -2.484375 8.6875 -7.34375q1.984375 3.125 4.765625 5.90625q-3.3125 1.0 -5.671875 2.328125q-2.34375 1.328125 -4.84375 2.890625q1.359375 1.640625 4.875 3.5625q3.515625 1.90625 10.265625 3.03125q-3.96875 3.046875 -4.515625 6.015625q-6.25 -2.5 -11.703125 -6.984375q-5.4375 -4.484375 -6.21875 -6.453125l0 8.140625q-0.234375 4.734375 -2.40625 5.578125q-2.171875 0.84375 -6.609375 1.375q-0.5 -3.09375 -3.109375 -6.671875q4.796875 0.34375 5.65625 0.203125q0.859375 -0.15625 0.859375 -1.53125l0 -16.46875l-11.109375 0q0.28125 -3.984375 0.28125 -6.484375q-1.8125 1.328125 -7.796875 5.40625q-1.359375 -2.484375 -5.0 -4.625q7.34375 -3.53125 11.609375 -6.796875q4.28125 -3.265625 6.0 -6.25l-6.90625 0q-2.65625 0 -7.28125 0.515625l0 -6.0q5.859375 0.5 10.609375 0.5l25.0 0zm-16.203125 25.828125q-1.34375 5.09375 -2.96875 8.125q-1.625 3.015625 -4.84375 5.90625q-3.203125 2.890625 -10.09375 6.6875q-1.328125 -2.671875 -5.046875 -5.46875q7.125 -1.84375 10.515625 -4.546875q3.390625 -2.703125 4.625 -5.296875l-4.734375 0q-2.46875 0 -6.65625 0.25l0 -5.90625q4.40625 0.25 6.875 0.25l12.328125 0zm15.375 -7.296875l0 -4.375l-20.0 0l0 4.375l20.0 0z" fill-rule="nonzero"/><path fill="#000000" fill-opacity="0.0" d="m2185.0105 1188.3517l-209.03943 -0.8503418" fill-rule="evenodd"/><path stroke="#ff0000" stroke-width="24.0" stroke-linejoin="round" stroke-linecap="butt" d="m2185.0105 1188.3517l-118.08008 -0.48034668" fill-rule="evenodd"/><path stroke="#ff0000" stroke-width="24.0" stroke-linecap="butt" d="m2066.7698 1227.3511l-78.95935 -0.32128906l0.321167 -78.95935l78.95947 0.32128906l-0.32128906 78.95935z" fill-rule="nonzero"/><path fill="#000000" fill-opacity="0.0" d="m2163.958 429.4882l-0.9448242 -309.7323" fill-rule="evenodd"/><path stroke="#f1c232" stroke-width="24.0" stroke-linejoin="round" stroke-linecap="butt" d="m2163.958 429.4882l-0.9448242 -309.7323" fill-rule="evenodd"/><path fill="#000000" fill-opacity="0.0" d="m971.3884 341.95538l125.30713 0l0 -210.4567l125.30713 0" fill-rule="evenodd"/><path stroke="#a4c2f4" stroke-width="24.0" stroke-linejoin="round" stroke-linecap="butt" d="m971.3884 341.95538l125.30713 0l0 -210.4567l125.30713 0" fill-rule="evenodd"/><path fill="#000000" fill-opacity="0.0" d="m2450.8425 521.51447l-5.385742 -389.7953" fill-rule="evenodd"/><path stroke="#cc0000" stroke-width="24.0" stroke-linejoin="round" stroke-linecap="butt" d="m2448.9763 386.4487l-3.5195312 -254.72954" fill-rule="evenodd"/><path stroke="#cc0000" stroke-width="24.0" stroke-linecap="butt" d="m2448.9763 386.4487l-39.17456 57.625366l40.75171 56.520996l39.17456 -57.625336z" fill-rule="evenodd"/><path fill="#000000" fill-opacity="0.0" d="m2733.5276 524.2231l-2.2363281 -395.2126" fill-rule="evenodd"/><path stroke="#4a86e8" stroke-width="24.0" stroke-linejoin="round" stroke-linecap="butt" d="m2732.7632 389.1466l-1.4719238 -260.1361" fill-rule="evenodd"/><path stroke="#4a86e8" stroke-width="24.0" stroke-linecap="butt" d="m2732.7632 389.14664l-39.64331 57.303864l40.289307 56.851562l39.64331 -57.303864z" fill-rule="evenodd"/><path fill="#000000" fill-opacity="0.0" d="m3011.3806 514.4908l0.44091797 -385.4803" fill-rule="evenodd"/><path stroke="#f1c232" stroke-width="24.0" stroke-linejoin="round" stroke-linecap="butt" d="m3011.5352 379.4123l0.28637695 -250.4018" fill-rule="evenodd"/><path stroke="#f1c232" stroke-width="24.0" stroke-linecap="butt" d="m3011.5352 379.41226l-40.032227 57.032898l39.90161 57.1243l40.032227 -57.032867z" fill-rule="evenodd"/><path fill="#000000" fill-opacity="0.0" d="m1197.727 131.36482l977.6377 0.31497192" fill-rule="evenodd"/><path stroke="#a4c2f4" stroke-width="24.0" stroke-linejoin="round" stroke-linecap="butt" d="m1197.727 131.36482l977.6377 0.31497192" fill-rule="evenodd"/><path fill="#6aa84f" d="m2420.8425 443.6824l26.86621 -38.834625l26.865967 38.834625l-26.865967 38.834656z" fill-rule="evenodd"/><path stroke="#000000" stroke-width="1.0" stroke-linejoin="round" stroke-linecap="butt" d="m2420.8425 443.6824l26.86621 -38.834625l26.865967 38.834625l-26.865967 38.834656z" fill-rule="evenodd"/><path fill="#4a86e8" d="m2984.9238 440.96326l26.86621 -38.834656l26.86621 38.834656l-26.86621 38.834656z" fill-rule="evenodd"/><path stroke="#000000" stroke-width="1.0" stroke-linejoin="round" stroke-linecap="butt" d="m2984.9238 440.96326l26.86621 -38.834656l26.86621 38.834656l-26.86621 38.834656z" fill-rule="evenodd"/><path fill="#000000" fill-opacity="0.0" d="m2448.9106 383.17322l-3.4328613 -251.52754" fill-rule="evenodd"/><path stroke="#f1c232" stroke-width="24.0" stroke-linejoin="round" stroke-linecap="butt" d="m2448.9106 383.17322l-3.4328613 -251.52754" fill-rule="evenodd"/><path fill="#000000" fill-opacity="0.0" d="m2732.9924 384.8526l-1.7009277 -255.43307" fill-rule="evenodd"/><path stroke="#f1c232" stroke-width="24.0" stroke-linejoin="round" stroke-linecap="butt" d="m2732.9924 384.8526l-1.7009277 -255.43307" fill-rule="evenodd"/><path fill="#000000" fill-opacity="0.0" d="m2630.1812 2106.538l856.6299 2.4250488" fill-rule="evenodd"/><path stroke="#93c47d" stroke-width="24.0" stroke-linejoin="round" stroke-linecap="butt" d="m2630.1812 2106.538l721.55176 2.0427246" fill-rule="evenodd"/><path stroke="#93c47d" stroke-width="24.0" stroke-linecap="butt" d="m3351.733 2108.5808l56.965332 40.128418l57.191406 -39.805176l-56.965088 -40.128418z" fill-rule="evenodd"/><path fill="#000000" fill-opacity="0.0" d="m2185.0105 1124.2257l437.1338 0l0 127.40161l-437.1338 0z" fill-rule="evenodd"/><path stroke="#ffffff" stroke-width="8.0" stroke-linejoin="round" stroke-linecap="butt" d="m2185.0105 1124.2257l437.1338 0l0 127.40161l-437.1338 0z" fill-rule="evenodd"/><path fill="#000000" fill-opacity="0.0" d="m714.4593 341.958l774.6027 0l0 283.37006l3.7595215 0" fill-rule="evenodd"/><path stroke="#a4c2f4" stroke-width="24.0" stroke-linejoin="round" stroke-linecap="butt" d="m714.4593 341.958l774.6027 0l0 283.37006l3.7595215 0" fill-rule="evenodd"/></g></svg>