<svg version="1.1" viewBox="0.0 0.0 4175.734908136483 3007.721784776903" fill="none" stroke="none" stroke-linecap="square" stroke-miterlimit="10" xmlns:xlink="http://www.w3.org/1999/xlink" xmlns="http://www.w3.org/2000/svg"><clipPath id="p.0"><path d="m0 0l4175.735 0l0 3007.7217l-4175.735 0l0 -3007.7217z" clip-rule="nonzero"/></clipPath><g clip-path="url(#p.0)"><path fill="#000000" fill-opacity="0.0" d="m0 0l4175.735 0l0 3007.7217l-4175.735 0z" fill-rule="evenodd"/><path fill="#000000" fill-opacity="0.0" d="m1894.776 2630.7214l273.05676 0l-54.61133 67.95166l-163.8341 0z" fill-rule="evenodd"/><path stroke="#ffffff" stroke-width="12.0" stroke-linejoin="round" stroke-linecap="butt" d="m1894.776 2630.7214l273.05676 0l-54.61133 67.95166l-163.8341 0z" fill-rule="evenodd"/><path fill="#000000" fill-opacity="0.0" d="m1858.9423 1099.2533l-182.2677 0.25195312" fill-rule="evenodd"/><path stroke="#ffffff" stroke-width="12.0" stroke-linejoin="round" stroke-linecap="butt" d="m1858.9423 1099.2533l-182.2677 0.25195312" fill-rule="evenodd"/><path fill="#000000" fill-opacity="0.0" d="m1676.6746 1099.5052l-93.03943 -89.212585l-93.03931 89.212585l93.03931 89.21265z" fill-rule="evenodd"/><path stroke="#ffffff" stroke-width="12.0" stroke-linejoin="round" stroke-linecap="butt" d="m1676.6746 1099.5052l-93.03943 -89.212585l-93.03931 89.212585l93.03931 89.21265z" fill-rule="evenodd"/><path fill="#ffffff" d="m1610.1467 1090.0653q0 3.390625 -1.1875 6.625q-1.171875 3.234375 -3.375 5.4375q-3.015625 2.96875 -6.71875 4.5q-3.703125 1.515625 -9.234375 1.515625l-8.078125 0l0 16.421875l-13.0 0l0 -50.40625l21.390625 0q4.8125 0 8.109375 0.828125q3.296875 0.828125 5.828125 2.484375q3.046875 2.0 4.65625 5.125q1.609375 3.109375 1.609375 7.46875zm-13.4375 0.3125q0 -2.140625 -1.15625 -3.671875q-1.140625 -1.546875 -2.671875 -2.15625q-2.03125 -0.8125 -3.96875 -0.890625q-1.921875 -0.09375 -5.125 -0.09375l-2.234375 0l0 15.109375l3.71875 0q3.3125 0 5.453125 -0.40625q2.15625 -0.40625 3.625 -1.625q1.25 -1.09375 1.796875 -2.59375q0.5625 -1.515625 0.5625 -3.671875z" fill-rule="nonzero"/><path fill="#000000" fill-opacity="0.0" d="m1584.3596 1189.9384l-495.65356 0.2939453l-0.80578613 -181.45148l497.58008 2.4173584" fill-rule="evenodd"/><path stroke="#ffffff" stroke-width="12.0" stroke-linejoin="round" stroke-linecap="butt" d="m1584.3596 1189.9384l-495.65356 0.2939453l-0.80578613 -181.45148l497.58008 2.4173584" fill-rule="evenodd"/><path fill="#000000" fill-opacity="0.0" d="m2198.8162 1756.1614l166.04736 -0.88183594" fill-rule="evenodd"/><path stroke="#ffffff" stroke-width="8.0" stroke-linejoin="round" stroke-linecap="butt" d="m2198.8162 1756.1614l166.04736 -0.88183594" fill-rule="evenodd"/><path fill="#000000" fill-opacity="0.0" d="m2366.79 1756.4528l93.03931 -89.21265l93.03931 89.21265l-93.03931 89.21265z" fill-rule="evenodd"/><path stroke="#ffffff" stroke-width="12.0" stroke-linejoin="round" stroke-linecap="butt" d="m2366.79 1756.4528l93.03931 -89.21265l93.03931 89.21265l-93.03931 89.21265z" fill-rule="evenodd"/><path fill="#ffffff" d="m2486.341 1747.0128q0 3.390625 -1.1875 6.625q-1.171875 3.234375 -3.375 5.4375q-3.015625 2.96875 -6.71875 4.5q-3.703125 1.515625 -9.234375 1.515625l-8.078125 0l0 16.421875l-13.0 0l0 -50.40625l21.390625 0q4.8125 0 8.109375 0.828125q3.296875 0.828125 5.828125 2.484375q3.046875 2.0 4.65625 5.125q1.609375 3.109375 1.609375 7.46875zm-13.4375 0.3125q0 -2.140625 -1.15625 -3.671875q-1.140625 -1.546875 -2.671875 -2.15625q-2.03125 -0.8125 -3.96875 -0.890625q-1.921875 -0.09375 -5.125 -0.09375l-2.234375 0l0 15.109375l3.71875 0q3.3125 0 5.453125 -0.40625q2.15625 -0.40625 3.625 -1.625q1.25 -1.09375 1.796875 -2.59375q0.5625 -1.515625 0.5625 -3.671875z" fill-rule="nonzero"/><path fill="#000000" fill-opacity="0.0" d="m2456.1494 1846.8859l507.84644 0.2939453l0.8256836 -181.45142l-509.82056 2.4172363" fill-rule="evenodd"/><path stroke="#ffffff" stroke-width="12.0" stroke-linejoin="round" stroke-linecap="butt" d="m2456.1494 1846.8859l507.84644 0.2939453l0.8256836 -181.45142l-509.82056 2.4172363" fill-rule="evenodd"/><path fill="#000000" fill-opacity="0.0" d="m2366.7898 1993.6404l-83.40161 0l0 -0.12597656l-83.40161 0" fill-rule="evenodd"/><path stroke="#ffffff" stroke-width="8.0" stroke-linejoin="round" stroke-linecap="butt" d="m2366.7898 1993.6404l-83.40161 0l0 -0.12597656l-83.40161 0" fill-rule="evenodd"/><path fill="#000000" fill-opacity="0.0" d="m2509.9392 1993.6404l0 0c0 -39.529663 -32.04492 -71.57471 -71.57471 -71.57471l0 0c-18.98291 0 -37.188232 7.5408936 -50.611084 20.963745c-13.422852 13.422852 -20.963623 31.628174 -20.963623 50.610962l0 0c0 39.529663 32.045166 71.57495 71.57471 71.57495l0 0c39.529785 0 71.57471 -32.045288 71.57471 -71.57495z" fill-rule="evenodd"/><path stroke="#ffffff" stroke-width="12.0" stroke-linejoin="round" stroke-linecap="butt" d="m2509.9392 1993.6404l0 0c0 -39.529663 -32.04492 -71.57471 -71.57471 -71.57471l0 0c-18.98291 0 -37.188232 7.5408936 -50.611084 20.963745c-13.422852 13.422852 -20.963623 31.628174 -20.963623 50.610962l0 0c0 39.529663 32.045166 71.57495 71.57471 71.57495l0 0c39.529785 0 71.57471 -32.045288 71.57471 -71.57495z" fill-rule="evenodd"/><path fill="#ffffff" d="m2460.611 1978.0442l-15.75 0l0 40.65625l-13.0 0l0 -40.65625l-15.734375 0l0 -9.75l44.484375 0l0 9.75z" fill-rule="nonzero"/><path fill="#000000" fill-opacity="0.0" d="m2436.8652 2065.462l528.5305 -1.4436035l0.85791016 -144.0918l-529.7239 1.9185791" fill-rule="evenodd"/><path stroke="#ffffff" stroke-width="12.0" stroke-linejoin="round" stroke-linecap="butt" d="m2436.8652 2065.462l528.5305 -1.4436035l0.85791016 -144.0918l-529.7239 1.9185791" fill-rule="evenodd"/><path fill="#000000" fill-opacity="0.0" d="m624.8819 1531.9396l0 0.03149414l0.06298828 0l0 0.03161621" fill-rule="evenodd"/><path stroke="#000000" stroke-width="1.0" stroke-linejoin="round" stroke-linecap="butt" d="m624.8819 1531.9396l0 0.03149414l0.06298828 0l0 0.03161621" fill-rule="evenodd"/><path fill="#000000" fill-opacity="0.0" d="m2028.8784 144.5121l0 -107.622055l513.92114 0" fill-rule="evenodd"/><path stroke="#93c47d" stroke-width="24.0" stroke-linejoin="round" stroke-linecap="butt" d="m2028.8784 144.5121l0 -107.622055l422.96143 0" fill-rule="evenodd"/><path fill="#93c47d" stroke="#93c47d" stroke-width="24.0" stroke-linecap="butt" d="m2530.7998 36.89005c0 21.8042 -17.675781 39.48 -39.47998 39.48c-21.8042 0 -39.480225 -17.6758 -39.480225 -39.48c0 -21.804201 17.676025 -39.48 39.480225 -39.48c21.8042 0 39.47998 17.675798 39.47998 39.48z" fill-rule="nonzero"/><path fill="#000000" fill-opacity="0.0" d="m2132.2126 1616.5039l-4.852783 0l0 -67.90552l688.3489 0" fill-rule="evenodd"/><path stroke="#a4c2f4" stroke-width="24.0" stroke-linejoin="round" stroke-linecap="butt" d="m2132.2126 1616.5039l-4.852783 0l0 -67.90552l597.3889 0" fill-rule="evenodd"/><path fill="#a4c2f4" stroke="#a4c2f4" stroke-width="24.0" stroke-linecap="butt" d="m2803.7087 1548.5984c0 21.8042 -17.675781 39.47998 -39.47998 39.47998c-21.8042 0 -39.47998 -17.675781 -39.47998 -39.47998c0 -21.8042 17.675781 -39.47998 39.47998 -39.47998c21.8042 0 39.47998 17.675781 39.47998 39.47998z" fill-rule="nonzero"/><path fill="#000000" fill-opacity="0.0" d="m1945.5459 863.65497l-1.5177002 0l0 -67.1181l-688.3406 0" fill-rule="evenodd"/><path stroke="#ff0000" stroke-width="24.0" stroke-linejoin="round" stroke-linecap="butt" d="m1945.5459 863.6549l-1.5177002 0l0 -67.1181l-597.3806 0" fill-rule="evenodd"/><path fill="#ff0000" stroke="#ff0000" stroke-width="24.0" stroke-linecap="butt" d="m1267.6876 796.5368c0 -21.8042 17.675781 -39.47998 39.47998 -39.47998c21.804321 0 39.480103 17.675781 39.480103 39.47998c0 21.8042 -17.675781 39.48004 -39.480103 39.48004c-21.8042 0 -39.47998 -17.675842 -39.47998 -39.48004z" fill-rule="nonzero"/><path fill="#000000" fill-opacity="0.0" d="m2029.8793 1335.3596l0 58.888184l-342.39368 0l0 310.3401" fill-rule="evenodd"/><path stroke="#ff0000" stroke-width="16.0" stroke-linejoin="round" stroke-linecap="butt" d="m2029.8793 1335.3596l0 58.888184l-342.39368 0l0 310.3401" fill-rule="evenodd"/><path fill="#000000" fill-opacity="0.0" d="m2028.8784 533.6774l0 79.811035l359.62207 0" fill-rule="evenodd"/><path stroke="#93c47d" stroke-width="16.0" stroke-linejoin="round" stroke-linecap="butt" d="m2028.8784 533.6774l0 79.811035l359.62207 0" fill-rule="evenodd"/><path fill="#000000" fill-opacity="0.0" d="m1929.8766 1617.6239l-0.087524414 0l0 -119.14966l461.31592 0" fill-rule="evenodd"/><path stroke="#93c47d" stroke-width="16.0" stroke-linejoin="round" stroke-linecap="butt" d="m1929.8766 1617.6239l-0.087524414 0l0 -119.14966l461.31592 0" fill-rule="evenodd"/><path fill="#000000" fill-opacity="0.0" d="m2392.647 1506.773l-2.6455078 -902.0473" fill-rule="evenodd"/><path stroke="#93c47d" stroke-width="16.0" stroke-linejoin="round" stroke-linecap="butt" d="m2392.647 1506.773l-2.6455078 -902.0473" fill-rule="evenodd"/><path fill="#000000" fill-opacity="0.0" d="m2130.6956 861.2843l1.6691895 -254.99213" fill-rule="evenodd"/><path stroke="#93c47d" stroke-width="16.0" stroke-linejoin="round" stroke-linecap="butt" d="m2130.6956 861.2843l1.6691895 -254.99213" fill-rule="evenodd"/><path fill="#000000" fill-opacity="0.0" d="m1858.9423 1623.1707l339.8739 0l0 466.29907l-339.8739 0z" fill-rule="evenodd"/><path stroke="#a4c2f4" stroke-width="16.0" stroke-linejoin="round" stroke-linecap="butt" d="m1858.9423 1623.1707l339.8739 0l0 466.29907l-339.8739 0z" fill-rule="evenodd"/><path fill="#ffffff" d="m1993.6326 1881.3802l-36.34375 0l0 -50.40625l13.0 0l0 40.65625l23.34375 0l0 9.75zm56.848145 -25.1875q0 12.046875 -6.90625 19.140625q-6.90625 7.09375 -19.09375 7.09375q-12.15625 0 -19.0625 -7.09375q-6.90625 -7.09375 -6.90625 -19.140625q0 -12.15625 6.90625 -19.203125q6.90625 -7.0625 19.0625 -7.0625q12.109375 0 19.046875 7.0625q6.953125 7.046875 6.953125 19.203125zm-17.234375 12.765625q1.890625 -2.296875 2.796875 -5.421875q0.921875 -3.140625 0.921875 -7.375q0 -4.53125 -1.046875 -7.71875q-1.046875 -3.1875 -2.734375 -5.140625q-1.734375 -2.03125 -3.984375 -2.9375q-2.25 -0.921875 -4.6875 -0.921875q-2.46875 0 -4.65625 0.875q-2.1875 0.875 -4.015625 2.90625q-1.6875 1.90625 -2.75 5.234375q-1.0625 3.328125 -1.0625 7.734375q0 4.5 1.03125 7.671875q1.03125 3.15625 2.71875 5.15625q1.6875 2.0 3.953125 2.953125q2.28125 0.9375 4.78125 0.9375q2.5 0 4.765625 -0.953125q2.28125 -0.96875 3.96875 -3.0zm72.84204 12.421875l-15.03125 0l-10.859375 -16.59375l-11.0625 16.59375l-14.359375 0l17.875 -25.390625l-17.5 -25.015625l15.0 0l10.484375 15.703125l10.796875 -15.703125l14.390625 0l-17.59375 24.515625l17.859375 25.890625z" fill-rule="nonzero"/><path fill="#000000" fill-opacity="0.0" d="m2028.769 2153.817l-1235.1182 1.7321777" fill-rule="evenodd"/><path stroke="#a4c2f4" stroke-width="16.0" stroke-linejoin="round" stroke-linecap="butt" d="m2028.769 2153.817l-1145.0658 1.605957" fill-rule="evenodd"/><path stroke="#a4c2f4" stroke-width="16.0" stroke-linecap="butt" d="m883.70325 2155.4229l-38.08972 -26.591064l-38.015076 26.697754l38.089783 26.591309z" fill-rule="evenodd"/><path fill="#000000" fill-opacity="0.0" d="m1752.6614 1394.5486l-958.9606 0" fill-rule="evenodd"/><path stroke="#ff0000" stroke-width="16.0" stroke-linejoin="round" stroke-linecap="butt" d="m1752.6614 1394.5486l-868.9082 0" fill-rule="evenodd"/><path stroke="#ff0000" stroke-width="16.0" stroke-linecap="butt" d="m883.75323 1394.5486l-38.05243 -26.644653l-38.05243 26.644653l38.05243 26.644531z" fill-rule="evenodd"/><path fill="#000000" fill-opacity="0.0" d="m1687.168 1698.4514l0 1069.4526l228.88196 0l0 2.8308105" fill-rule="evenodd"/><path stroke="#ff0000" stroke-width="16.0" stroke-linejoin="round" stroke-linecap="butt" d="m1687.168 1698.4514l0 1069.4526l228.88196 0l0 2.8308105" fill-rule="evenodd"/><path fill="#000000" fill-opacity="0.0" d="m2041.4856 613.7103l-1247.7795 -0.31500244" fill-rule="evenodd"/><path stroke="#93c47d" stroke-width="16.0" stroke-linejoin="round" stroke-linecap="butt" d="m2041.4856 613.7103l-1157.7272 -0.29223633" fill-rule="evenodd"/><path stroke="#93c47d" stroke-width="16.0" stroke-linecap="butt" d="m883.7585 613.4181l-38.045715 -26.654236l-38.059143 26.63501l38.045654 26.654175z" fill-rule="evenodd"/><path fill="#000000" fill-opacity="0.0" d="m1887.8174 2842.763l282.26196 0l-56.452393 -144.08984l-169.35718 0z" fill-rule="evenodd"/><path stroke="#ffffff" stroke-width="12.0" stroke-linejoin="round" stroke-linecap="butt" d="m1887.8174 2842.763l282.26196 0l-56.452393 -144.08984l-169.35718 0z" fill-rule="evenodd"/><path fill="#000000" fill-opacity="0.0" d="m2198.8162 869.06036l-339.8739 0l0 466.29926l339.8739 0z" fill-rule="evenodd"/><path stroke="#ff0000" stroke-width="16.0" stroke-linejoin="round" stroke-linecap="butt" d="m2198.8162 869.06036l-339.8739 0l0 466.29926l339.8739 0z" fill-rule="evenodd"/><path fill="#ffffff" d="m1989.319 1086.6138l-23.1875 0l0 9.375l21.5 0l0 9.75l-21.5 0l0 21.53125l-12.921875 0l0 -50.40625l36.109375 0l0 9.75zm46.184204 40.65625l-12.1875 0l0 -4.203125q-3.390625 2.578125 -6.203125 3.921875q-2.8125 1.328125 -6.703125 1.328125q-6.296875 0 -9.703125 -3.609375q-3.390625 -3.625 -3.390625 -10.703125l0 -24.75l12.25 0l0 18.859375q0 2.875 0.1875 4.796875q0.1875 1.90625 0.859375 3.15625q0.640625 1.25 1.9375 1.828125q1.3125 0.578125 3.65625 0.578125q1.546875 0 3.4375 -0.578125q1.90625 -0.578125 3.671875 -1.6875l0 -26.953125l12.1875 0l0 38.015625zm48.93628 -16.75l-27.890625 0q0.28125 4.46875 3.40625 6.84375q3.125 2.359375 9.21875 2.359375q3.859375 0 7.484375 -1.390625q3.625 -1.390625 5.71875 -2.984375l1.359375 0l0 9.796875q-4.125 1.65625 -7.78125 2.390625q-3.65625 0.75 -8.09375 0.75q-11.4375 0 -17.53125 -5.140625q-6.093628 -5.15625 -6.093628 -14.65625q0 -9.421875 5.765503 -14.921875q5.765625 -5.5 15.828125 -5.5q9.28125 0 13.9375 4.6875q4.671875 4.6875 4.671875 13.5l0 4.265625zm-12.109375 -7.15625q-0.109375 -3.8125 -1.90625 -5.734375q-1.78125 -1.9375 -5.578125 -1.9375q-3.515625 0 -5.796875 1.828125q-2.265625 1.828125 -2.53125 5.84375l15.8125 0zm32.897705 23.90625l-12.1875 0l0 -52.671875l12.1875 0l0 52.671875z" fill-rule="nonzero"/><path fill="#000000" fill-opacity="0.0" d="m1892.4121 2529.603l273.0708 0l0 101.291504l-273.0708 0z" fill-rule="evenodd"/><path stroke="#ffffff" stroke-width="12.0" stroke-linejoin="round" stroke-linecap="butt" d="m1892.4121 2529.603l273.0708 0l0 101.291504l-273.0708 0z" fill-rule="evenodd"/><path fill="#000000" fill-opacity="0.0" d="m2154.0762 229.66011l166.04712 -0.881897" fill-rule="evenodd"/><path stroke="#ffffff" stroke-width="8.0" stroke-linejoin="round" stroke-linecap="butt" d="m2154.0762 229.66011l166.04712 -0.881897" fill-rule="evenodd"/><path fill="#000000" fill-opacity="0.0" d="m2322.0498 229.95145l93.03955 -89.212585l93.03931 89.212585l-93.03931 89.212616z" fill-rule="evenodd"/><path stroke="#ffffff" stroke-width="12.0" stroke-linejoin="round" stroke-linecap="butt" d="m2322.0498 229.95145l93.03955 -89.212585l93.03931 89.212585l-93.03931 89.212616z" fill-rule="evenodd"/><path fill="#ffffff" d="m2441.6008 220.51146q0 3.390625 -1.1875 6.625q-1.171875 3.234375 -3.375 5.4375q-3.015625 2.96875 -6.71875 4.5q-3.703125 1.515625 -9.234375 1.515625l-8.078125 0l0 16.421875l-13.0 0l0 -50.40625l21.390625 0q4.8125 0 8.109375 0.828125q3.296875 0.828125 5.828125 2.484375q3.046875 2.0 4.65625 5.125q1.609375 3.109375 1.609375 7.46875zm-13.4375 0.3125q0 -2.140625 -1.15625 -3.671875q-1.140625 -1.546875 -2.671875 -2.15625q-2.03125 -0.8125 -3.96875 -0.890625q-1.921875 -0.09375 -5.125 -0.09375l-2.234375 0l0 15.109375l3.71875 0q3.3125 0 5.453125 -0.40625q2.15625 -0.40625 3.625 -1.625q1.25 -1.09375 1.796875 -2.59375q0.5625 -1.515625 0.5625 -3.671875z" fill-rule="nonzero"/><path fill="#000000" fill-opacity="0.0" d="m2411.4092 320.38452l507.84668 0.2939453l0.82543945 -181.45143l-509.82056 2.417328" fill-rule="evenodd"/><path stroke="#ffffff" stroke-width="12.0" stroke-linejoin="round" stroke-linecap="butt" d="m2411.4092 320.38452l507.84668 0.2939453l0.82543945 -181.45143l-509.82056 2.417328" fill-rule="evenodd"/><path fill="#000000" fill-opacity="0.0" d="m2322.0496 467.1391l-78.80322 0l0 -235.37007" fill-rule="evenodd"/><path stroke="#ffffff" stroke-width="8.0" stroke-linejoin="round" stroke-linecap="butt" d="m2322.0496 467.1391l-78.80322 0l0 -235.37007" fill-rule="evenodd"/><path fill="#000000" fill-opacity="0.0" d="m2465.1992 467.1391l0 0c0 -39.529663 -32.045166 -71.5748 -71.57495 -71.5748l0 0c-18.982666 0 -37.18799 7.5408936 -50.61084 20.963776c-13.423096 13.422882 -20.963867 31.628204 -20.963867 50.611023l0 0c0 39.529694 32.045166 71.57483 71.57471 71.57483l0 0c39.529785 0 71.57495 -32.045135 71.57495 -71.57483z" fill-rule="evenodd"/><path stroke="#ffffff" stroke-width="12.0" stroke-linejoin="round" stroke-linecap="butt" d="m2465.1992 467.1391l0 0c0 -39.529663 -32.045166 -71.5748 -71.57495 -71.5748l0 0c-18.982666 0 -37.18799 7.5408936 -50.61084 20.963776c-13.423096 13.422882 -20.963867 31.628204 -20.963867 50.611023l0 0c0 39.529694 32.045166 71.57483 71.57471 71.57483l0 0c39.529785 0 71.57495 -32.045135 71.57495 -71.57483z" fill-rule="evenodd"/><path fill="#ffffff" d="m2415.8708 451.54285l-15.75 0l0 40.65625l-13.0 0l0 -40.65625l-15.734375 0l0 -9.75l44.484375 0l0 9.75z" fill-rule="nonzero"/><path fill="#000000" fill-opacity="0.0" d="m2392.125 538.96063l528.53076 -1.4435425l0.857666 -144.09189l-529.72363 1.9186401" fill-rule="evenodd"/><path stroke="#ffffff" stroke-width="12.0" stroke-linejoin="round" stroke-linecap="butt" d="m2392.125 538.96063l528.53076 -1.4435425l0.857666 -144.09189l-529.72363 1.9186401" fill-rule="evenodd"/><path fill="#000000" fill-opacity="0.0" d="m2366.1548 2698.6008l93.03955 -89.21265l93.03931 89.21265l-93.03931 89.21265z" fill-rule="evenodd"/><path stroke="#ffffff" stroke-width="12.0" stroke-linejoin="round" stroke-linecap="butt" d="m2366.1548 2698.6008l93.03955 -89.21265l93.03931 89.21265l-93.03931 89.21265z" fill-rule="evenodd"/><path fill="#ffffff" d="m2485.7058 2689.161q0 3.390625 -1.1875 6.625q-1.171875 3.234375 -3.375 5.4375q-3.015625 2.96875 -6.71875 4.5q-3.703125 1.515625 -9.234375 1.515625l-8.078125 0l0 16.421875l-13.0 0l0 -50.40625l21.390625 0q4.8125 0 8.109375 0.828125q3.296875 0.828125 5.828125 2.484375q3.046875 2.0 4.65625 5.125q1.609375 3.109375 1.609375 7.46875zm-13.4375 0.3125q0 -2.140625 -1.15625 -3.671875q-1.140625 -1.546875 -2.671875 -2.15625q-2.03125 -0.8125 -3.96875 -0.890625q-1.921875 -0.09375 -5.125 -0.09375l-2.234375 0l0 15.109375l3.71875 0q3.3125 0 5.453125 -0.40625q2.15625 -0.40625 3.625 -1.625q1.25 -1.09375 1.796875 -2.59375q0.5625 -1.515625 0.5625 -3.671875z" fill-rule="nonzero"/><path fill="#000000" fill-opacity="0.0" d="m2455.5142 2789.034l507.84668 0.2939453l0.82543945 -181.45142l-509.82056 2.4172363" fill-rule="evenodd"/><path stroke="#ffffff" stroke-width="12.0" stroke-linejoin="round" stroke-linecap="butt" d="m2455.5142 2789.034l507.84668 0.2939453l0.82543945 -181.45142l-509.82056 2.4172363" fill-rule="evenodd"/><path fill="#000000" fill-opacity="0.0" d="m1903.6815 144.5121l250.39368 0l0 389.16534l-250.39368 0z" fill-rule="evenodd"/><path stroke="#93c47d" stroke-width="16.0" stroke-linejoin="round" stroke-linecap="butt" d="m1903.6815 144.5121l250.39368 0l0 389.16534l-250.39368 0z" fill-rule="evenodd"/><path fill="#ffffff" d="m2027.1506 364.15475l-12.53125 0l-21.390625 -34.59375l0 34.59375l-11.90625 0l0 -50.40625l15.53125 0l18.375 28.875l0 -28.875l11.921875 0l0 50.40625zm52.26123 0l-39.5625 0l0 -8.328125q4.53125 -3.28125 9.078125 -6.96875q4.5625 -3.6875 7.296875 -6.375q4.109375 -3.953125 5.828125 -6.890625q1.734375 -2.953125 1.734375 -5.828125q0 -3.453125 -2.21875 -5.328125q-2.21875 -1.890625 -6.390625 -1.890625q-3.109375 0 -6.546875 1.296875q-3.4375 1.28125 -6.375 3.28125l-1.09375 0l0 -11.203125q2.40625 -1.046875 7.09375 -2.09375q4.6875 -1.0625 9.390625 -1.0625q9.484375 0 14.453125 3.984375q4.984375 3.96875 4.984375 11.25q0 4.78125 -2.390625 9.078125q-2.390625 4.296875 -7.296875 8.859375q-3.078125 2.84375 -6.1875 5.234375q-3.109375 2.390625 -4.4375 3.34375l22.640625 0l0 9.640625z" fill-rule="nonzero"/><path fill="#000000" fill-opacity="0.0" d="m2030.353 2370.5525l260.18896 -0.09448242" fill-rule="evenodd"/><path stroke="#ffffff" stroke-width="8.0" stroke-linejoin="round" stroke-linecap="butt" d="m2030.353 2370.5525l260.18896 -0.09448242" fill-rule="evenodd"/><path fill="#000000" fill-opacity="0.0" d="m2366.79 2370.9988l93.03931 -89.21265l93.03931 89.21265l-93.03931 89.2124z" fill-rule="evenodd"/><path stroke="#ffffff" stroke-width="12.0" stroke-linejoin="round" stroke-linecap="butt" d="m2366.79 2370.9988l93.03931 -89.21265l93.03931 89.21265l-93.03931 89.2124z" fill-rule="evenodd"/><path fill="#ffffff" d="m2486.341 2361.5586q0 3.390625 -1.1875 6.625q-1.171875 3.234375 -3.375 5.4375q-3.015625 2.96875 -6.71875 4.5q-3.703125 1.515625 -9.234375 1.515625l-8.078125 0l0 16.421875l-13.0 0l0 -50.40625l21.390625 0q4.8125 0 8.109375 0.828125q3.296875 0.828125 5.828125 2.484375q3.046875 2.0 4.65625 5.125q1.609375 3.109375 1.609375 7.46875zm-13.4375 0.3125q0 -2.140625 -1.15625 -3.671875q-1.140625 -1.546875 -2.671875 -2.15625q-2.03125 -0.8125 -3.96875 -0.890625q-1.921875 -0.09375 -5.125 -0.09375l-2.234375 0l0 15.109375l3.71875 0q3.3125 0 5.453125 -0.40625q2.15625 -0.40625 3.625 -1.625q1.25 -1.09375 1.796875 -2.59375q0.5625 -1.515625 0.5625 -3.671875z" fill-rule="nonzero"/><path fill="#000000" fill-opacity="0.0" d="m2456.1494 2461.4316l507.84644 0.29418945l0.8256836 -181.45166l-509.82056 2.4174805" fill-rule="evenodd"/><path stroke="#ffffff" stroke-width="12.0" stroke-linejoin="round" stroke-linecap="butt" d="m2456.1494 2461.4316l507.84644 0.29418945l0.8256836 -181.45166l-509.82056 2.4174805" fill-rule="evenodd"/><path fill="#000000" fill-opacity="0.0" d="m2028.9475 2529.603l-0.06298828 -440.12598" fill-rule="evenodd"/><path stroke="#a4c2f4" stroke-width="24.0" stroke-linejoin="round" stroke-linecap="butt" d="m2028.9475 2529.603l-0.06298828 -440.12598" fill-rule="evenodd"/><path fill="#000000" fill-opacity="0.0" d="m1676.6746 2679.7546l-182.2677 0.25195312" fill-rule="evenodd"/><path stroke="#ffffff" stroke-width="12.0" stroke-linejoin="round" stroke-linecap="butt" d="m1676.6746 2679.7546l-182.2677 0.25195312" fill-rule="evenodd"/><path fill="#000000" fill-opacity="0.0" d="m1494.4069 2680.0066l-93.03943 -89.21265l-93.03931 89.21265l93.03931 89.21265z" fill-rule="evenodd"/><path stroke="#ffffff" stroke-width="12.0" stroke-linejoin="round" stroke-linecap="butt" d="m1494.4069 2680.0066l-93.03943 -89.21265l-93.03931 89.21265l93.03931 89.21265z" fill-rule="evenodd"/><path fill="#ffffff" d="m1427.879 2670.5667q0 3.390625 -1.1875 6.625q-1.171875 3.234375 -3.375 5.4375q-3.015625 2.96875 -6.71875 4.5q-3.703125 1.515625 -9.234375 1.515625l-8.078125 0l0 16.421875l-13.0 0l0 -50.40625l21.390625 0q4.8125 0 8.109375 0.828125q3.296875 0.828125 5.828125 2.484375q3.046875 2.0 4.65625 5.125q1.609375 3.109375 1.609375 7.46875zm-13.4375 0.3125q0 -2.140625 -1.15625 -3.671875q-1.140625 -1.546875 -2.671875 -2.15625q-2.03125 -0.8125 -3.96875 -0.890625q-1.921875 -0.09375 -5.125 -0.09375l-2.234375 0l0 15.109375l3.71875 0q3.3125 0 5.453125 -0.40625q2.15625 -0.40625 3.625 -1.625q1.25 -1.09375 1.796875 -2.59375q0.5625 -1.515625 0.5625 -3.671875z" fill-rule="nonzero"/><path fill="#000000" fill-opacity="0.0" d="m1402.0919 2770.4397l-495.65363 0.2939453l-0.8057251 -181.45142l497.58008 2.4172363" fill-rule="evenodd"/><path stroke="#ffffff" stroke-width="12.0" stroke-linejoin="round" stroke-linecap="butt" d="m1402.0919 2770.4397l-495.65363 0.2939453l-0.8057251 -181.45142l497.58008 2.4172363" fill-rule="evenodd"/><path fill="#000000" fill-opacity="0.0" d="m2366.1548 2698.6008l-337.19678 0l0 0.06298828" fill-rule="evenodd"/><path stroke="#ffffff" stroke-width="8.0" stroke-linejoin="round" stroke-linecap="butt" d="m2366.1548 2698.6008l-337.19678 0l0 0.06298828" fill-rule="evenodd"/><path fill="#000000" fill-opacity="0.0" d="m2366.79 2370.9988l-82.86621 -0.4724121" fill-rule="evenodd"/><path stroke="#ffffff" stroke-width="8.0" stroke-linejoin="round" stroke-linecap="butt" d="m2366.79 2370.9988l-82.86621 -0.4724121" fill-rule="evenodd"/><path fill="#000000" fill-opacity="0.0" d="m0 0l314.96063 0l0 64.62992l-314.96063 0z" fill-rule="evenodd"/><path fill="#000000" d="m10.015625 21.076248l0 -1.53125l8.84375 -3.734375l0 1.640625l-7.015625 2.875l7.015625 2.90625l0 1.625l-8.84375 -3.78125zm11.5043335 5.84375l0 -8.40625l-1.453125 0l0 -1.265625l1.453125 0l0 -1.03125q0 -0.96875 0.171875 -1.453125q0.234375 -0.640625 0.828125 -1.03125q0.59375 -0.390625 1.671875 -0.390625q0.6875 0 1.53125 0.15625l-0.25 1.4375q-0.5 -0.09375 -0.953125 -0.09375q-0.75 0 -1.0625 0.328125q-0.3125 0.3125 -0.3125 1.1875l0 0.890625l1.890625 0l0 1.265625l-1.890625 0l0 8.40625l-1.625 0zm4.792679 -11.46875l0 -1.890625l1.640625 0l0 1.890625l-1.640625 0zm0 11.46875l0 -9.671875l1.640625 0l0 9.671875l-1.640625 0zm4.097946 0l0 -13.359375l1.640625 0l0 13.359375l-1.640625 0zm10.816696 -3.109375l1.6875 0.203125q-0.40625 1.484375 -1.484375 2.3125q-1.078125 0.8125 -2.765625 0.8125q-2.125 0 -3.375 -1.296875q-1.234375 -1.3125 -1.234375 -3.671875q0 -2.453125 1.25 -3.796875q1.265625 -1.34375 3.265625 -1.34375q1.9375 0 3.15625 1.328125q1.234375 1.3125 1.234375 3.703125q0 0.15625 0 0.4375l-7.21875 0q0.09375 1.59375 0.90625 2.453125q0.8125 0.84375 2.015625 0.84375q0.90625 0 1.546875 -0.46875q0.640625 -0.484375 1.015625 -1.515625zm-5.390625 -2.65625l5.40625 0q-0.109375 -1.21875 -0.625 -1.828125q-0.78125 -0.953125 -2.03125 -0.953125q-1.125 0 -1.90625 0.765625q-0.765625 0.75 -0.84375 2.015625zm17.766342 -0.078125l-8.84375 3.78125l0 -1.625l7.015625 -2.90625l-7.015625 -2.875l0 -1.640625l8.84375 3.734375l0 1.53125zm2.2699585 -5.625l0 -1.890625l1.640625 0l0 1.890625l-1.640625 0zm0 11.46875l0 -9.671875l1.640625 0l0 9.671875l-1.640625 0zm4.144821 0l0 -9.671875l1.46875 0l0 1.359375q0.453125 -0.71875 1.203125 -1.140625q0.765625 -0.4375 1.71875 -0.4375q1.078125 0 1.765625 0.453125q0.6875 0.4375 0.96875 1.234375q1.15625 -1.6875 2.984375 -1.6875q1.453125 0 2.21875 0.796875q0.78125 0.796875 0.78125 2.453125l0 6.640625l-1.640625 0l0 -6.09375q0 -0.984375 -0.15625 -1.40625q-0.15625 -0.4375 -0.578125 -0.703125q-0.421875 -0.265625 -0.984375 -0.265625q-1.015625 0 -1.6875 0.6875q-0.671875 0.671875 -0.671875 2.15625l0 5.625l-1.640625 0l0 -6.28125q0 -1.09375 -0.40625 -1.640625q-0.40625 -0.546875 -1.3125 -0.546875q-0.6875 0 -1.28125 0.359375q-0.59375 0.359375 -0.859375 1.0625q-0.25 0.703125 -0.25 2.03125l0 5.015625l-1.640625 0zm21.853302 -1.1875q-0.921875 0.765625 -1.765625 1.09375q-0.828125 0.3125 -1.796875 0.3125q-1.59375 0 -2.453125 -0.78125q-0.859375 -0.78125 -0.859375 -1.984375q0 -0.71875 0.328125 -1.296875q0.328125 -0.59375 0.84375 -0.9375q0.53125 -0.359375 1.1875 -0.546875q0.46875 -0.125 1.453125 -0.25q1.984375 -0.234375 2.921875 -0.5625q0.015625 -0.34375 0.015625 -0.421875q0 -1.0 -0.46875 -1.421875q-0.625 -0.546875 -1.875 -0.546875q-1.15625 0 -1.703125 0.40625q-0.546875 0.40625 -0.8125 1.421875l-1.609375 -0.21875q0.21875 -1.015625 0.71875 -1.640625q0.5 -0.640625 1.453125 -0.984375q0.953125 -0.34375 2.1875 -0.34375q1.25 0 2.015625 0.296875q0.78125 0.28125 1.140625 0.734375q0.375 0.4375 0.515625 1.109375q0.078125 0.421875 0.078125 1.515625l0 2.1875q0 2.28125 0.109375 2.890625q0.109375 0.59375 0.40625 1.15625l-1.703125 0q-0.265625 -0.515625 -0.328125 -1.1875zm-0.140625 -3.671875q-0.890625 0.375 -2.671875 0.625q-1.015625 0.140625 -1.4375 0.328125q-0.421875 0.1875 -0.65625 0.53125q-0.21875 0.34375 -0.21875 0.78125q0 0.65625 0.5 1.09375q0.5 0.4375 1.453125 0.4375q0.9375 0 1.671875 -0.40625q0.75 -0.421875 1.09375 -1.140625q0.265625 -0.5625 0.265625 -1.640625l0 -0.609375zm3.8913422 5.65625l1.59375 0.234375q0.109375 0.75 0.5625 1.078125q0.609375 0.453125 1.671875 0.453125q1.140625 0 1.75 -0.453125q0.625 -0.453125 0.84375 -1.265625q0.125 -0.5 0.109375 -2.109375q-1.0625 1.265625 -2.671875 1.265625q-2.0 0 -3.09375 -1.4375q-1.09375 -1.4375 -1.09375 -3.453125q0 -1.390625 0.5 -2.5625q0.515625 -1.171875 1.453125 -1.796875q0.953125 -0.640625 2.25 -0.640625q1.703125 0 2.8125 1.375l0 -1.15625l1.515625 0l0 8.359375q0 2.265625 -0.46875 3.203125q-0.453125 0.9375 -1.453125 1.484375q-0.984375 0.546875 -2.453125 0.546875q-1.71875 0 -2.796875 -0.78125q-1.0625 -0.765625 -1.03125 -2.34375zm1.359375 -5.8125q0 1.90625 0.75 2.78125q0.765625 0.875 1.90625 0.875q1.125 0 1.890625 -0.859375q0.765625 -0.875 0.765625 -2.734375q0 -1.78125 -0.796875 -2.671875q-0.78125 -0.90625 -1.890625 -0.90625q-1.09375 0 -1.859375 0.890625q-0.765625 0.875 -0.765625 2.625zm15.953842 1.90625l1.6875 0.203125q-0.40625 1.484375 -1.484375 2.3125q-1.078125 0.8125 -2.765625 0.8125q-2.125 0 -3.375 -1.296875q-1.234375 -1.3125 -1.234375 -3.671875q0 -2.453125 1.25 -3.796875q1.265625 -1.34375 3.265625 -1.34375q1.9375 0 3.15625 1.328125q1.234375 1.3125 1.234375 3.703125q0 0.15625 0 0.4375l-7.21875 0q0.09375 1.59375 0.90625 2.453125q0.8125 0.84375 2.015625 0.84375q0.90625 0 1.546875 -0.46875q0.640625 -0.484375 1.015625 -1.515625zm-5.390625 -2.65625l5.40625 0q-0.109375 -1.21875 -0.625 -1.828125q-0.78125 -0.953125 -2.03125 -0.953125q-1.125 0 -1.90625 0.765625q-0.765625 0.75 -0.84375 2.015625zm8.485092 2.875l1.625 -0.25q0.125 0.96875 0.75 1.5q0.625 0.515625 1.75 0.515625q1.125 0 1.671875 -0.453125q0.546875 -0.46875 0.546875 -1.09375q0 -0.546875 -0.484375 -0.875q-0.328125 -0.21875 -1.671875 -0.546875q-1.8125 -0.46875 -2.515625 -0.796875q-0.6875 -0.328125 -1.046875 -0.90625q-0.359375 -0.59375 -0.359375 -1.3125q0 -0.640625 0.296875 -1.1875q0.296875 -0.5625 0.8125 -0.921875q0.375 -0.28125 1.03125 -0.46875q0.671875 -0.203125 1.421875 -0.203125q1.140625 0 2.0 0.328125q0.859375 0.328125 1.265625 0.890625q0.421875 0.5625 0.578125 1.5l-1.609375 0.21875q-0.109375 -0.75 -0.640625 -1.171875q-0.515625 -0.421875 -1.46875 -0.421875q-1.140625 0 -1.625 0.375q-0.46875 0.375 -0.46875 0.875q0 0.3125 0.1875 0.578125q0.203125 0.265625 0.640625 0.4375q0.234375 0.09375 1.4375 0.421875q1.75 0.453125 2.4375 0.75q0.6875 0.296875 1.078125 0.859375q0.390625 0.5625 0.390625 1.40625q0 0.828125 -0.484375 1.546875q-0.46875 0.71875 -1.375 1.125q-0.90625 0.390625 -2.046875 0.390625q-1.875 0 -2.875 -0.78125q-0.984375 -0.78125 -1.25 -2.328125zm8.75 3.125l3.875 -13.8125l1.3125 0l-3.859375 13.8125l-1.328125 0zm6.417679 3.46875l0 -13.375l1.484375 0l0 1.25q0.53125 -0.734375 1.1875 -1.09375q0.671875 -0.375 1.625 -0.375q1.234375 0 2.171875 0.640625q0.953125 0.625 1.4375 1.796875q0.484375 1.15625 0.484375 2.546875q0 1.484375 -0.53125 2.671875q-0.53125 1.1875 -1.546875 1.828125q-1.015625 0.625 -2.140625 0.625q-0.8125 0 -1.46875 -0.34375q-0.65625 -0.34375 -1.0625 -0.875l0 4.703125l-1.640625 0zm1.484375 -8.484375q0 1.859375 0.75 2.765625q0.765625 0.890625 1.828125 0.890625q1.09375 0 1.875 -0.921875q0.78125 -0.9375 0.78125 -2.875q0 -1.84375 -0.765625 -2.765625q-0.75 -0.921875 -1.8125 -0.921875q-1.046875 0 -1.859375 0.984375q-0.796875 0.96875 -0.796875 2.84375zm8.875717 4.78125l0 -9.671875l1.46875 0l0 1.46875q0.5625 -1.03125 1.03125 -1.359375q0.484375 -0.328125 1.0625 -0.328125q0.828125 0 1.6875 0.53125l-0.5625 1.515625q-0.609375 -0.359375 -1.203125 -0.359375q-0.546875 0 -0.96875 0.328125q-0.421875 0.328125 -0.609375 0.890625q-0.28125 0.875 -0.28125 1.921875l0 5.0625l-1.625 0zm5.618927 -4.84375q0 -2.6875 1.484375 -3.96875q1.25 -1.078125 3.046875 -1.078125q2.0 0 3.265625 1.3125q1.265625 1.296875 1.265625 3.609375q0 1.859375 -0.5625 2.9375q-0.5625 1.0625 -1.640625 1.65625q-1.0625 0.59375 -2.328125 0.59375q-2.03125 0 -3.28125 -1.296875q-1.25 -1.3125 -1.25 -3.765625zm1.6875 0q0 1.859375 0.796875 2.796875q0.8125 0.921875 2.046875 0.921875q1.21875 0 2.03125 -0.921875q0.8125 -0.9375 0.8125 -2.84375q0 -1.796875 -0.8125 -2.71875q-0.8125 -0.921875 -2.03125 -0.921875q-1.234375 0 -2.046875 0.921875q-0.796875 0.90625 -0.796875 2.765625zm9.297592 8.546875l0 -13.375l1.484375 0l0 1.25q0.53125 -0.734375 1.1875 -1.09375q0.671875 -0.375 1.625 -0.375q1.234375 0 2.171875 0.640625q0.953125 0.625 1.4375 1.796875q0.484375 1.15625 0.484375 2.546875q0 1.484375 -0.53125 2.671875q-0.53125 1.1875 -1.546875 1.828125q-1.015625 0.625 -2.140625 0.625q-0.8125 0 -1.46875 -0.34375q-0.65625 -0.34375 -1.0625 -0.875l0 4.703125l-1.640625 0zm1.484375 -8.484375q0 1.859375 0.75 2.765625q0.765625 0.890625 1.828125 0.890625q1.09375 0 1.875 -0.921875q0.78125 -0.9375 0.78125 -2.875q0 -1.84375 -0.765625 -2.765625q-0.75 -0.921875 -1.8125 -0.921875q-1.046875 0 -1.859375 0.984375q-0.796875 0.96875 -0.796875 2.84375zm7.375717 8.484375l0 -1.1875l10.859375 0l0 1.1875l-10.859375 0zm12.281967 -3.703125l0 -8.40625l-1.453125 0l0 -1.265625l1.453125 0l0 -1.03125q0 -0.96875 0.171875 -1.453125q0.234375 -0.640625 0.828125 -1.03125q0.59375 -0.390625 1.671875 -0.390625q0.6875 0 1.53125 0.15625l-0.25 1.4375q-0.5 -0.09375 -0.953125 -0.09375q-0.75 0 -1.0625 0.328125q-0.3125 0.3125 -0.3125 1.1875l0 0.890625l1.890625 0l0 1.265625l-1.890625 0l0 8.40625l-1.625 0zm4.792679 -11.46875l0 -1.890625l1.640625 0l0 1.890625l-1.640625 0zm0 11.46875l0 -9.671875l1.640625 0l0 9.671875l-1.640625 0zm4.129196 0l0 -9.671875l1.46875 0l0 1.46875q0.5625 -1.03125 1.03125 -1.359375q0.484375 -0.328125 1.0625 -0.328125q0.828125 0 1.6875 0.53125l-0.5625 1.515625q-0.609375 -0.359375 -1.203125 -0.359375q-0.546875 0 -0.96875 0.328125q-0.421875 0.328125 -0.609375 0.890625q-0.28125 0.875 -0.28125 1.921875l0 5.0625l-1.625 0zm12.853302 -3.109375l1.6875 0.203125q-0.40625 1.484375 -1.484375 2.3125q-1.078125 0.8125 -2.765625 0.8125q-2.125 0 -3.375 -1.296875q-1.234375 -1.3125 -1.234375 -3.671875q0 -2.453125 1.25 -3.796875q1.265625 -1.34375 3.265625 -1.34375q1.9375 0 3.15625 1.328125q1.234375 1.3125 1.234375 3.703125q0 0.15625 0 0.4375l-7.21875 0q0.09375 1.59375 0.90625 2.453125q0.8125 0.84375 2.015625 0.84375q0.90625 0 1.546875 -0.46875q0.640625 -0.484375 1.015625 -1.515625zm-5.390625 -2.65625l5.40625 0q-0.109375 -1.21875 -0.625 -1.828125q-0.78125 -0.953125 -2.03125 -0.953125q-1.125 0 -1.90625 0.765625q-0.765625 0.75 -0.84375 2.015625zm9.141342 5.765625l0 -13.359375l1.640625 0l0 4.796875q1.140625 -1.328125 2.890625 -1.328125q1.078125 0 1.859375 0.421875q0.796875 0.421875 1.140625 1.171875q0.34375 0.75 0.34375 2.171875l0 6.125l-1.640625 0l0 -6.125q0 -1.234375 -0.53125 -1.796875q-0.53125 -0.5625 -1.515625 -0.5625q-0.71875 0 -1.359375 0.390625q-0.640625 0.375 -0.921875 1.015625q-0.265625 0.640625 -0.265625 1.78125l0 5.296875l-1.640625 0zm9.766342 -4.84375q0 -2.6875 1.484375 -3.96875q1.25 -1.078125 3.046875 -1.078125q2.0 0 3.265625 1.3125q1.265625 1.296875 1.265625 3.609375q0 1.859375 -0.5625 2.9375q-0.5625 1.0625 -1.640625 1.65625q-1.0625 0.59375 -2.328125 0.59375q-2.03125 0 -3.28125 -1.296875q-1.25 -1.3125 -1.25 -3.765625zm1.6875 0q0 1.859375 0.796875 2.796875q0.8125 0.921875 2.046875 0.921875q1.21875 0 2.03125 -0.921875q0.8125 -0.9375 0.8125 -2.84375q0 -1.796875 -0.8125 -2.71875q-0.8125 -0.921875 -2.03125 -0.921875q-1.234375 0 -2.046875 0.921875q-0.796875 0.90625 -0.796875 2.765625zm9.281967 4.84375l0 -9.671875l1.46875 0l0 1.46875q0.5625 -1.03125 1.03125 -1.359375q0.484375 -0.328125 1.0625 -0.328125q0.828125 0 1.6875 0.53125l-0.5625 1.515625q-0.609375 -0.359375 -1.203125 -0.359375q-0.546875 0 -0.96875 0.328125q-0.421875 0.328125 -0.609375 0.890625q-0.28125 0.875 -0.28125 1.921875l0 5.0625l-1.625 0zm6.228302 0l0 -9.671875l1.46875 0l0 1.375q1.0625 -1.59375 3.078125 -1.59375q0.875 0 1.609375 0.3125q0.734375 0.3125 1.09375 0.828125q0.375 0.5 0.515625 1.203125q0.09375 0.453125 0.09375 1.59375l0 5.953125l-1.640625 0l0 -5.890625q0 -1.0 -0.203125 -1.484375q-0.1875 -0.5 -0.671875 -0.796875q-0.484375 -0.296875 -1.140625 -0.296875q-1.046875 0 -1.8125 0.671875q-0.75 0.65625 -0.75 2.515625l0 5.28125l-1.640625 0zm8.860092 3.703125l0 -1.1875l10.859375 0l0 1.1875l-10.859375 0zm15.906967 -3.703125l-5.171875 -13.359375l1.921875 0l3.46875 9.703125q0.421875 1.171875 0.703125 2.1875q0.3125 -1.09375 0.71875 -2.1875l3.609375 -9.703125l1.796875 0l-5.234375 13.359375l-1.8125 0zm13.224823 0l0 -3.203125l-5.796875 0l0 -1.5l6.09375 -8.65625l1.34375 0l0 8.65625l1.796875 0l0 1.5l-1.796875 0l0 3.203125l-1.640625 0zm0 -4.703125l0 -6.015625l-4.1875 6.015625l4.1875 0zm6.0319824 4.703125l0 -1.875l1.875 0l0 1.875l-1.875 0zm4.0739136 -2.890625l1.625 -0.25q0.125 0.96875 0.75 1.5q0.625 0.515625 1.75 0.515625q1.125 0 1.671875 -0.453125q0.546875 -0.46875 0.546875 -1.09375q0 -0.546875 -0.484375 -0.875q-0.328125 -0.21875 -1.671875 -0.546875q-1.8125 -0.46875 -2.515625 -0.796875q-0.6875 -0.328125 -1.046875 -0.90625q-0.359375 -0.59375 -0.359375 -1.3125q0 -0.640625 0.296875 -1.1875q0.296875 -0.5625 0.8125 -0.921875q0.375 -0.28125 1.03125 -0.46875q0.671875 -0.203125 1.421875 -0.203125q1.140625 0 2.0 0.328125q0.859375 0.328125 1.265625 0.890625q0.421875 0.5625 0.578125 1.5l-1.609375 0.21875q-0.109375 -0.75 -0.640625 -1.171875q-0.515625 -0.421875 -1.46875 -0.421875q-1.140625 0 -1.625 0.375q-0.46875 0.375 -0.46875 0.875q0 0.3125 0.1875 0.578125q0.203125 0.265625 0.640625 0.4375q0.234375 0.09375 1.4375 0.421875q1.75 0.453125 2.4375 0.75q0.6875 0.296875 1.078125 0.859375q0.390625 0.5625 0.390625 1.40625q0 0.828125 -0.484375 1.546875q-0.46875 0.71875 -1.375 1.125q-0.90625 0.390625 -2.046875 0.390625q-1.875 0 -2.875 -0.78125q-0.984375 -0.78125 -1.25 -2.328125zm12.671875 2.890625l-3.6875 -9.671875l1.734375 0l2.078125 5.796875q0.328125 0.9375 0.625 1.9375q0.203125 -0.765625 0.609375 -1.828125l2.140625 -5.90625l1.6875 0l-3.65625 9.671875l-1.53125 0zm6.328125 0.796875l1.59375 0.234375q0.109375 0.75 0.5625 1.078125q0.609375 0.453125 1.671875 0.453125q1.140625 0 1.75 -0.453125q0.625 -0.453125 0.84375 -1.265625q0.125 -0.5 0.109375 -2.109375q-1.0625 1.265625 -2.671875 1.265625q-2.0 0 -3.09375 -1.4375q-1.09375 -1.4375 -1.09375 -3.453125q0 -1.390625 0.5 -2.5625q0.515625 -1.171875 1.453125 -1.796875q0.953125 -0.640625 2.25 -0.640625q1.703125 0 2.8125 1.375l0 -1.15625l1.515625 0l0 8.359375q0 2.265625 -0.46875 3.203125q-0.453125 0.9375 -1.453125 1.484375q-0.984375 0.546875 -2.453125 0.546875q-1.71875 0 -2.796875 -0.78125q-1.0625 -0.765625 -1.03125 -2.34375zm1.359375 -5.8125q0 1.90625 0.75 2.78125q0.765625 0.875 1.90625 0.875q1.125 0 1.890625 -0.859375q0.765625 -0.875 0.765625 -2.734375q0 -1.78125 -0.796875 -2.671875q-0.78125 -0.90625 -1.890625 -0.90625q-1.09375 0 -1.859375 0.890625q-0.765625 0.875 -0.765625 2.625z" fill-rule="nonzero"/><path fill="#000000" d="m10.015625 43.476246l0 -1.53125l8.84375 -3.734375l0 1.640625l-7.015625 2.875l7.015625 2.90625l0 1.625l-8.84375 -3.78125zm9.8793335 6.078125l3.875 -13.8125l1.3125 0l-3.859375 13.8125l-1.328125 0zm6.808304 -0.234375l0 -8.40625l-1.453125 0l0 -1.265625l1.453125 0l0 -1.03125q0 -0.96875 0.171875 -1.453125q0.234375 -0.640625 0.828125 -1.03125q0.59375 -0.390625 1.671875 -0.390625q0.6875 0 1.53125 0.15625l-0.25 1.4375q-0.5 -0.09375 -0.953125 -0.09375q-0.75 0 -1.0625 0.328125q-0.3125 0.3125 -0.3125 1.1875l0 0.890625l1.890625 0l0 1.265625l-1.890625 0l0 8.40625l-1.625 0zm4.792679 -11.46875l0 -1.890625l1.640625 0l0 1.890625l-1.640625 0zm0 11.46875l0 -9.671875l1.640625 0l0 9.671875l-1.640625 0zm4.097946 0l0 -13.359375l1.640625 0l0 13.359375l-1.640625 0zm10.816696 -3.109375l1.6875 0.203125q-0.40625 1.484375 -1.484375 2.3125q-1.078125 0.8125 -2.765625 0.8125q-2.125 0 -3.375 -1.296875q-1.234375 -1.3125 -1.234375 -3.671875q0 -2.453125 1.25 -3.796875q1.265625 -1.34375 3.265625 -1.34375q1.9375 0 3.15625 1.328125q1.234375 1.3125 1.234375 3.703125q0 0.15625 0 0.4375l-7.21875 0q0.09375 1.59375 0.90625 2.453125q0.8125 0.84375 2.015625 0.84375q0.90625 0 1.546875 -0.46875q0.640625 -0.484375 1.015625 -1.515625zm-5.390625 -2.65625l5.40625 0q-0.109375 -1.21875 -0.625 -1.828125q-0.78125 -0.953125 -2.03125 -0.953125q-1.125 0 -1.90625 0.765625q-0.765625 0.75 -0.84375 2.015625zm17.766342 -0.078125l-8.84375 3.78125l0 -1.625l7.015625 -2.90625l-7.015625 -2.875l0 -1.640625l8.84375 3.734375l0 1.53125z" fill-rule="nonzero"/></g></svg>