<svg version="1.1" viewBox="0.0 0.0 4175.734908136483 3007.721784776903" fill="none" stroke="none" stroke-linecap="square" stroke-miterlimit="10" xmlns:xlink="http://www.w3.org/1999/xlink" xmlns="http://www.w3.org/2000/svg"><clipPath id="p.0"><path d="m0 0l4175.735 0l0 3007.7217l-4175.735 0l0 -3007.7217z" clip-rule="nonzero"/></clipPath><g clip-path="url(#p.0)"><path fill="#000000" fill-opacity="0.0" d="m0 0l4175.735 0l0 3007.7217l-4175.735 0z" fill-rule="evenodd"/><path fill="#000000" fill-opacity="0.0" d="m2448.5525 927.4603l0 -157.82678l485.98438 0" fill-rule="evenodd"/><path stroke="#ffffff" stroke-width="24.0" stroke-linejoin="round" stroke-linecap="butt" d="m2448.5525 927.4603l0 -157.82678l485.98438 0" fill-rule="evenodd"/><path fill="#000000" fill-opacity="0.0" d="m2552.2788 2282.224l273.0708 0l0 343.71655l-273.0708 0z" fill-rule="evenodd"/><path stroke="#ffffff" stroke-width="12.0" stroke-linejoin="round" stroke-linecap="butt" d="m2552.2788 2282.224l273.0708 0l0 343.71655l-273.0708 0z" fill-rule="evenodd"/><path fill="#000000" fill-opacity="0.0" d="m2545.3003 2837.9873l282.26196 0l-56.452393 -144.08984l-169.35718 0z" fill-rule="evenodd"/><path stroke="#ffffff" stroke-width="12.0" stroke-linejoin="round" stroke-linecap="butt" d="m2545.3003 2837.9873l282.26196 0l-56.452393 -144.08984l-169.35718 0z" fill-rule="evenodd"/><path fill="#000000" fill-opacity="0.0" d="m2552.259 2625.9458l273.05664 0l-54.61133 67.95166l-163.83398 0z" fill-rule="evenodd"/><path stroke="#ffffff" stroke-width="12.0" stroke-linejoin="round" stroke-linecap="butt" d="m2552.259 2625.9458l273.05664 0l-54.61133 67.95166l-163.83398 0z" fill-rule="evenodd"/><path fill="#000000" fill-opacity="0.0" d="m2312.017 927.4603l273.07104 0l0 677.6378l-273.07104 0z" fill-rule="evenodd"/><path stroke="#ffffff" stroke-width="16.0" stroke-linejoin="round" stroke-linecap="butt" d="m2312.017 927.4603l273.07104 0l0 677.6378l-273.07104 0z" fill-rule="evenodd"/><path fill="#000000" fill-opacity="0.0" d="m2597.907 2282.7358l0 -110.759766l-149.35449 0l0 -566.8779" fill-rule="evenodd"/><path stroke="#ffffff" stroke-width="24.0" stroke-linejoin="round" stroke-linecap="butt" d="m2597.907 2282.7358l0 -110.759766l-149.35449 0l0 -566.8779" fill-rule="evenodd"/><path fill="#000000" fill-opacity="0.0" d="m844.46924 503.09882l273.07092 0l0 677.63776l-273.07092 0z" fill-rule="evenodd"/><path stroke="#ffffff" stroke-width="16.0" stroke-linejoin="round" stroke-linecap="butt" d="m844.46924 503.09882l273.07092 0l0 677.63776l-273.07092 0z" fill-rule="evenodd"/><path fill="#000000" fill-opacity="0.0" d="m2462.3955 424.03702l474.1101 0l0 503.59055" fill-rule="evenodd"/><path stroke="#ffffff" stroke-width="24.0" stroke-linejoin="round" stroke-linecap="butt" d="m2462.3955 424.03702l474.1101 0l0 503.59055" fill-rule="evenodd"/><path fill="#000000" fill-opacity="0.0" d="m2212.0017 229.45435l250.3938 0l0 389.16534l-250.3938 0z" fill-rule="evenodd"/><path stroke="#ffffff" stroke-width="16.0" stroke-linejoin="round" stroke-linecap="butt" d="m2212.0017 229.45435l250.3938 0l0 389.16534l-250.3938 0z" fill-rule="evenodd"/><path fill="#000000" fill-opacity="0.0" d="m3073.033 927.6181l-273.0708 0l0 677.63776l273.0708 0z" fill-rule="evenodd"/><path stroke="#ffffff" stroke-width="16.0" stroke-linejoin="round" stroke-linecap="butt" d="m3073.033 927.6181l-273.0708 0l0 677.63776l273.0708 0z" fill-rule="evenodd"/><path fill="#000000" fill-opacity="0.0" d="m2787.143 2282.8938l0 -112.89453l149.35449 0l0 -564.7434" fill-rule="evenodd"/><path stroke="#ffffff" stroke-width="24.0" stroke-linejoin="round" stroke-linecap="butt" d="m2787.143 2282.8938l0 -112.89453l149.35449 0l0 -564.7434" fill-rule="evenodd"/><path fill="#000000" fill-opacity="0.0" d="m2312.017 1011.6643l-490.2992 0" fill-rule="evenodd"/><path stroke="#ffffff" stroke-width="24.0" stroke-linejoin="round" stroke-linecap="butt" d="m2312.0173 1011.66437l-399.33936 0" fill-rule="evenodd"/><path fill="#ffffff" stroke="#ffffff" stroke-width="24.0" stroke-linecap="butt" d="m1833.718 1011.66437c0 -21.8042 17.675781 -39.47998 39.47998 -39.47998c21.8042 0 39.47998 17.675781 39.47998 39.47998c0 21.80426 -17.675781 39.48004 -39.47998 39.48004c-21.8042 0 -39.47998 -17.675781 -39.47998 -39.48004z" fill-rule="nonzero"/><path fill="#000000" fill-opacity="0.0" d="m3073.013 1011.6504l490.29932 0" fill-rule="evenodd"/><path stroke="#ffffff" stroke-width="24.0" stroke-linejoin="round" stroke-linecap="butt" d="m3073.0132 1011.65045l399.3391 0" fill-rule="evenodd"/><path fill="#ffffff" stroke="#ffffff" stroke-width="24.0" stroke-linecap="butt" d="m3551.3123 1011.65045c0 21.804138 -17.675781 39.47992 -39.47998 39.47992c-21.8042 0 -39.47998 -17.675781 -39.47998 -39.47992c0 -21.8042 17.675781 -39.48004 39.47998 -39.48004c21.8042 0 39.47998 17.675842 39.47998 39.48004z" fill-rule="nonzero"/><path fill="#000000" fill-opacity="0.0" d="m981.0047 1180.7366l0 1233.6694" fill-rule="evenodd"/><path stroke="#ffffff" stroke-width="24.0" stroke-linejoin="round" stroke-linecap="butt" d="m981.0047 1180.7366l0 1233.6694" fill-rule="evenodd"/><path fill="#000000" fill-opacity="0.0" d="m2446.4673 1736.7979l-1463.748 0" fill-rule="evenodd"/><path stroke="#ffffff" stroke-width="24.0" stroke-linejoin="round" stroke-linecap="butt" d="m2446.4673 1736.7979l-1463.748 0" fill-rule="evenodd"/><path fill="#000000" fill-opacity="0.0" d="m899.46234 2414.397l82.48816 79.74805l82.48822 -79.74805z" fill-rule="evenodd"/><path stroke="#ffffff" stroke-width="16.0" stroke-linejoin="round" stroke-linecap="butt" d="m899.46234 2414.397l82.48816 79.74805l82.48822 -79.74805z" fill-rule="evenodd"/></g></svg>