<?xml version="1.0" standalone="no"?>
<!DOCTYPE svg PUBLIC "-//W3C//DTD SVG 20010904//EN"
 "http://www.w3.org/TR/2001/REC-SVG-20010904/DTD/svg10.dtd">
<svg version="1.0" xmlns="http://www.w3.org/2000/svg"
 width="1022.000000pt" height="633.000000pt" viewBox="0 0 1022.000000 633.000000"
 preserveAspectRatio="xMidYMid meet">

<g transform="translate(0.000000,633.000000) scale(0.100000,-0.100000)"
fill="#000000" stroke="none">
<path d="M980 5815 l-95 -95 98 -98 97 -97 97 97 98 98 -95 95 c-52 52 -97 95
-100 95 -3 0 -48 -43 -100 -95z m138 -54 c4 -26 -12 -41 -45 -41 -18 0 -23 -6
-23 -25 0 -14 -4 -25 -10 -25 -6 0 -10 27 -10 61 l0 60 43 -3 c36 -3 43 -7 45
-27z"/>
<path d="M1050 5755 c0 -9 9 -15 25 -15 16 0 25 6 25 15 0 9 -9 15 -25 15 -16
0 -25 -6 -25 -15z"/>
<path d="M6750 5285 l-95 -95 98 -98 97 -97 97 97 98 98 -95 95 c-52 52 -97
95 -100 95 -3 0 -48 -43 -100 -95z m138 -44 c4 -26 -12 -41 -45 -41 -18 0 -23
-6 -23 -25 0 -14 -4 -25 -10 -25 -6 0 -10 27 -10 61 l0 60 43 -3 c36 -3 43 -7
45 -27z"/>
<path d="M6820 5235 c0 -9 9 -15 25 -15 16 0 25 6 25 15 0 9 -9 15 -25 15 -16
0 -25 -6 -25 -15z"/>
<path d="M955 5268 c-59 -34 -87 -89 -82 -161 9 -151 180 -216 288 -108 79 79
69 195 -24 265 -42 31 -132 33 -182 4z m135 -98 c0 -5 -9 -10 -20 -10 -17 0
-20 -7 -20 -50 0 -27 -4 -50 -10 -50 -5 0 -10 23 -10 50 0 38 -4 50 -15 50 -8
0 -15 5 -15 10 0 6 20 10 45 10 25 0 45 -4 45 -10z"/>
<path d="M6155 3420 l-100 -100 103 -102 102 -103 95 95 c52 52 95 99 95 105
0 6 -44 54 -98 108 l-97 97 -100 -100z m129 -65 c8 -22 -4 -45 -24 -45 -10 0
-21 -8 -23 -17 -3 -10 -5 3 -6 30 -1 43 1 47 23 47 13 0 26 -7 30 -15z"/>
<path d="M6240 3340 c0 -15 5 -20 18 -18 9 2 17 10 17 18 0 8 -8 16 -17 18
-13 2 -18 -3 -18 -18z"/>
<path d="M9035 3420 l-100 -100 100 -100 100 -100 100 100 100 100 -100 100
-100 100 -100 -100z m129 -65 c8 -22 -4 -45 -24 -45 -10 0 -21 -8 -23 -17 -3
-10 -5 3 -6 30 -1 43 1 47 23 47 13 0 26 -7 30 -15z"/>
<path d="M9120 3340 c0 -15 5 -20 18 -18 9 2 17 10 17 18 0 8 -8 16 -17 18
-13 2 -18 -3 -18 -18z"/>
<path d="M1137 2962 l-97 -97 95 -95 95 -95 98 98 97 97 -95 95 -95 95 -98
-98z m131 -51 c4 -26 -12 -41 -45 -41 -18 0 -23 -6 -23 -25 0 -14 -4 -25 -10
-25 -6 0 -10 27 -10 61 l0 60 43 -3 c36 -3 43 -7 45 -27z"/>
<path d="M1200 2905 c0 -9 9 -15 25 -15 16 0 25 6 25 15 0 9 -9 15 -25 15 -16
0 -25 -6 -25 -15z"/>
<path d="M5997 1462 l-97 -97 95 -95 95 -95 98 98 97 97 -95 95 -95 95 -98
-98z m131 -51 c4 -26 -12 -41 -45 -41 -18 0 -23 -6 -23 -25 0 -14 -4 -25 -10
-25 -6 0 -10 27 -10 61 l0 60 43 -3 c36 -3 43 -7 45 -27z"/>
<path d="M6060 1405 c0 -9 9 -15 25 -15 16 0 25 6 25 15 0 9 -9 15 -25 15 -16
0 -25 -6 -25 -15z"/>
<path d="M8887 1462 l-97 -97 95 -95 95 -95 98 98 97 97 -95 95 -95 95 -98
-98z m131 -51 c4 -26 -12 -41 -45 -41 -18 0 -23 -6 -23 -25 0 -14 -4 -25 -10
-25 -6 0 -10 27 -10 61 l0 60 43 -3 c36 -3 43 -7 45 -27z"/>
<path d="M8950 1405 c0 -9 9 -15 25 -15 16 0 25 6 25 15 0 9 -9 15 -25 15 -16
0 -25 -6 -25 -15z"/>
<path d="M5997 942 l-97 -97 98 -98 97 -97 98 98 97 97 -98 98 -97 97 -98 -98z
m131 -51 c4 -26 -12 -41 -45 -41 -18 0 -23 -6 -23 -25 0 -14 -4 -25 -10 -25
-6 0 -10 27 -10 61 l0 60 43 -3 c36 -3 43 -7 45 -27z"/>
<path d="M6060 885 c0 -9 9 -15 25 -15 16 0 25 6 25 15 0 9 -9 15 -25 15 -16
0 -25 -6 -25 -15z"/>
<path d="M8887 862 l-97 -97 95 -95 95 -95 98 98 97 97 -95 95 -95 95 -98 -98z
m131 -51 c4 -26 -12 -41 -45 -41 -18 0 -23 -6 -23 -25 0 -14 -4 -25 -10 -25
-6 0 -10 27 -10 61 l0 60 43 -3 c36 -3 43 -7 45 -27z"/>
<path d="M8950 805 c0 -9 9 -15 25 -15 16 0 25 6 25 15 0 9 -9 15 -25 15 -16
0 -25 -6 -25 -15z"/>
<path d="M5980 508 c-107 -54 -129 -188 -45 -273 62 -61 146 -70 215 -22 91
61 107 174 37 254 -58 65 -130 80 -207 41z m130 -88 c0 -5 -9 -10 -20 -10 -17
0 -20 -7 -22 -52 l-2 -53 -3 53 c-3 44 -7 52 -24 52 -10 0 -19 5 -19 10 0 6
20 10 45 10 25 0 45 -4 45 -10z"/>
</g>
</svg>
