<svg version="1.1" viewBox="0.0 0.0 4175.734908136483 3007.721784776903" fill="none" stroke="none" stroke-linecap="square" stroke-miterlimit="10" xmlns:xlink="http://www.w3.org/1999/xlink" xmlns="http://www.w3.org/2000/svg"><clipPath id="p.0"><path d="m0 0l4175.735 0l0 3007.7217l-4175.735 0l0 -3007.7217z" clip-rule="nonzero"/></clipPath><g clip-path="url(#p.0)"><path fill="#000000" fill-opacity="0.0" d="m0 0l4175.735 0l0 3007.7217l-4175.735 0z" fill-rule="evenodd"/><path fill="#000000" fill-opacity="0.0" d="m2556.57 2176.4841l273.07104 0l0 343.7163l-273.07104 0z" fill-rule="evenodd"/><path stroke="#ffffff" stroke-width="12.0" stroke-linejoin="round" stroke-linecap="butt" d="m2556.57 2176.4841l273.07104 0l0 343.7163l-273.07104 0z" fill-rule="evenodd"/><path fill="#000000" fill-opacity="0.0" d="m2551.9749 2732.0583l282.26196 0l-56.452393 -144.08984l-169.35718 0z" fill-rule="evenodd"/><path stroke="#ffffff" stroke-width="12.0" stroke-linejoin="round" stroke-linecap="butt" d="m2551.9749 2732.0583l282.26196 0l-56.452393 -144.08984l-169.35718 0z" fill-rule="evenodd"/><path fill="#000000" fill-opacity="0.0" d="m2558.9333 2520.0166l273.0569 0l-54.61133 67.951904l-163.83423 0z" fill-rule="evenodd"/><path stroke="#ffffff" stroke-width="12.0" stroke-linejoin="round" stroke-linecap="butt" d="m2558.9333 2520.0166l273.0569 0l-54.61133 67.951904l-163.83423 0z" fill-rule="evenodd"/><path fill="#000000" fill-opacity="0.0" d="m2312.017 927.4603l273.07104 0l0 677.6378l-273.07104 0z" fill-rule="evenodd"/><path stroke="#ffffff" stroke-width="16.0" stroke-linejoin="round" stroke-linecap="butt" d="m2312.017 927.4603l273.07104 0l0 677.6378l-273.07104 0z" fill-rule="evenodd"/><path fill="#ffffff" d="m2413.306 1291.3392l-36.34375 0l0 -50.40625l13.0 0l0 40.65625l23.34375 0l0 9.75zm56.848145 -25.1875q0 12.046875 -6.90625 19.140625q-6.90625 7.09375 -19.09375 7.09375q-12.15625 0 -19.0625 -7.09375q-6.90625 -7.09375 -6.90625 -19.140625q0 -12.15625 6.90625 -19.203125q6.90625 -7.0625 19.0625 -7.0625q12.109375 0 19.046875 7.0625q6.953125 7.046875 6.953125 19.203125zm-17.234375 12.765625q1.890625 -2.296875 2.796875 -5.421875q0.921875 -3.140625 0.921875 -7.375q0 -4.53125 -1.046875 -7.71875q-1.046875 -3.1875 -2.734375 -5.140625q-1.734375 -2.03125 -3.984375 -2.9375q-2.25 -0.921875 -4.6875 -0.921875q-2.46875 0 -4.65625 0.875q-2.1875 0.875 -4.015625 2.90625q-1.6875 1.90625 -2.75 5.234375q-1.0625 3.328125 -1.0625 7.734375q0 4.5 1.03125 7.671875q1.03125 3.15625 2.71875 5.15625q1.6875 2.0 3.953125 2.953125q2.28125 0.9375 4.78125 0.9375q2.5 0 4.765625 -0.953125q2.28125 -0.96875 3.96875 -3.0zm72.84204 12.421875l-15.03125 0l-10.859375 -16.59375l-11.0625 16.59375l-14.359375 0l17.875 -25.390625l-17.5 -25.015625l15.0 0l10.484375 15.703125l10.796875 -15.703125l14.390625 0l-17.59375 24.515625l17.859375 25.890625z" fill-rule="nonzero"/><path fill="#000000" fill-opacity="0.0" d="m860.46924 503.09882l273.07092 0l0 677.63776l-273.07092 0z" fill-rule="evenodd"/><path stroke="#ffffff" stroke-width="16.0" stroke-linejoin="round" stroke-linecap="butt" d="m860.46924 503.09882l273.07092 0l0 677.63776l-273.07092 0z" fill-rule="evenodd"/><path fill="#ffffff" d="m971.6003 864.1027q-3.390625 1.3125 -8.984375 2.625q-5.578125 1.296875 -11.125 1.296875q-12.859375 0 -20.140625 -6.984375q-7.28125 -7.0 -7.28125 -19.3125q0 -11.75 7.34375 -18.9375q7.34375 -7.203125 20.484375 -7.203125q4.96875 0 9.46875 0.90625q4.515625 0.890625 10.03125 3.5625l0 11.8125l-1.453125 0q-0.953125 -0.703125 -2.78125 -2.0q-1.828125 -1.3125 -3.515625 -2.21875q-1.96875 -1.09375 -4.59375 -1.859375q-2.625 -0.78125 -5.5625 -0.78125q-3.453125 0 -6.265625 1.015625q-2.8125 1.015625 -5.046875 3.109375q-2.125 2.03125 -3.359375 5.171875q-1.234375 3.125 -1.234375 7.21875q0 8.359375 4.421875 12.796875q4.4375 4.4375 13.109375 4.4375q0.734375 0 1.625 -0.03125q0.90625 -0.046875 1.65625 -0.109375l0 -9.890625l-10.046875 0l0 -9.515625l23.25 0l0 24.890625zm51.993164 -12.96875q0 7.453125 -6.3125 12.109375q-6.3125 4.640625 -17.140625 4.640625q-6.265625 0 -10.921875 -1.09375q-4.65625 -1.09375 -8.71875 -2.796875l0 -12.078125l1.421875 0q4.03125 3.21875 9.015625 4.953125q5.0 1.71875 9.609375 1.71875q1.1875 0 3.109375 -0.203125q1.9375 -0.203125 3.15625 -0.6875q1.484375 -0.609375 2.4375 -1.515625q0.96875 -0.921875 0.96875 -2.703125q0 -1.671875 -1.40625 -2.859375q-1.390625 -1.203125 -4.109375 -1.859375q-2.84375 -0.671875 -6.015625 -1.265625q-3.15625 -0.59375 -5.9375 -1.5q-6.359375 -2.0625 -9.15625 -5.59375q-2.78125 -3.546875 -2.78125 -8.796875q0 -7.046875 6.3125 -11.484375q6.3125 -4.453125 16.234375 -4.453125q4.96875 0 9.828125 0.96875q4.859375 0.953125 8.40625 2.40625l0 11.609375l-1.390625 0q-3.046875 -2.4375 -7.46875 -4.078125q-4.40625 -1.640625 -9.015625 -1.640625q-1.625 0 -3.234375 0.21875q-1.59375 0.21875 -3.09375 0.828125q-1.3125 0.515625 -2.265625 1.546875q-0.953125 1.03125 -0.953125 2.359375q0 1.984375 1.515625 3.0625q1.53125 1.0625 5.765625 1.9375q2.78125 0.578125 5.328125 1.125q2.5625 0.53125 5.5 1.484375q5.796875 1.890625 8.546875 5.15625q2.765625 3.265625 2.765625 8.484375zm45.363464 15.84375l-36.453125 0l0 -50.40625l36.453125 0l0 9.75l-23.53125 0l0 8.703125l21.84375 0l0 9.75l-21.84375 0l0 12.453125l23.53125 0l0 9.75z" fill-rule="nonzero"/><path fill="#000000" fill-opacity="0.0" d="m3078.8022 927.6181l-273.07104 0l0 677.63776l273.07104 0z" fill-rule="evenodd"/><path stroke="#ffffff" stroke-width="16.0" stroke-linejoin="round" stroke-linecap="butt" d="m3078.8022 927.6181l-273.07104 0l0 677.63776l273.07104 0z" fill-rule="evenodd"/><path fill="#ffffff" d="m2902.7065 1250.8408l-23.1875 0l0 9.375l21.5 0l0 9.75l-21.5 0l0 21.53125l-12.921875 0l0 -50.40625l36.109375 0l0 9.75zm46.184082 40.65625l-12.1875 0l0 -4.203125q-3.390625 2.578125 -6.203125 3.921875q-2.8125 1.328125 -6.703125 1.328125q-6.296875 0 -9.703125 -3.609375q-3.390625 -3.625 -3.390625 -10.703125l0 -24.75l12.25 0l0 18.859375q0 2.875 0.1875 4.796875q0.1875 1.90625 0.859375 3.15625q0.640625 1.25 1.9375 1.828125q1.3125 0.578125 3.65625 0.578125q1.546875 0 3.4375 -0.578125q1.90625 -0.578125 3.671875 -1.6875l0 -26.953125l12.1875 0l0 38.015625zm48.93628 -16.75l-27.890625 0q0.28125 4.46875 3.40625 6.84375q3.125 2.359375 9.21875 2.359375q3.859375 0 7.484375 -1.390625q3.625 -1.390625 5.71875 -2.984375l1.359375 0l0 9.796875q-4.125 1.65625 -7.78125 2.390625q-3.65625 0.75 -8.09375 0.75q-11.4375 0 -17.53125 -5.140625q-6.09375 -5.15625 -6.09375 -14.65625q0 -9.421875 5.765625 -14.921875q5.765625 -5.5 15.828125 -5.5q9.28125 0 13.9375 4.6875q4.671875 4.6875 4.671875 13.5l0 4.265625zm-12.109375 -7.15625q-0.109375 -3.8125 -1.90625 -5.734375q-1.78125 -1.9375 -5.578125 -1.9375q-3.515625 0 -5.796875 1.828125q-2.265625 1.828125 -2.53125 5.84375l15.8125 0zm32.897705 23.90625l-12.1875 0l0 -52.671875l12.1875 0l0 52.671875z" fill-rule="nonzero"/><path fill="#000000" fill-opacity="0.0" d="m2312.017 1011.6643l-490.2992 0" fill-rule="evenodd"/><path stroke="#ffffff" stroke-width="24.0" stroke-linejoin="round" stroke-linecap="butt" d="m2312.0173 1011.66437l-399.33936 0" fill-rule="evenodd"/><path fill="#ffffff" stroke="#ffffff" stroke-width="24.0" stroke-linecap="butt" d="m1833.718 1011.66437c0 -21.8042 17.675781 -39.47998 39.47998 -39.47998c21.8042 0 39.47998 17.675781 39.47998 39.47998c0 21.80426 -17.675781 39.48004 -39.47998 39.48004c-21.8042 0 -39.47998 -17.675781 -39.47998 -39.48004z" fill-rule="nonzero"/><path fill="#000000" fill-opacity="0.0" d="m3073.013 1011.6504l490.29932 0" fill-rule="evenodd"/><path stroke="#ffffff" stroke-width="24.0" stroke-linejoin="round" stroke-linecap="butt" d="m3073.0132 1011.65045l399.3391 0" fill-rule="evenodd"/><path fill="#ffffff" stroke="#ffffff" stroke-width="24.0" stroke-linecap="butt" d="m3551.3123 1011.65045c0 21.804138 -17.675781 39.47992 -39.47998 39.47992c-21.8042 0 -39.47998 -17.675781 -39.47998 -39.47992c0 -21.8042 17.675781 -39.48004 39.47998 -39.48004c21.8042 0 39.47998 17.675842 39.47998 39.48004z" fill-rule="nonzero"/><path fill="#000000" fill-opacity="0.0" d="m1598.8898 1736.7979l-616.18896 0" fill-rule="evenodd"/><path stroke="#ffffff" stroke-width="24.0" stroke-linejoin="round" stroke-linecap="butt" d="m1598.8898 1736.7979l-616.18896 0" fill-rule="evenodd"/><path fill="#000000" fill-opacity="0.0" d="m3072.9937 1320.25l163.05518 0" fill-rule="evenodd"/><path stroke="#ffffff" stroke-width="12.0" stroke-linejoin="round" stroke-linecap="butt" d="m3072.9937 1320.25l163.05518 0" fill-rule="evenodd"/><path fill="#000000" fill-opacity="0.0" d="m3236.0488 1320.25l93.03931 -86.881836l93.03931 86.881836l-93.03931 86.88196z" fill-rule="evenodd"/><path stroke="#ffffff" stroke-width="12.0" stroke-linejoin="round" stroke-linecap="butt" d="m3236.0488 1320.25l93.03931 -86.881836l93.03931 86.881836l-93.03931 86.88196z" fill-rule="evenodd"/><path fill="#ffffff" d="m3312.6152 1345.31l0 -49.625l16.078125 0q9.140625 0 11.921875 0.75q4.25 1.109375 7.125 4.859375q2.890625 3.734375 2.890625 9.65625q0 4.5625 -1.671875 7.6875q-1.65625 3.109375 -4.21875 4.890625q-2.546875 1.78125 -5.1875 2.34375q-3.578125 0.71875 -10.390625 0.71875l-6.53125 0l0 18.71875l-10.015625 0zm10.015625 -41.234375l0 14.078125l5.484375 0q5.921875 0 7.921875 -0.765625q2.0 -0.78125 3.125 -2.4375q1.140625 -1.671875 1.140625 -3.859375q0 -2.71875 -1.59375 -4.46875q-1.59375 -1.765625 -4.03125 -2.203125q-1.78125 -0.34375 -7.203125 -0.34375l-4.84375 0z" fill-rule="nonzero"/><path fill="#000000" fill-opacity="0.0" d="m2309.9526 1320.2494l-168.18896 0" fill-rule="evenodd"/><path stroke="#ffffff" stroke-width="12.0" stroke-linejoin="round" stroke-linecap="butt" d="m2309.9526 1320.2494l-168.18896 0" fill-rule="evenodd"/><path fill="#000000" fill-opacity="0.0" d="m2141.7637 1320.2494l-93.03931 -89.21265l-93.03931 89.21265l93.03931 89.212524z" fill-rule="evenodd"/><path stroke="#ffffff" stroke-width="12.0" stroke-linejoin="round" stroke-linecap="butt" d="m2141.7637 1320.2494l-93.03931 -89.21265l-93.03931 89.21265l93.03931 89.212524z" fill-rule="evenodd"/><path fill="#ffffff" d="m2075.236 1310.8093q0 3.390625 -1.1875 6.625q-1.171875 3.234375 -3.375 5.4375q-3.015625 2.96875 -6.71875 4.5q-3.703125 1.515625 -9.234375 1.515625l-8.078247 0l0 16.421875l-13.0 0l0 -50.40625l21.390747 0q4.8125 0 8.109375 0.828125q3.296875 0.828125 5.828125 2.484375q3.046875 2.0 4.65625 5.125q1.609375 3.109375 1.609375 7.46875zm-13.4375 0.3125q0 -2.140625 -1.15625 -3.671875q-1.140625 -1.546875 -2.671875 -2.15625q-2.03125 -0.8125 -3.96875 -0.890625q-1.921875 -0.09375 -5.125 -0.09375l-2.234497 0l0 15.109375l3.718872 0q3.3125 0 5.453125 -0.40625q2.15625 -0.40625 3.625 -1.625q1.25 -1.09375 1.796875 -2.59375q0.5625 -1.515625 0.5625 -3.671875z" fill-rule="nonzero"/><path fill="#000000" fill-opacity="0.0" d="m914.51746 2430.4075l82.48816 79.74805l82.48816 -79.74805z" fill-rule="evenodd"/><path stroke="#ffffff" stroke-width="16.0" stroke-linejoin="round" stroke-linecap="butt" d="m914.51746 2430.4075l82.48816 79.74805l82.48816 -79.74805z" fill-rule="evenodd"/><path fill="#000000" fill-opacity="0.0" d="m856.4593 949.16797l-206.92908 0.12597656" fill-rule="evenodd"/><path stroke="#ffffff" stroke-width="12.0" stroke-linejoin="round" stroke-linecap="butt" d="m856.4593 949.16797l-206.92908 0.12597656" fill-rule="evenodd"/><path fill="#000000" fill-opacity="0.0" d="m858.53546 756.6522l-182.26776 0.25201416" fill-rule="evenodd"/><path stroke="#ffffff" stroke-width="12.0" stroke-linejoin="round" stroke-linecap="butt" d="m858.53546 756.6522l-182.26776 0.25201416" fill-rule="evenodd"/><path fill="#000000" fill-opacity="0.0" d="m676.2677 756.90424l-93.03937 -89.21265l-93.03937 89.21265l93.03937 89.212585z" fill-rule="evenodd"/><path stroke="#ffffff" stroke-width="12.0" stroke-linejoin="round" stroke-linecap="butt" d="m676.2677 756.90424l-93.03937 -89.21265l-93.03937 89.21265l93.03937 89.212585z" fill-rule="evenodd"/><path fill="#ffffff" d="m609.7399 747.46423q0 3.390625 -1.1875 6.625q-1.171875 3.234375 -3.375 5.4375q-3.015625 2.96875 -6.71875 4.5q-3.703125 1.515625 -9.234375 1.515625l-8.078125 0l0 16.421875l-13.0 0l0 -50.40625l21.390625 0q4.8125 0 8.109375 0.828125q3.296875 0.828125 5.828125 2.484375q3.046875 2.0 4.65625 5.125q1.609375 3.109375 1.609375 7.46875zm-13.4375 0.3125q0 -2.140625 -1.15625 -3.671875q-1.140625 -1.546875 -2.671875 -2.15625q-2.03125 -0.8125 -3.96875 -0.890625q-1.921875 -0.09375 -5.125 -0.09375l-2.234375 0l0 15.109375l3.71875 0q3.3125 0 5.453125 -0.40625q2.15625 -0.40625 3.625 -1.625q1.25 -1.09375 1.796875 -2.59375q0.5625 -1.515625 0.5625 -3.671875z" fill-rule="nonzero"/><path fill="#000000" fill-opacity="0.0" d="m511.65353 949.30707l0 0c0 -39.529663 32.045135 -71.57477 71.5748 -71.57477l0 0c18.98285 0 37.18817 7.5408936 50.611023 20.963745c13.422913 13.422913 20.963806 31.628235 20.963806 50.611023l0 0c0 39.529663 -32.045166 71.57483 -71.57483 71.57483l0 0c-39.529663 0 -71.5748 -32.045166 -71.5748 -71.57483z" fill-rule="evenodd"/><path stroke="#ffffff" stroke-width="12.0" stroke-linejoin="round" stroke-linecap="butt" d="m511.65353 949.30707l0 0c0 -39.529663 32.045135 -71.57477 71.5748 -71.57477l0 0c18.98285 0 37.18817 7.5408936 50.611023 20.963745c13.422913 13.422913 20.963806 31.628235 20.963806 50.611023l0 0c0 39.529663 -32.045166 71.57483 -71.57483 71.57483l0 0c-39.529663 0 -71.5748 -32.045166 -71.5748 -71.57483z" fill-rule="evenodd"/><path fill="#ffffff" d="m605.4749 933.7108l-15.75 0l0 40.65625l-13.0 0l0 -40.65625l-15.734375 0l0 -9.75l44.484375 0l0 9.75z" fill-rule="nonzero"/><path fill="#000000" fill-opacity="0.0" d="m1005.68506 1736.7966l-168.18903 0" fill-rule="evenodd"/><path stroke="#ffffff" stroke-width="12.0" stroke-linejoin="round" stroke-linecap="butt" d="m1005.68506 1736.7966l-168.18903 0" fill-rule="evenodd"/><path fill="#000000" fill-opacity="0.0" d="m837.49603 1736.7966l-93.03937 -89.21265l-93.03937 89.21265l93.03937 89.212524z" fill-rule="evenodd"/><path stroke="#ffffff" stroke-width="12.0" stroke-linejoin="round" stroke-linecap="butt" d="m837.49603 1736.7966l-93.03937 -89.21265l-93.03937 89.21265l93.03937 89.212524z" fill-rule="evenodd"/><path fill="#ffffff" d="m770.96826 1727.3566q0 3.390625 -1.1875 6.625q-1.171875 3.234375 -3.375 5.4375q-3.015625 2.96875 -6.71875 4.5q-3.703125 1.515625 -9.234375 1.515625l-8.078125 0l0 16.421875l-13.0 0l0 -50.40625l21.390625 0q4.8125 0 8.109375 0.828125q3.296875 0.828125 5.828125 2.484375q3.046875 2.0 4.65625 5.125q1.609375 3.109375 1.609375 7.46875zm-13.4375 0.3125q0 -2.140625 -1.15625 -3.671875q-1.140625 -1.546875 -2.671875 -2.15625q-2.03125 -0.8125 -3.96875 -0.890625q-1.921875 -0.09375 -5.125 -0.09375l-2.234375 0l0 15.109375l3.71875 0q3.3125 0 5.453125 -0.40625q2.15625 -0.40625 3.625 -1.625q1.25 -1.09375 1.796875 -2.59375q0.5625 -1.515625 0.5625 -3.671875z" fill-rule="nonzero"/><path fill="#000000" fill-opacity="0.0" d="m1596.8898 1736.4987l689.8268 114.04724" fill-rule="evenodd"/><path stroke="#ffffff" stroke-width="24.0" stroke-linejoin="round" stroke-linecap="butt" d="m1596.8898 1736.4987l689.8268 114.04724" fill-rule="evenodd"/><path fill="#000000" fill-opacity="0.0" d="m2052.4436 1410.6812l-495.65356 0.2939453l-0.80578613 -181.45142l497.57996 2.4172363" fill-rule="evenodd"/><path stroke="#ffffff" stroke-width="12.0" stroke-linejoin="round" stroke-linecap="butt" d="m2052.4436 1410.6812l-495.65356 0.2939453l-0.80578613 -181.45142l497.57996 2.4172363" fill-rule="evenodd"/><path fill="#000000" fill-opacity="0.0" d="m584.75854 1021.1286l-496.45935 -1.4435425l-0.8057709 -144.09186l497.58005 1.9186401" fill-rule="evenodd"/><path stroke="#ffffff" stroke-width="12.0" stroke-linejoin="round" stroke-linecap="butt" d="m584.75854 1021.1286l-496.45935 -1.4435425l-0.8057709 -144.09186l497.58005 1.9186401" fill-rule="evenodd"/><path fill="#000000" fill-opacity="0.0" d="m743.7034 1827.2296l-495.65356 0.29406738l-0.8057709 -181.45154l497.58008 2.4173584" fill-rule="evenodd"/><path stroke="#ffffff" stroke-width="12.0" stroke-linejoin="round" stroke-linecap="butt" d="m743.7034 1827.2296l-495.65356 0.29406738l-0.8057709 -181.45154l497.58008 2.4173584" fill-rule="evenodd"/><path fill="#000000" fill-opacity="0.0" d="m583.95276 847.3373l-495.65356 0.2939453l-0.8057709 -181.45142l497.58005 2.4172974" fill-rule="evenodd"/><path stroke="#ffffff" stroke-width="12.0" stroke-linejoin="round" stroke-linecap="butt" d="m583.95276 847.3373l-495.65356 0.2939453l-0.8057709 -181.45142l497.58005 2.4172974" fill-rule="evenodd"/><path fill="#000000" fill-opacity="0.0" d="m3331.3752 1229.8163l495.65356 -0.2939453l0.8059082 181.45142l-497.58008 -2.4173584" fill-rule="evenodd"/><path stroke="#ffffff" stroke-width="12.0" stroke-linejoin="round" stroke-linecap="butt" d="m3331.3752 1229.8163l495.65356 -0.2939453l0.8059082 181.45142l-497.58008 -2.4173584" fill-rule="evenodd"/><path fill="#000000" fill-opacity="0.0" d="m997.0047 1180.7366l0 1249.6694" fill-rule="evenodd"/><path stroke="#ffffff" stroke-width="24.0" stroke-linejoin="round" stroke-linecap="butt" d="m997.0047 1180.7366l0 1249.6694" fill-rule="evenodd"/><path fill="#000000" fill-opacity="0.0" d="m2647.1943 2052.8923l96.5354 0l0 123.590576l-96.5354 0z" fill-rule="evenodd"/><path stroke="#ffffff" stroke-width="16.0" stroke-linejoin="round" stroke-linecap="butt" d="m2647.1943 2052.8923l96.5354 0l0 123.590576l-96.5354 0z" fill-rule="evenodd"/><path fill="#000000" fill-opacity="0.0" d="m2363.6655 1616.3597l0 1043.6537l216.5354 0" fill-rule="evenodd"/><path stroke="#ffffff" stroke-width="16.0" stroke-linejoin="round" stroke-linecap="butt" d="m2363.6655 1616.3597l0 1043.6537l216.5354 0" fill-rule="evenodd"/><path fill="#000000" fill-opacity="0.0" d="m2655.9607 2052.8845l15.385498 0l0 -218.2362l-300.99194 0" fill-rule="evenodd"/><path stroke="#ffffff" stroke-width="16.0" stroke-linejoin="round" stroke-linecap="butt" d="m2655.9607 2052.8845l15.385498 0l0 -218.2362l-300.99194 0" fill-rule="evenodd"/><path fill="#000000" fill-opacity="0.0" d="m2836.3464 2204.8083l0 0l188.59839 0l0 -590.1417" fill-rule="evenodd"/><path stroke="#ffffff" stroke-width="16.0" stroke-linejoin="round" stroke-linecap="butt" d="m2836.3464 2204.8083l0 0l188.59839 0l0 -590.1417" fill-rule="evenodd"/><path fill="#000000" fill-opacity="0.0" d="m2738.2805 2052.8845l-15.385498 0l0 -218.2362l300.99194 0" fill-rule="evenodd"/><path stroke="#ffffff" stroke-width="16.0" stroke-linejoin="round" stroke-linecap="butt" d="m2738.2805 2052.8845l-15.385498 0l0 -218.2362l300.99194 0" fill-rule="evenodd"/><path fill="#000000" fill-opacity="0.0" d="m2942.2666 927.6181l0 -25.157776l-493.70068 0l0 25.000305" fill-rule="evenodd"/><path stroke="#ffffff" stroke-width="16.0" stroke-linejoin="round" stroke-linecap="butt" d="m2942.2666 927.6181l0 -25.157776l-493.70068 0l0 25.000305" fill-rule="evenodd"/><path fill="#000000" fill-opacity="0.0" d="m2693.104 533.6774l0.94506836 326.5197" fill-rule="evenodd"/><path stroke="#ffffff" stroke-width="16.0" stroke-linejoin="round" stroke-linecap="butt" d="m2693.104 533.6774l0.94506836 326.5197" fill-rule="evenodd"/><path fill="#000000" fill-opacity="0.0" d="m2567.9072 144.5121l250.3938 0l0 389.16534l-250.3938 0z" fill-rule="evenodd"/><path stroke="#ff9900" stroke-width="16.0" stroke-linejoin="round" stroke-linecap="butt" d="m2567.9072 144.5121l250.3938 0l0 389.16534l-250.3938 0z" fill-rule="evenodd"/><path fill="#ffffff" d="m2691.3765 364.15475l-12.53125 0l-21.390625 -34.59375l0 34.59375l-11.90625 0l0 -50.40625l15.53125 0l18.375 28.875l0 -28.875l11.921875 0l0 50.40625zm52.26123 0l-39.5625 0l0 -8.328125q4.53125 -3.28125 9.078125 -6.96875q4.5625 -3.6875 7.296875 -6.375q4.109375 -3.953125 5.828125 -6.890625q1.734375 -2.953125 1.734375 -5.828125q0 -3.453125 -2.21875 -5.328125q-2.21875 -1.890625 -6.390625 -1.890625q-3.109375 0 -6.546875 1.296875q-3.4375 1.28125 -6.375 3.28125l-1.09375 0l0 -11.203125q2.40625 -1.046875 7.09375 -2.09375q4.6875 -1.0625 9.390625 -1.0625q9.484375 0 14.453125 3.984375q4.984375 3.96875 4.984375 11.25q0 4.78125 -2.390625 9.078125q-2.390625 4.296875 -7.296875 8.859375q-3.078125 2.84375 -6.1875 5.234375q-3.109375 2.390625 -4.4375 3.34375l22.640625 0l0 9.640625z" fill-rule="nonzero"/><path fill="#000000" fill-opacity="0.0" d="m2525.8608 575.4541l-93.03931 -89.212616l-93.03931 89.212616l93.03931 89.212585z" fill-rule="evenodd"/><path stroke="#ffffff" stroke-width="12.0" stroke-linejoin="round" stroke-linecap="butt" d="m2525.8608 575.4541l-93.03931 -89.212616l-93.03931 89.212616l93.03931 89.212585z" fill-rule="evenodd"/><path fill="#ffffff" d="m2459.333 566.0141q0 3.390625 -1.1875 6.625q-1.171875 3.234375 -3.375 5.4375q-3.015625 2.96875 -6.71875 4.5q-3.703125 1.515625 -9.234375 1.515625l-8.078125 0l0 16.421875l-13.0 0l0 -50.40625l21.390625 0q4.8125 0 8.109375 0.828125q3.296875 0.828125 5.828125 2.484375q3.046875 2.0 4.65625 5.125q1.609375 3.109375 1.609375 7.46875zm-13.4375 0.3125q0 -2.140625 -1.15625 -3.671875q-1.140625 -1.546875 -2.671875 -2.15625q-2.03125 -0.8125 -3.96875 -0.890625q-1.921875 -0.09375 -5.125 -0.09375l-2.234375 0l0 15.109375l3.71875 0q3.3125 0 5.453125 -0.40625q2.15625 -0.40625 3.625 -1.625q1.25 -1.09375 1.796875 -2.59375q0.5625 -1.515625 0.5625 -3.671875z" fill-rule="nonzero"/><path fill="#000000" fill-opacity="0.0" d="m2436.5408 665.8858l-495.6537 0.29400635l-0.80566406 -181.45148l497.57996 2.417328" fill-rule="evenodd"/><path stroke="#ffffff" stroke-width="12.0" stroke-linejoin="round" stroke-linecap="butt" d="m2436.5408 665.8858l-495.6537 0.29400635l-0.80566406 -181.45148l497.57996 2.417328" fill-rule="evenodd"/><path fill="#000000" fill-opacity="0.0" d="m2364.895 2355.5198l-166.04736 -0.8820801" fill-rule="evenodd"/><path stroke="#ffffff" stroke-width="8.0" stroke-linejoin="round" stroke-linecap="butt" d="m2364.895 2355.5198l-166.04736 -0.8820801" fill-rule="evenodd"/><path fill="#000000" fill-opacity="0.0" d="m2196.9211 2355.811l-93.03931 -89.21265l-93.03931 89.21265l93.03931 89.21265z" fill-rule="evenodd"/><path stroke="#ffffff" stroke-width="12.0" stroke-linejoin="round" stroke-linecap="butt" d="m2196.9211 2355.811l-93.03931 -89.21265l-93.03931 89.21265l93.03931 89.21265z" fill-rule="evenodd"/><path fill="#ffffff" d="m2130.3936 2346.371q0 3.390625 -1.1875 6.625q-1.171875 3.234375 -3.375 5.4375q-3.015625 2.96875 -6.71875 4.5q-3.703125 1.515625 -9.234375 1.515625l-8.078125 0l0 16.421875l-13.0 0l0 -50.40625l21.390625 0q4.8125 0 8.109375 0.828125q3.296875 0.828125 5.828125 2.484375q3.046875 2.0 4.65625 5.125q1.609375 3.109375 1.609375 7.46875zm-13.4375 0.3125q0 -2.140625 -1.15625 -3.671875q-1.140625 -1.546875 -2.671875 -2.15625q-2.03125 -0.8125 -3.96875 -0.890625q-1.921875 -0.09375 -5.125 -0.09375l-2.234375 0l0 15.109375l3.71875 0q3.3125 0 5.453125 -0.40625q2.15625 -0.40625 3.625 -1.625q1.25 -1.09375 1.796875 -2.59375q0.5625 -1.515625 0.5625 -3.671875z" fill-rule="nonzero"/><path fill="#000000" fill-opacity="0.0" d="m2107.562 2446.2441l-507.84668 0.2939453l-0.8255615 -181.45142l509.82043 2.4172363" fill-rule="evenodd"/><path stroke="#ffffff" stroke-width="12.0" stroke-linejoin="round" stroke-linecap="butt" d="m2107.562 2446.2441l-507.84668 0.2939453l-0.8255615 -181.45142l509.82043 2.4172363" fill-rule="evenodd"/><path fill="#000000" fill-opacity="0.0" d="m2198.3538 2606.9685l75.40161 0l0 -252.31494" fill-rule="evenodd"/><path stroke="#ffffff" stroke-width="8.0" stroke-linejoin="round" stroke-linecap="butt" d="m2198.3538 2606.9685l75.40161 0l0 -252.31494" fill-rule="evenodd"/><path fill="#000000" fill-opacity="0.0" d="m3187.8557 2596.9355l93.03931 -89.21265l93.03931 89.21265l-93.03931 89.2124z" fill-rule="evenodd"/><path stroke="#ffffff" stroke-width="12.0" stroke-linejoin="round" stroke-linecap="butt" d="m3187.8557 2596.9355l93.03931 -89.21265l93.03931 89.21265l-93.03931 89.2124z" fill-rule="evenodd"/><path fill="#ffffff" d="m3307.4065 2587.4954q0 3.390625 -1.1875 6.625q-1.171875 3.234375 -3.375 5.4375q-3.015625 2.96875 -6.71875 4.5q-3.703125 1.515625 -9.234375 1.515625l-8.078125 0l0 16.421875l-13.0 0l0 -50.40625l21.390625 0q4.8125 0 8.109375 0.828125q3.296875 0.828125 5.828125 2.484375q3.046875 2.0 4.65625 5.125q1.609375 3.109375 1.609375 7.46875zm-13.4375 0.3125q0 -2.140625 -1.15625 -3.671875q-1.140625 -1.546875 -2.671875 -2.15625q-2.03125 -0.8125 -3.96875 -0.890625q-1.921875 -0.09375 -5.125 -0.09375l-2.234375 0l0 15.109375l3.71875 0q3.3125 0 5.453125 -0.40625q2.15625 -0.40625 3.625 -1.625q1.25 -1.09375 1.796875 -2.59375q0.5625 -1.515625 0.5625 -3.671875z" fill-rule="nonzero"/><path fill="#000000" fill-opacity="0.0" d="m3281.8564 2687.3674l507.84668 0.2939453l0.82543945 -181.45142l-509.82056 2.4172363" fill-rule="evenodd"/><path stroke="#ffffff" stroke-width="12.0" stroke-linejoin="round" stroke-linecap="butt" d="m3281.8564 2687.3674l507.84668 0.2939453l0.82543945 -181.45142l-509.82056 2.4172363" fill-rule="evenodd"/><path fill="#000000" fill-opacity="0.0" d="m2055.204 2606.9685l0 0c0 -39.529785 32.045166 -71.57471 71.57471 -71.57471l0 0c18.98291 0 37.188232 7.5407715 50.611084 20.963623c13.422852 13.422852 20.963867 31.628174 20.963867 50.611084l0 0c0 39.529785 -32.045166 71.57471 -71.57495 71.57471l0 0c-39.52954 0 -71.57471 -32.04492 -71.57471 -71.57471z" fill-rule="evenodd"/><path stroke="#ffffff" stroke-width="12.0" stroke-linejoin="round" stroke-linecap="butt" d="m2055.204 2606.9685l0 0c0 -39.529785 32.045166 -71.57471 71.57471 -71.57471l0 0c18.98291 0 37.188232 7.5407715 50.611084 20.963623c13.422852 13.422852 20.963867 31.628174 20.963867 50.611084l0 0c0 39.529785 -32.045166 71.57471 -71.57495 71.57471l0 0c-39.52954 0 -71.57471 -32.04492 -71.57471 -71.57471z" fill-rule="evenodd"/><path fill="#ffffff" d="m2149.0254 2591.3723l-15.75 0l0 40.65625l-13.0 0l0 -40.65625l-15.734375 0l0 -9.75l44.484375 0l0 9.75z" fill-rule="nonzero"/><path fill="#000000" fill-opacity="0.0" d="m2128.2783 2678.79l-528.53064 -1.4436035l-0.85791016 -144.0918l529.72375 1.9187012" fill-rule="evenodd"/><path stroke="#ffffff" stroke-width="12.0" stroke-linejoin="round" stroke-linecap="butt" d="m2128.2783 2678.79l-528.53064 -1.4436035l-0.85791016 -144.0918l529.72375 1.9187012" fill-rule="evenodd"/><path fill="#000000" fill-opacity="0.0" d="m3189.9438 2114.6897l93.03931 -86.88196l93.03931 86.88196l-93.03931 86.881836z" fill-rule="evenodd"/><path stroke="#ffffff" stroke-width="12.0" stroke-linejoin="round" stroke-linecap="butt" d="m3189.9438 2114.6897l93.03931 -86.88196l93.03931 86.88196l-93.03931 86.881836z" fill-rule="evenodd"/><path fill="#ffffff" d="m3266.5103 2139.7498l0 -49.625l16.078125 0q9.140625 0 11.921875 0.75q4.25 1.109375 7.125 4.859375q2.890625 3.734375 2.890625 9.65625q0 4.5625 -1.671875 7.6875q-1.65625 3.109375 -4.21875 4.890625q-2.546875 1.78125 -5.1875 2.34375q-3.578125 0.71875 -10.390625 0.71875l-6.53125 0l0 18.71875l-10.015625 0zm10.015625 -41.234375l0 14.078125l5.484375 0q5.921875 0 7.921875 -0.765625q2.0 -0.78125 3.125 -2.4375q1.140625 -1.671875 1.140625 -3.859375q0 -2.71875 -1.59375 -4.46875q-1.59375 -1.765625 -4.03125 -2.203125q-1.78125 -0.34375 -7.203125 -0.34375l-4.84375 0z" fill-rule="nonzero"/><path fill="#000000" fill-opacity="0.0" d="m3285.2703 2024.2559l495.65356 -0.2939453l0.8059082 181.45142l-497.58008 -2.4172363" fill-rule="evenodd"/><path stroke="#ffffff" stroke-width="12.0" stroke-linejoin="round" stroke-linecap="butt" d="m3285.2703 2024.2559l495.65356 -0.2939453l0.8059082 181.45142l-497.58008 -2.4172363" fill-rule="evenodd"/><path fill="#000000" fill-opacity="0.0" d="m3196.517 2116.5144l-452.78735 -1.8266602" fill-rule="evenodd"/><path stroke="#ffffff" stroke-width="8.0" stroke-linejoin="round" stroke-linecap="butt" d="m3196.517 2116.5144l-452.78735 -1.8266602" fill-rule="evenodd"/><path fill="#000000" fill-opacity="0.0" d="m3189.2876 2355.813l93.03931 -86.881836l93.03955 86.881836l-93.03955 86.881836z" fill-rule="evenodd"/><path stroke="#ffffff" stroke-width="12.0" stroke-linejoin="round" stroke-linecap="butt" d="m3189.2876 2355.813l93.03931 -86.881836l93.03955 86.881836l-93.03955 86.881836z" fill-rule="evenodd"/><path fill="#ffffff" d="m3265.8542 2380.873l0 -49.625l16.078125 0q9.140625 0 11.921875 0.75q4.25 1.109375 7.125 4.859375q2.890625 3.734375 2.890625 9.65625q0 4.5625 -1.671875 7.6875q-1.65625 3.109375 -4.21875 4.890625q-2.546875 1.78125 -5.1875 2.34375q-3.578125 0.71875 -10.390625 0.71875l-6.53125 0l0 18.71875l-10.015625 0zm10.015625 -41.234375l0 14.078125l5.484375 0q5.921875 0 7.921875 -0.765625q2.0 -0.78125 3.125 -2.4375q1.140625 -1.671875 1.140625 -3.859375q0 -2.71875 -1.59375 -4.46875q-1.59375 -1.765625 -4.03125 -2.203125q-1.78125 -0.34375 -7.203125 -0.34375l-4.84375 0z" fill-rule="nonzero"/><path fill="#000000" fill-opacity="0.0" d="m3284.6143 2265.3792l495.65356 -0.2939453l0.80566406 181.45166l-497.58008 -2.4174805" fill-rule="evenodd"/><path stroke="#ffffff" stroke-width="12.0" stroke-linejoin="round" stroke-linecap="butt" d="m3284.6143 2265.3792l495.65356 -0.2939453l0.80566406 181.45166l-497.58008 -2.4174805" fill-rule="evenodd"/><path fill="#000000" fill-opacity="0.0" d="m3193.6536 2365.6194l-169.76709 0l0 -151.40161l0.0031738281 0" fill-rule="evenodd"/><path stroke="#ffffff" stroke-width="8.0" stroke-linejoin="round" stroke-linecap="butt" d="m3193.6536 2365.6194l-169.76709 0l0 -151.40161l0.0031738281 0" fill-rule="evenodd"/><path fill="#000000" fill-opacity="0.0" d="m2309.9526 1736.4987l58.645752 0.28344727" fill-rule="evenodd"/><path stroke="#ffffff" stroke-width="24.0" stroke-linejoin="round" stroke-linecap="butt" d="m2309.9526 1736.4987l58.645752 0.28344727" fill-rule="evenodd"/><path fill="#000000" fill-opacity="0.0" d="m3193.6536 2597.9907l-410.70874 -2.1101074" fill-rule="evenodd"/><path stroke="#ffffff" stroke-width="8.0" stroke-linejoin="round" stroke-linecap="butt" d="m3193.6536 2597.9907l-410.70874 -2.1101074" fill-rule="evenodd"/><path fill="#000000" fill-opacity="0.0" d="m3012.5938 576.3989l0 0c0 -39.529663 -32.045166 -71.57477 -71.57471 -71.57477l0 0c-18.98291 0 -37.188232 7.5408936 -50.611084 20.963745c-13.422852 13.422913 -20.963867 31.628235 -20.963867 50.611023l0 0c0 39.529724 32.045166 71.57483 71.57495 71.57483l0 0c39.52954 0 71.57471 -32.045105 71.57471 -71.57483z" fill-rule="evenodd"/><path stroke="#ffffff" stroke-width="12.0" stroke-linejoin="round" stroke-linecap="butt" d="m3012.5938 576.3989l0 0c0 -39.529663 -32.045166 -71.57477 -71.57471 -71.57477l0 0c-18.98291 0 -37.188232 7.5408936 -50.611084 20.963745c-13.422852 13.422913 -20.963867 31.628235 -20.963867 50.611023l0 0c0 39.529724 32.045166 71.57483 71.57495 71.57483l0 0c39.52954 0 71.57471 -32.045105 71.57471 -71.57483z" fill-rule="evenodd"/><path fill="#ffffff" d="m2963.2654 560.8027l-15.75 0l0 40.65625l-13.0 0l0 -40.65625l-15.734375 0l0 -9.75l44.484375 0l0 9.75z" fill-rule="nonzero"/><path fill="#000000" fill-opacity="0.0" d="m2939.5195 648.22046l528.53076 -1.4435425l0.857666 -144.09189l-529.72363 1.9186401" fill-rule="evenodd"/><path stroke="#ffffff" stroke-width="12.0" stroke-linejoin="round" stroke-linecap="butt" d="m2939.5195 648.22046l528.53076 -1.4435425l0.857666 -144.09189l-529.72363 1.9186401" fill-rule="evenodd"/><path fill="#000000" fill-opacity="0.0" d="m2525.8608 575.4541l343.59058 0.94488525" fill-rule="evenodd"/><path stroke="#ffffff" stroke-width="12.0" stroke-linejoin="round" stroke-linecap="butt" d="m2525.8608 575.4541l343.59058 0.94488525" fill-rule="evenodd"/><path fill="#000000" fill-opacity="0.0" d="m2001.882 1522.0342l0 0c0 -39.529785 31.31189 -71.57483 69.93713 -71.57483l0 0c18.54834 0 36.33716 7.5408936 49.45288 20.963745c13.115723 13.422852 20.48413 31.628174 20.48413 50.611084l0 0c0 39.529663 -31.312012 71.57471 -69.93701 71.57471l0 0c-38.625244 0 -69.93713 -32.045044 -69.93713 -71.57471z" fill-rule="evenodd"/><path stroke="#ffffff" stroke-width="12.0" stroke-linejoin="round" stroke-linecap="butt" d="m2001.882 1522.0342l0 0c0 -39.529785 31.31189 -71.57483 69.93713 -71.57483l0 0c18.54834 0 36.33716 7.5408936 49.45288 20.963745c13.115723 13.422852 20.48413 31.628174 20.48413 50.611084l0 0c0 39.529663 -31.312012 71.57471 -69.93701 71.57471l0 0c-38.625244 0 -69.93713 -32.045044 -69.93713 -71.57471z" fill-rule="evenodd"/><path fill="#ffffff" d="m2094.0654 1506.4379l-15.75 0l0 40.65625l-13.0 0l0 -40.65625l-15.734375 0l0 -9.75l44.484375 0l0 9.75z" fill-rule="nonzero"/><path fill="#000000" fill-opacity="0.0" d="m2073.289 1593.8556l-516.46655 -1.4434814l-0.83825684 -144.09192l517.63245 1.9187012" fill-rule="evenodd"/><path stroke="#ffffff" stroke-width="12.0" stroke-linejoin="round" stroke-linecap="butt" d="m2073.289 1593.8556l-516.46655 -1.4434814l-0.83825684 -144.09192l517.63245 1.9187012" fill-rule="evenodd"/><path fill="#000000" fill-opacity="0.0" d="m2148.399 1531.6011l0 -3.999878l88.0 0l0 -204.00012" fill-rule="evenodd"/><path stroke="#ffffff" stroke-width="12.0" stroke-linejoin="round" stroke-linecap="butt" d="m2148.399 1531.6011l0 -3.999878l88.0 0l0 -204.00012" fill-rule="evenodd"/></g></svg>